<svg width="347" height="164" viewBox="0 0 347 164" fill="none" xmlns="http://www.w3.org/2000/svg">
    <rect width="347" height="164" rx="10" fill="#FF9900"/>
    <path d="M337 0H10C4.47715 0 0 4.47715 0 10V94.5002C10 76.0002 85.1561 36.0835 182.5 88.0002C235 116 268.064 159.108 347 130.5V10C347 4.47715 342.523 0 337 0Z" fill="#230C33"/>
    <mask id="mask0_0_1" style="mask-type:alpha" maskUnits="userSpaceOnUse" x="0" y="0" width="347" height="140">
        <path d="M337 0H10C4.47715 0 0 4.47715 0 10V94.5002C10 76.0002 85.1561 36.0835 182.5 88.0002C235 116 268.064 159.108 347 130.5V10C347 4.47715 342.523 0 337 0Z" fill="#00031D"/>
    </mask>
    <g mask="url(#mask0_0_1)">
        <mask id="mask1_0_1" style="mask-type:luminance" maskUnits="userSpaceOnUse" x="-168" y="-168" width="621" height="474">
            <path d="M387.159 305.788L-167.732 209.756L-102.419 -167.634L452.472 -71.6017L387.159 305.788Z" fill="white"/>
        </mask>
        <g mask="url(#mask1_0_1)">
            <path d="M126.032 -7.22787C130.653 0.806212 135.586 8.77178 140.832 16.6688C170.364 61.1394 202.483 82.9652 239.005 83.3187C270.638 83.6433 300.752 67.9285 327.328 54.0536C345.077 44.7821 361.786 36.0661 376.243 33.6634C424.328 25.759 441.559 35.3624 451.864 41.0695C457.816 44.3885 461.772 46.5855 467.975 42.9996C474.081 39.4785 469.368 13.3632 453.22 -39.2137C446.25 -61.9595 433.074 -75.6431 422.53 -86.6643C417.254 -92.155 412.674 -96.9531 409.9 -101.766C402.324 -115.052 401.711 -119.45 400.462 -129.107C399.404 -137.138 397.811 -149.267 391.074 -173.607C385.156 -194.986 369.253 -224.918 349.599 -251.78C338.42 -267.079 326.425 -280.886 313.983 -292.848C300.071 -306.251 285.873 -317.005 271.806 -324.793C245.752 -339.235 220.585 -343.426 196.981 -337.294C173.731 -331.222 152.944 -319.779 135.16 -303.36C117.521 -287.04 103.767 -266.613 94.2495 -242.634C80.4333 -207.709 76.6241 -166.842 83.2299 -124.377C86.7404 -101.739 93.2179 -78.6291 102.466 -55.6524C108.93 -39.4111 116.825 -23.2492 126.032 -7.22787ZM443.854 -58.287C447.123 -52.6123 450.018 -46.2666 452.269 -38.9287C459.595 -15.0177 464.493 3.07798 467.166 16.4152C471.051 35.6437 469.471 41.0514 467.425 42.2095C461.701 45.5104 458.377 43.6273 452.307 40.247C441.89 34.4388 424.464 24.72 376.018 32.7254C361.43 35.1461 344.582 43.9199 326.791 53.1842C300.354 67.0013 270.337 82.6512 238.962 82.3302C202.787 81.9551 170.98 60.306 141.616 16.1096C125.913 -7.53452 113.057 -31.7486 103.334 -55.9519C94.1204 -78.8817 87.6709 -101.905 84.1534 -124.503C77.5619 -166.802 81.3854 -207.503 95.1324 -242.277C104.587 -266.144 118.238 -286.466 135.814 -302.675C153.452 -318.996 174.136 -330.334 197.212 -336.395C220.552 -342.492 245.469 -338.343 271.287 -324.025C285.271 -316.251 299.392 -305.551 313.234 -292.242C325.642 -280.326 337.553 -266.535 348.745 -251.314C368.33 -224.546 384.205 -194.701 390.095 -173.409C396.804 -149.155 398.404 -137.066 399.462 -129.035C400.738 -119.291 401.338 -114.814 409.019 -101.387C409.012 -101.347 409.053 -101.34 409.047 -101.3C411.89 -96.3939 416.47 -91.5958 421.781 -86.0582C428.859 -78.5797 437.121 -69.9972 443.854 -58.287Z" fill="url(#paint0_linear_0_1)"/>
            <path d="M139.239 -19.2881C142.968 -12.7981 146.919 -6.35129 151.092 0.052152C177.379 40.4462 206.022 60.7713 238.664 62.2106C267.047 63.4443 294.354 50.309 318.468 38.7466C335.24 30.6547 351.111 23.0607 364.958 21.4517C408.97 15.7444 425.727 24.8571 435.733 30.3081C441.776 33.6018 445.781 35.7664 451.866 32.3644C455.321 30.5101 456.055 22.2992 454.034 7.93019C452.23 -4.97054 448.237 -22.3375 442.495 -42.2549C436.612 -63.0959 425.119 -75.8343 415.903 -86.0943C411.434 -91.0366 407.584 -95.3405 405.075 -99.6984C397.074 -113.508 396.267 -117.531 393.771 -129.407C392.102 -137.38 389.789 -148.325 384.228 -167.802C378.535 -187.752 363.658 -215.668 345.445 -240.686C335.039 -254.994 323.88 -267.92 312.369 -279.067C299.425 -291.607 286.305 -301.644 273.26 -308.888C249.764 -321.987 227.092 -325.951 205.82 -320.641C184.451 -315.266 165.245 -305.02 148.84 -290.121C132.498 -275.333 119.754 -256.776 110.871 -234.975C98.0691 -203.43 94.2869 -166.441 99.9472 -127.941C102.967 -107.432 108.656 -86.4613 116.893 -65.5806C122.897 -50.1546 130.429 -34.6276 139.239 -19.2881ZM433.211 -62.0497C436.508 -56.2884 439.452 -49.7299 441.648 -42.0746C453.761 0.0764569 457.505 28.3131 451.448 31.5563C445.834 34.713 442.226 32.7396 436.218 29.4928C426.094 23.9804 409.176 14.7992 364.859 20.5354C350.88 22.1624 334.954 29.8286 318.091 37.9457C294.109 49.4901 266.9 62.5605 238.731 61.3232C206.388 59.8946 177.981 39.6923 151.897 -0.380775C137.845 -21.9 126.333 -43.9604 117.677 -65.8945C109.517 -86.721 103.814 -107.613 100.787 -128.082C95.1414 -166.416 98.8961 -203.246 111.677 -234.672C120.511 -256.44 133.193 -274.886 149.431 -289.569C165.767 -304.317 184.793 -314.512 206.03 -319.869C227.073 -325.096 249.537 -321.168 272.796 -308.191C289.985 -298.595 316.398 -279.024 344.682 -240.246C362.866 -215.314 377.674 -187.493 383.34 -167.629C388.907 -148.192 391.179 -137.253 392.848 -129.281C395.295 -117.617 396.213 -113.249 404.277 -99.3052C406.856 -94.8535 410.705 -90.5496 415.209 -85.5603C420.973 -79.1677 427.6 -71.8083 433.211 -62.0497Z" fill="url(#paint1_linear_0_1)"/>
            <path d="M152.267 -31.5431C155.139 -26.5501 158.177 -21.5284 161.396 -16.5571C184.438 19.7604 209.647 38.5919 238.512 41.0125C263.646 43.1553 288.159 32.5201 309.825 23.1908C325.649 16.3652 340.549 9.91115 353.786 9.09579C393.684 5.57826 409.878 14.2256 419.591 19.3809C425.766 22.6565 429.854 24.8355 435.78 21.6103C444.051 17.4832 439.505 -16.0421 431.793 -45.4151C426.977 -64.4775 417.09 -76.3248 409.167 -85.8705C405.574 -90.1707 402.483 -93.8937 400.225 -97.7178C391.081 -113.36 390.144 -116.629 385.163 -134.739C383.295 -141.561 380.944 -150.06 377.357 -162.084C373.728 -174.361 366.327 -190.151 356.536 -206.519C345.553 -224.932 332.481 -242.44 318.762 -257.198C302.543 -274.637 285.993 -287.679 269.592 -295.871C250.506 -305.428 232.018 -308.26 214.612 -304.201C195.082 -299.529 177.534 -290.427 162.439 -277.14C147.441 -263.919 135.624 -247.244 127.362 -227.543C115.533 -199.386 111.813 -166.229 116.535 -131.733C121.094 -98.5323 133.093 -64.9024 152.267 -31.5431ZM422.472 -66.238C425.873 -60.336 428.894 -53.478 430.953 -45.2744C440.142 -10.2916 442.023 17.5409 435.355 20.8419C429.811 23.847 426.119 21.8592 419.979 18.6305C410.189 13.4211 393.828 4.74492 353.673 8.25884C340.311 9.05254 325.314 15.5715 309.442 22.4296C287.907 31.7408 263.492 42.3112 238.566 40.2044C209.999 37.7946 185.027 19.0857 162.152 -16.9576C137.711 -55.1114 122.632 -93.7702 117.41 -131.827C112.709 -166.196 116.444 -199.188 128.169 -227.24C136.361 -246.79 148.081 -263.399 163.024 -276.549C178.022 -289.771 195.473 -298.808 214.864 -303.422C232.047 -307.437 250.327 -304.641 269.253 -295.153C285.529 -286.982 302.01 -274.035 318.152 -256.65C331.836 -241.938 344.873 -224.477 355.822 -206.111C365.578 -189.791 372.909 -174.094 376.552 -161.897C380.097 -149.88 382.448 -141.38 384.364 -134.591C389.415 -116.387 390.304 -113.086 399.517 -97.3498C401.768 -93.4861 404.894 -89.7162 408.522 -85.369C412.964 -80.0226 418.005 -73.9186 422.472 -66.238Z" fill="url(#paint2_linear_0_1)"/>
            <path d="M165.461 -43.5237C167.441 -40.0749 169.503 -36.6116 171.657 -33.1736C191.495 -0.925396 213.312 16.4198 238.365 19.7748C260.265 22.7473 281.059 14.9838 301.167 7.46912C315.944 1.97471 329.902 -3.25274 342.516 -3.19505C378.264 -4.56963 393.31 3.26598 403.239 8.41758C409.817 11.8448 413.752 13.9155 419.65 10.849C427.353 7.27752 427.962 -18.8162 421.055 -48.6221C417.304 -66.1513 408.947 -77.1616 402.241 -86.0471C399.692 -89.431 397.241 -92.6345 395.387 -95.8164L394.418 -97.4146C383.512 -115.774 382.613 -117.278 370.463 -156.492C367.045 -167.506 360.105 -182.236 351.394 -196.905C341.386 -213.759 329.567 -229.824 317.226 -243.363C302.573 -259.427 287.664 -271.531 272.895 -279.237C255.693 -288.263 239.011 -291.109 223.361 -287.768C205.677 -283.84 189.745 -275.889 175.946 -264.135C162.244 -252.446 151.437 -237.641 143.769 -220.126C132.947 -195.309 129.261 -166.07 133.079 -135.532C136.959 -105.105 147.8 -74.2098 165.461 -43.5237ZM411.578 -71.0251C415.146 -64.849 418.342 -57.5111 420.291 -48.4272C427.002 -19.4728 426.575 6.81573 419.288 10.2141C413.772 13.0605 409.947 11.0908 403.606 7.78627C394.192 2.8872 378.394 -5.32365 342.473 -3.93823C329.727 -3.97788 315.727 1.24238 300.86 6.76203C280.843 14.2514 260.145 21.9501 238.454 19.0136C213.657 15.6622 192.029 -1.52788 172.329 -33.5885C151.071 -67.5538 138.16 -101.873 133.982 -135.539C130.185 -165.951 133.892 -195.064 144.645 -219.729C152.258 -237.172 163.002 -251.866 176.607 -263.489C190.261 -275.145 206.096 -283.032 223.647 -286.942C239.117 -290.233 255.591 -287.422 272.633 -278.465C287.276 -270.781 302.116 -258.771 316.734 -242.753C329.041 -229.261 340.825 -213.243 350.79 -196.396C359.467 -181.774 366.372 -167.091 369.756 -156.124C381.933 -116.823 382.832 -115.319 393.773 -96.9131L394.742 -95.315C396.637 -92.1259 399.04 -88.8899 401.631 -85.4988C404.778 -81.3573 408.344 -76.653 411.578 -71.0251Z" fill="url(#paint3_linear_0_1)"/>
            <path d="M178.6 -55.4323C179.688 -53.5275 180.782 -51.6624 181.959 -49.7829C219.3 13.5735 258.341 1.85592 292.759 -8.45467C306.434 -12.5457 319.346 -16.4419 331.288 -15.4788C362.782 -14.8511 377.217 -7.44839 386.763 -2.56736C393.584 0.942798 397.728 3.04961 403.55 0.174347C407.353 -1.45629 410.334 -7.76597 411.705 -17.1746C413.178 -27.1784 412.675 -39.4045 410.331 -51.6631C407.638 -68.1101 400.909 -78.1031 394.967 -86.9381C393.399 -89.2938 391.895 -91.5161 390.598 -93.7023C388.598 -97.0321 386.773 -99.8821 385.149 -102.411C377.722 -114.078 373.27 -121.102 363.654 -150.641C357.553 -169.476 339.978 -202.15 315.788 -229.347C302.707 -244.077 289.432 -255.203 276.339 -262.414C261.014 -270.871 246.192 -273.804 232.25 -271.148C216.406 -267.923 202.048 -261.13 189.593 -250.942C177.187 -240.787 167.349 -227.857 160.308 -212.481C150.494 -191.005 146.835 -165.644 149.756 -139.103C152.818 -111.638 162.465 -83.5246 178.6 -55.4323ZM400.571 -76.8946C404.397 -70.2241 407.872 -62.2658 409.63 -51.5801C414.648 -25.2484 410.322 -3.47654 403.229 -0.453357C397.733 2.27399 393.749 0.2357 387.123 -3.15903C377.5 -8.09417 362.982 -15.5113 331.321 -16.1678C319.254 -17.1526 306.259 -13.2708 292.535 -9.14732C275.097 -3.90904 257.076 1.47354 238.558 -2.18087C217.469 -6.36201 199.184 -22.0333 182.619 -50.1184C164.514 -79.9819 153.724 -109.928 150.548 -139.211C147.689 -165.619 151.293 -190.908 161.038 -212.233C168.023 -227.536 177.806 -240.393 190.108 -250.444C202.466 -260.567 216.726 -267.295 232.439 -270.503C250.332 -273.905 279.229 -269.435 315.24 -228.911C339.361 -201.807 356.866 -169.227 362.939 -150.478C372.583 -120.853 377.07 -113.782 384.49 -102.075C386.072 -99.5538 387.897 -96.7038 389.897 -93.374C391.228 -91.1409 392.733 -88.9186 394.301 -86.5629C396.404 -83.583 398.522 -80.4372 400.571 -76.8946Z" fill="url(#paint4_linear_0_1)"/>
            <path d="M193.411 -64.3544C206.674 -41.255 221.503 -27.6942 238.613 -22.8528C254.167 -18.4444 269.622 -21.6552 284.585 -24.747C297.054 -27.33 308.809 -29.7508 320.065 -27.8027C347.194 -25.2739 360.933 -18.3185 370.013 -13.7224C377.279 -10.0535 381.618 -7.83129 387.461 -10.5803C395.574 -13.7947 402.537 -33.4344 399.633 -54.8635C398.044 -71.7326 392.156 -81.3756 386.435 -90.7445L385.801 -91.7943C383.013 -96.2821 380.422 -99.9186 377.936 -103.414C371.235 -112.83 364.918 -121.73 356.877 -144.988C351.058 -161.976 335.261 -191.277 314.375 -215.491C296.783 -235.906 269.787 -259.298 241.13 -254.734C213.133 -249.77 189.685 -231.635 176.797 -205.05C168.039 -186.947 164.442 -165.417 166.375 -142.848C168.543 -118.154 177.025 -92.7352 191.682 -67.2693C191.843 -66.9555 192.052 -66.6741 192.212 -66.3602C192.616 -65.7181 193.013 -65.0362 193.411 -64.3544ZM389.218 -84.7451C393.672 -76.9852 397.683 -68.1574 398.932 -54.7805C402.012 -31.8904 394.136 -13.9209 387.133 -11.1683C381.575 -8.57444 377.354 -10.7354 370.283 -14.2888C361.168 -18.9318 347.346 -25.9016 320.085 -28.4124C308.704 -30.3821 296.9 -27.9289 284.347 -25.3603C269.475 -22.2938 254.11 -19.1082 238.723 -23.4878C221.279 -28.3868 206.297 -42.5466 192.788 -66.7102C192.627 -67.024 192.419 -67.3054 192.258 -67.6193C177.712 -92.9842 169.216 -118.324 167.077 -142.931C165.123 -165.381 168.699 -186.792 177.402 -204.823C183.801 -217.98 192.621 -229.001 203.628 -237.519C214.683 -246.069 227.334 -251.686 241.242 -254.143C269.593 -258.677 296.36 -235.448 313.841 -215.134C334.65 -190.974 350.378 -161.767 356.211 -144.858C364.272 -121.474 370.632 -112.567 377.367 -103.104C379.854 -99.6083 382.445 -95.9719 385.19 -91.4913L385.824 -90.4415C386.953 -88.5295 388.138 -86.6896 389.218 -84.7451Z" fill="url(#paint5_linear_0_1)"/>
            <path d="M200.361 557.94C204.62 565.339 208.898 572.374 213.162 578.998C236.684 615.521 259.534 639.298 281.135 649.699C303.251 660.352 323.526 656.586 341.383 638.504C395.62 583.64 424.927 542.077 444.286 514.569C453 502.18 459.885 492.418 465.992 485.914C476.111 475.076 482.135 447.713 481.66 414.483C481.145 378.754 473.388 344.182 460.378 319.615C442.454 285.736 431.634 244.544 425.681 215.926C418.78 182.606 414.5 146.552 414.273 119.578C414.114 102.139 406.398 88.1736 391.988 79.1403C367.035 63.5411 325.216 64.7642 282.874 82.4091C262.795 90.7463 242.058 99.419 222.684 108.9C201.248 119.373 183.897 129.817 169.596 140.748C152.521 153.815 139.247 167.989 128.95 184.068C117.518 201.994 110.042 221.872 106.197 244.831C99.5853 284.027 119.334 372.867 154.174 460.846C168.491 496.716 184.226 529.848 200.361 557.94ZM407.288 95.9299C411.219 102.741 413.277 110.699 413.336 119.538C413.59 146.598 417.864 182.692 424.75 216.091C430.697 244.75 441.538 286.068 459.532 320.04C472.479 344.475 480.173 378.913 480.674 414.476C481.148 447.46 475.249 474.6 465.289 485.261C459.168 491.845 452.235 501.639 443.521 514.028C424.168 541.496 394.91 583.027 340.68 637.851C323.142 655.579 303.263 659.291 281.578 648.876C260.137 638.544 237.391 614.907 213.974 578.525C193.428 546.645 173.1 505.811 155.104 460.434C120.32 372.629 100.62 284.002 107.17 244.917C111.035 222.085 118.408 202.311 129.778 184.497C139.971 168.523 153.189 154.421 170.167 141.419C202.049 116.977 243.323 99.8014 283.25 83.21C325.308 65.7203 366.752 64.4322 391.434 79.8618C398.339 84.1223 403.629 89.5337 407.288 95.9299Z" fill="url(#paint6_linear_0_1)"/>
            <path d="M212.091 545.992C215.457 551.847 218.83 557.418 222.202 562.742C243.523 596.351 264.334 618.263 283.968 627.874C303.839 637.607 322.08 634.428 338.17 618.371C387.204 570.249 415.842 531.554 434.83 505.944C443.739 493.916 450.75 484.421 456.946 477.891C466.942 467.278 473.101 441.613 473.012 410.862C472.913 377.943 465.966 345.637 453.91 322.256C437.519 290.931 427.366 253.084 421.688 226.843C415.043 196.02 410.853 163.905 410.137 138.767C409.703 122.915 402.42 110.17 389.067 101.973C365.895 87.7451 327.438 88.8961 288.67 104.993C252.081 120.16 214.291 135.813 184.434 158.725C168.732 170.803 156.47 183.845 146.99 198.676C136.403 215.195 129.5 233.496 125.846 254.608C119.451 290.817 137.081 372.792 168.685 453.916C182.088 488.116 196.91 519.578 212.091 545.992ZM403.664 117.865C407.163 123.947 409.08 130.982 409.276 138.782C409.978 163.999 414.161 196.153 420.841 227.023C426.512 253.304 436.735 291.245 453.154 322.657C465.14 345.944 472.073 378.084 472.193 410.884C472.274 441.429 466.198 466.863 456.355 477.339C450.144 483.948 443.092 493.436 434.176 505.504C415.237 531.082 386.605 569.737 337.62 617.826C321.8 633.563 303.948 636.726 284.474 627.184C264.958 617.635 244.3 595.831 223.083 562.364C204.424 532.976 185.944 495.364 169.677 453.638C138.136 372.648 120.555 290.886 126.888 254.788C130.521 233.795 137.404 215.613 147.894 199.159C157.312 184.44 169.483 171.424 185.13 159.418C214.89 136.571 252.638 120.91 289.137 105.769C327.586 89.7799 365.744 88.6182 388.645 102.677C395.161 106.707 400.2 111.829 403.664 117.865Z" fill="url(#paint7_linear_0_1)"/>
            <path d="M223.777 534.037C226.251 538.348 228.746 542.54 231.276 546.533C250.437 577.234 269.127 597.267 286.828 606.134C304.454 614.947 320.667 612.317 335.032 598.291C379.174 556.598 406.105 522.063 425.796 496.86C434.734 485.409 441.794 476.372 447.984 469.882C458.007 459.355 464.163 435.938 464.489 407.262C464.805 377.153 458.619 347.145 447.518 324.951C420.646 272.807 408.034 196.564 406.118 158.017C405.416 143.713 398.517 132.219 386.222 124.86C364.831 112.002 329.694 113.074 294.576 127.678C262.949 140.719 227.109 155.525 199.416 176.849C185.053 187.892 173.88 199.855 165.175 213.43C155.474 228.55 149.109 245.228 145.688 264.499C142.589 281.17 144.711 307.859 151.814 341.745C158.636 374.275 169.851 411.693 183.347 447.094C195.685 479.515 209.559 509.26 223.777 534.037ZM400.081 139.806C403.154 145.12 404.882 151.264 405.215 158.024C407.118 196.651 419.785 273.067 446.727 325.304C457.8 347.412 463.965 377.293 463.628 407.276C463.33 435.794 457.214 458.973 447.344 469.363C441.105 475.885 434.038 484.962 425.1 496.412C405.458 521.583 378.534 556.079 334.44 597.739C320.381 611.491 304.521 614.06 287.251 605.431C269.709 596.632 251.131 576.7 232.032 546.133C215.218 519.231 198.668 484.854 184.132 446.78C170.635 411.379 159.455 374.008 152.626 341.518C145.544 307.758 143.45 281.156 146.487 264.597C149.888 245.444 156.238 228.846 165.885 213.798C174.527 200.335 185.693 188.412 199.959 177.434C227.555 156.174 263.346 141.401 294.925 128.392C329.806 113.911 364.603 112.821 385.765 125.516C391.982 129.29 396.819 134.092 400.081 139.806Z" fill="url(#paint8_linear_0_1)"/>
            <path d="M235.389 522.027C237.041 524.887 238.672 527.622 240.309 530.317C257.312 558.11 273.914 576.31 289.648 584.387C305.07 592.288 319.256 590.206 331.812 578.196C371.472 542.553 397.936 510.471 417.318 487.054C425.633 476.967 432.853 468.244 438.926 461.938C448.817 451.674 455.165 429.885 455.87 403.726C456.601 376.427 451.184 348.678 441.037 327.671C430.542 306.931 421.091 279.668 413.765 248.809C407.874 224.043 403.586 197.96 401.969 177.285C400.957 164.521 394.519 154.334 383.247 147.764C363.63 136.317 331.854 137.317 300.359 150.34C267.219 163.937 237.835 176.672 214.241 194.905C201.251 204.959 191.089 215.789 183.161 228.109C174.352 241.789 168.471 256.916 165.282 274.348C162.298 289.608 163.929 313.923 170.109 344.707C176.009 374.134 185.807 408.078 197.803 440.236C209.241 470.907 222.16 498.974 235.389 522.027ZM396.534 161.794C399.176 166.379 400.728 171.553 401.198 177.274C402.801 198.029 407.09 224.112 413.015 248.924C420.376 279.831 429.82 307.133 440.35 327.92C450.469 348.84 455.865 376.463 455.113 403.636C454.393 429.628 448.163 451.234 438.376 461.393C432.262 467.692 425.083 476.423 416.719 486.542C397.379 509.966 370.916 542.048 331.311 577.619C319.012 589.387 305.131 591.44 290.071 583.684C274.454 575.668 257.964 557.569 241.065 529.916C226.104 505.461 211.436 474.352 198.629 439.929C186.675 407.778 176.87 373.874 170.963 344.487C164.846 313.837 163.159 289.594 166.13 274.413C169.34 257.107 175.124 242.046 183.918 228.445C191.792 216.197 201.905 205.4 214.839 195.417C238.343 177.21 267.679 164.507 300.77 150.943C332.036 138.002 363.555 136.999 382.942 148.284C388.853 151.841 393.433 156.393 396.534 161.794Z" fill="url(#paint9_linear_0_1)"/>
            <path d="M246.921 509.963C247.751 511.374 248.538 512.777 249.375 514.148C264.218 539.033 278.698 555.354 292.5 562.688C305.676 569.669 317.836 568.136 328.673 558.117C364.392 528.127 390.776 497.993 410.042 475.987C417.693 467.256 424.277 459.731 429.92 453.923C439.846 443.706 446.198 424.124 447.311 400.079C448.464 375.551 443.802 350.139 434.615 330.28C415.354 291.469 402.078 233.708 397.878 196.442C396.599 185.226 390.546 176.29 380.338 170.518C362.495 160.482 334.081 161.409 306.201 172.892C277.885 184.422 250.7 196.107 229.166 212.857C217.557 221.883 208.442 231.627 201.288 242.692C193.325 254.965 188.017 268.515 185.026 284.06C182.108 297.942 183.332 319.898 188.506 347.564C193.434 373.921 201.905 404.366 212.353 433.313C222.753 462.293 234.682 488.635 246.921 509.963ZM393.026 183.79C395.201 187.6 396.605 191.889 397.128 196.557C401.321 233.863 414.625 291.711 433.914 330.608C443.08 350.341 447.672 375.659 446.54 400.068C445.42 423.907 439.172 443.385 429.356 453.457C423.672 459.258 417.081 466.823 409.43 475.554C390.171 497.52 363.835 527.622 328.116 557.612C317.536 567.389 305.682 568.893 292.818 562.089C279.176 554.824 264.725 538.59 249.985 513.845C236.911 491.882 224.132 464.003 213.013 433.223C202.6 404.323 194.163 373.925 189.187 347.6C183.999 320.013 182.803 298.144 185.707 284.341C188.684 268.876 193.979 255.405 201.887 243.204C208.985 232.212 218.051 222.5 229.605 213.546C251.084 196.868 278.227 185.176 306.453 173.671C334.152 162.238 362.267 161.3 379.915 171.221C385.68 174.385 390.092 178.664 393.026 183.79Z" fill="url(#paint10_linear_0_1)"/>
        </g>
        <mask id="mask2_0_1" style="mask-type:luminance" maskUnits="userSpaceOnUse" x="-168" y="-168" width="621" height="474">
            <path d="M387.159 305.788L-167.732 209.756L-102.419 -167.634L452.472 -71.6017L387.159 305.788Z" fill="white"/>
        </mask>
        <g mask="url(#mask2_0_1)">
            <path d="M212.838 187.633C208.217 179.599 203.284 171.633 198.038 163.736C168.506 119.266 136.387 97.4399 99.8647 97.0865C68.2323 96.7619 38.1179 112.477 11.5423 126.352C-6.20716 135.623 -22.9158 144.339 -37.3725 146.742C-85.4576 154.646 -102.688 145.043 -112.994 139.336C-118.946 136.017 -122.902 133.82 -129.105 137.406C-135.21 140.927 -130.498 167.042 -114.35 219.619C-107.38 242.365 -94.2043 256.048 -83.6595 267.069C-78.3837 272.56 -73.8038 277.358 -71.0299 282.171C-63.4535 295.457 -62.8406 299.855 -61.5921 309.513C-60.5344 317.543 -58.9408 329.672 -52.2039 354.012C-46.2856 375.391 -30.383 405.323 -10.7287 432.185C0.4496 447.485 12.4446 461.291 24.8875 473.254C38.7988 486.656 52.9966 497.41 67.0636 505.199C93.1184 519.64 118.285 523.832 141.889 517.699C165.139 511.627 185.926 500.184 203.71 483.766C221.349 467.445 235.103 447.019 244.62 423.039C258.437 388.114 262.246 347.247 255.64 304.782C252.13 282.144 245.652 259.034 236.404 236.058C229.94 219.816 222.003 203.647 212.838 187.633ZM-105.019 238.645C-108.287 232.971 -111.183 226.625 -113.434 219.287C-120.76 195.376 -125.658 177.28 -128.33 163.943C-132.216 144.715 -130.636 139.307 -128.59 138.149C-122.866 134.848 -119.542 136.731 -113.471 140.111C-103.055 145.919 -85.6292 155.638 -37.1832 147.633C-22.5946 145.212 -5.74713 136.438 12.044 127.174C38.4808 113.357 68.4981 97.7071 99.8735 98.0281C136.049 98.4032 167.855 120.052 197.219 164.249C212.922 187.893 225.778 212.107 235.501 236.31C244.715 259.24 251.164 282.264 254.682 304.861C261.273 347.16 257.45 387.861 243.703 422.635C234.248 446.503 220.597 466.824 203.021 483.033C185.383 499.354 164.699 510.693 141.623 516.754C118.283 522.85 93.3666 518.702 67.5482 504.383C53.5646 496.609 39.4433 485.909 25.6016 472.601C13.1936 460.685 1.28195 446.893 -9.91013 431.673C-29.4948 404.904 -45.3694 375.059 -51.2598 353.767C-57.9687 329.513 -59.5692 317.424 -60.6269 309.394C-61.9033 299.649 -62.5025 295.172 -70.1833 281.745C-70.1765 281.705 -70.2182 281.698 -70.2113 281.658C-73.0549 276.752 -77.6348 271.954 -82.9454 266.416C-89.9893 258.985 -98.251 250.402 -105.019 238.645Z" fill="url(#paint11_linear_0_1)"/>
            <path d="M199.629 199.693C195.9 193.203 191.949 186.756 187.776 180.353C161.489 139.959 132.846 119.634 100.204 118.195C71.8203 116.961 44.514 130.096 20.3996 141.659C3.6272 149.75 -12.2432 157.344 -26.0902 158.953C-70.1023 164.661 -86.86 155.548 -96.8659 150.097C-102.908 146.803 -106.914 144.639 -112.998 148.041C-116.454 149.895 -117.188 158.106 -115.166 172.475C-113.363 185.376 -109.369 202.743 -103.627 222.66C-97.7448 243.501 -86.252 256.239 -77.0354 266.499C-72.5664 271.442 -68.7168 275.746 -66.2077 280.104C-58.2065 293.913 -57.3999 297.936 -54.9037 309.812C-53.2349 317.785 -50.9212 328.73 -45.3608 348.208C-39.6676 368.158 -24.79 396.073 -6.57717 421.092C3.82821 435.399 14.988 448.325 26.4985 459.473C39.4426 472.013 52.5624 482.049 65.6072 489.293C89.1033 502.392 111.776 506.357 133.048 501.046C154.417 495.671 173.623 485.425 190.028 470.526C206.37 455.738 219.114 437.181 227.997 415.38C240.798 383.835 244.581 346.847 238.92 308.347C235.9 287.837 230.212 266.866 221.974 245.986C215.971 230.56 208.438 215.033 199.629 199.693ZM-94.3433 242.455C-97.6401 236.694 -100.584 230.135 -102.78 222.48C-114.894 180.329 -118.637 152.092 -112.58 148.849C-106.967 145.692 -103.358 147.666 -97.3505 150.912C-87.2264 156.425 -70.3088 165.606 -25.9912 159.87C-12.0122 158.243 3.91361 150.577 20.7763 142.459C44.7587 130.915 71.968 117.845 100.136 119.082C132.479 120.51 160.886 140.713 186.971 180.786C201.023 202.305 212.534 224.365 221.19 246.3C229.351 267.126 235.053 288.018 238.08 308.487C243.726 346.821 239.971 383.651 227.19 415.077C218.363 436.806 205.681 455.251 189.443 469.934C173.107 484.682 154.082 494.877 132.845 500.234C111.802 505.462 89.3378 501.533 66.0781 488.557C48.8889 478.961 22.4766 459.39 -5.80713 420.612C-23.992 395.68 -38.7999 367.858 -44.4652 347.995C-50.0325 328.557 -52.3045 317.619 -53.9733 309.646C-56.4204 297.983 -57.3389 293.614 -65.4028 279.671C-67.9815 275.219 -71.8311 270.915 -76.3349 265.926C-82.1056 259.573 -88.7258 252.174 -94.3433 242.455Z" fill="url(#paint12_linear_0_1)"/>
            <path d="M186.6 211.948C183.729 206.955 180.69 201.933 177.472 196.962C154.43 160.644 129.221 141.813 100.356 139.392C75.221 137.249 50.7089 147.885 29.042 157.214C13.2187 164.04 -1.68144 170.494 -14.9188 171.309C-54.8162 174.826 -71.0104 166.179 -80.724 161.024C-86.8984 157.748 -90.9869 155.569 -96.9124 158.795C-105.184 162.922 -100.638 196.447 -92.9255 225.82C-88.1091 244.882 -78.2226 256.73 -70.2993 266.275C-66.7068 270.576 -63.6155 274.299 -61.3575 278.123C-52.2136 293.765 -51.2764 297.034 -46.2953 315.144C-44.4273 321.966 -42.0767 330.465 -38.4898 342.489C-34.8607 354.766 -27.4599 370.556 -17.6687 386.924C-6.68566 405.337 6.38628 422.844 20.1058 437.603C36.3241 455.042 52.8742 468.083 69.2758 476.276C88.3612 485.833 106.85 488.665 124.255 484.606C143.785 479.934 161.333 470.832 176.429 457.545C191.427 444.323 203.243 427.649 211.505 407.948C223.334 379.791 227.054 346.633 222.333 312.138C217.773 278.937 205.774 245.307 186.6 211.948ZM-83.5978 246.603C-86.9991 240.701 -90.0202 233.843 -92.0784 225.639C-101.267 190.657 -103.149 162.824 -96.4803 159.523C-90.9364 156.518 -87.2442 158.506 -81.1046 161.735C-71.3145 166.944 -54.9536 175.62 -14.7991 172.106C-1.43674 171.313 13.5606 164.794 29.4324 157.935C50.9673 148.624 75.3823 138.054 100.308 140.161C128.875 142.57 153.848 161.279 176.722 197.323C201.163 235.476 216.243 274.135 221.465 312.192C226.165 346.561 222.431 379.553 210.706 407.605C202.513 427.155 190.793 443.764 175.851 456.914C160.853 470.136 143.401 479.173 124.011 483.787C106.827 487.802 88.5471 485.006 69.6216 475.519C53.3451 467.347 36.8646 454.4 20.7228 437.015C7.03814 422.303 -5.999 404.843 -16.9472 386.476C-26.7036 370.156 -34.0347 354.459 -37.6776 342.262C-41.2228 330.245 -43.5734 321.745 -45.4899 314.956C-50.5407 296.752 -51.4293 293.451 -60.6428 277.715C-62.894 273.851 -66.0201 270.081 -69.6475 265.734C-74.0964 260.427 -79.1373 254.323 -83.5978 246.603Z" fill="url(#paint13_linear_0_1)"/>
            <path d="M173.406 223.929C171.426 220.48 169.363 217.017 167.21 213.579C147.372 181.331 125.555 163.985 100.501 160.63C78.6021 157.658 57.8073 165.421 37.6997 172.936C22.9226 178.43 8.96467 183.658 -3.64926 183.6C-39.3973 184.975 -54.4437 177.139 -64.3726 171.988C-70.9502 168.56 -74.8857 166.49 -80.7837 169.556C-88.4866 173.128 -89.0951 199.221 -82.1878 229.027C-78.4372 246.556 -70.0804 257.567 -63.374 266.452C-60.8251 269.836 -58.3739 273.04 -56.52 276.222L-55.5513 277.82C-44.6448 296.179 -43.7459 297.683 -31.5966 336.897C-28.1784 347.911 -21.2382 362.641 -12.5269 377.31C-2.51938 394.164 9.29948 410.229 21.6413 423.768C36.2941 439.833 51.203 451.936 65.9714 459.642C83.1734 468.668 99.8561 471.514 115.506 468.174C133.189 464.245 149.121 456.294 162.921 444.54C176.623 432.851 187.429 418.046 195.098 400.531C205.92 375.714 209.606 346.475 205.788 315.937C201.908 285.51 191.067 254.615 173.406 223.929ZM-72.7111 251.43C-76.2796 245.254 -79.4753 237.916 -81.4241 228.832C-88.1353 199.878 -87.7078 173.589 -80.4212 170.191C-74.9048 167.345 -71.0807 169.314 -64.7395 172.619C-55.3251 177.518 -39.5277 185.729 -3.60611 184.343C9.13975 184.383 23.1394 179.163 38.0067 173.643C58.0241 166.154 78.7217 158.455 100.413 161.392C125.209 164.743 146.838 181.933 166.537 213.994C187.789 247.999 200.742 282.325 204.92 315.991C208.717 346.403 205.009 375.516 194.257 400.181C186.644 417.624 175.899 432.318 162.294 443.941C148.641 455.597 132.806 463.484 115.254 467.394C99.7851 470.684 83.3107 467.874 66.2686 458.917C51.6254 451.233 36.786 439.223 22.1681 423.205C9.86108 409.713 -1.92297 393.695 -11.8888 376.848C-20.5653 362.226 -27.4706 347.543 -30.854 336.576C-43.0312 297.275 -43.9302 295.771 -54.8716 277.365L-55.8402 275.767C-57.7357 272.578 -60.1385 269.342 -62.729 265.951C-65.9116 261.762 -69.4771 257.058 -72.7111 251.43Z" fill="url(#paint14_linear_0_1)"/>
            <path d="M160.268 235.838C159.181 233.933 158.086 232.068 156.909 230.188C119.568 166.832 80.527 178.549 46.1093 188.86C32.4339 192.951 19.5221 196.847 7.58018 195.884C-23.9139 195.257 -38.3482 187.854 -47.8946 182.973C-54.7155 179.463 -58.8594 177.356 -64.6814 180.231C-68.4846 181.862 -71.4658 188.171 -72.8365 197.58C-74.3102 207.584 -73.8068 219.81 -71.4628 232.068C-68.7701 248.515 -62.0407 258.508 -56.0984 267.343C-54.5309 269.699 -53.0263 271.921 -51.73 274.108C-49.73 277.437 -47.9045 280.287 -46.2811 282.816C-38.8538 294.483 -34.4015 301.507 -24.7858 331.046C-18.6849 349.881 -1.10991 382.555 23.0807 409.753C36.1611 424.482 49.4359 435.608 62.5293 442.82C77.8548 451.276 92.6762 454.209 106.618 451.554C122.463 448.328 136.82 441.535 149.275 431.347C161.682 421.192 171.519 408.262 178.56 392.887C188.374 371.411 192.033 346.049 189.112 319.508C186.051 292.044 176.368 263.883 160.268 235.838ZM-61.7027 257.3C-65.5292 250.629 -69.0039 242.671 -70.7614 231.986C-75.7796 205.654 -71.4534 183.882 -64.3606 180.859C-58.8648 178.131 -54.8808 180.17 -48.2546 183.564C-38.6318 188.5 -24.114 195.917 7.54682 196.573C19.6138 197.558 32.609 193.676 46.333 189.553C63.7708 184.314 81.7919 178.932 100.31 182.586C121.399 186.767 139.684 202.439 156.25 230.524C174.354 260.387 185.144 290.334 188.321 319.617C191.179 346.024 187.575 371.313 177.83 392.638C170.845 407.941 161.063 420.799 148.76 430.849C136.403 440.972 122.142 447.701 106.43 450.908C88.5366 454.31 59.6397 449.84 23.6286 409.316C-0.492403 382.212 -17.9977 349.632 -24.0707 330.884C-33.7144 301.258 -38.2015 294.187 -45.6219 282.481C-47.2036 279.959 -49.0291 277.109 -51.0291 273.779C-52.3602 271.546 -53.8649 269.324 -55.4323 266.968C-57.5359 263.988 -59.6468 260.803 -61.7027 257.3Z" fill="url(#paint15_linear_0_1)"/>
            <path d="M138.514 -377.575C134.255 -384.975 129.977 -392.009 125.713 -398.633C102.185 -435.116 79.3343 -458.894 57.6911 -469.302C35.5751 -479.955 15.3421 -476.181 -2.55671 -458.107C-56.7937 -403.243 -86.1001 -361.68 -105.46 -334.172C-114.173 -321.783 -121.059 -312.021 -127.165 -305.517C-137.285 -294.679 -143.309 -267.316 -142.833 -234.086C-142.319 -198.357 -134.561 -163.785 -121.552 -139.218C-103.627 -105.339 -92.8078 -64.1474 -86.8544 -35.5284C-79.954 -2.20879 -75.6738 33.8455 -75.447 60.8194C-75.2877 78.2585 -67.5711 92.2234 -53.1613 101.257C-28.2086 116.856 13.6105 115.633 55.9528 97.988C76.031 89.6508 96.7684 80.9781 116.143 71.4973C137.578 61.0244 154.929 50.5803 169.23 39.6493C186.306 26.5826 199.579 12.4083 209.876 -3.67075C221.309 -21.5969 228.785 -41.4748 232.629 -64.4335C239.241 -103.63 219.493 -192.47 184.652 -280.449C170.384 -316.351 154.649 -349.483 138.514 -377.575ZM-68.4198 84.4743C-72.3507 77.6632 -74.4085 69.7049 -74.4676 60.8663C-74.7223 33.8058 -78.9956 -2.28812 -85.8822 -35.6872C-91.8288 -64.3458 -102.669 -105.664 -120.664 -139.636C-133.61 -164.07 -141.305 -198.508 -141.805 -234.072C-142.28 -267.056 -136.381 -294.196 -126.421 -304.856C-120.3 -311.44 -113.367 -321.235 -104.653 -333.623C-85.3002 -361.092 -56.0423 -402.622 -1.81219 -457.447C15.7261 -475.175 35.605 -478.887 57.2899 -468.472C78.7315 -458.14 101.477 -434.503 124.894 -398.121C145.44 -366.24 165.768 -325.406 183.764 -280.03C218.549 -192.225 238.248 -103.597 231.698 -64.5128C227.833 -41.6804 220.461 -21.9072 209.09 -4.09284C198.897 11.8816 185.679 25.9837 168.701 38.9855C136.819 63.427 95.5452 80.6029 55.6179 97.1943C13.56 114.684 -27.8839 115.972 -52.5654 100.543C-59.4642 96.2423 -64.7606 90.8706 -68.4198 84.4743Z" fill="url(#paint16_linear_0_1)"/>
            <path d="M126.784 -365.627C123.417 -371.482 120.045 -377.052 116.672 -382.377C95.3099 -415.992 74.5401 -437.898 54.8642 -447.515C34.9936 -457.249 16.7529 -454.07 0.662962 -438.013C-48.3709 -389.891 -77.0092 -351.196 -95.9976 -325.586C-104.906 -313.558 -111.917 -304.063 -118.114 -297.533C-128.109 -286.919 -134.268 -261.255 -134.18 -230.504C-134.08 -197.585 -127.133 -165.279 -115.078 -141.898C-98.6862 -110.573 -88.5332 -72.7262 -82.8553 -46.4846C-76.2099 -15.6615 -72.0208 16.4533 -71.3046 41.591C-70.8705 57.4427 -63.5869 70.1883 -50.2346 78.3847C-27.0627 92.613 11.3946 91.462 50.1629 75.3649C86.752 60.1984 124.542 44.545 154.399 21.6331C170.101 9.55487 182.362 -3.48667 191.842 -18.3175C202.43 -34.8367 209.333 -53.138 212.987 -74.2496C219.382 -110.459 201.752 -192.434 170.148 -273.558C156.779 -307.711 141.957 -339.173 126.784 -365.627ZM-64.7966 62.5402C-68.2955 56.4578 -70.2125 49.4231 -70.4085 41.6234C-71.111 16.4064 -75.2932 -15.748 -81.9735 -46.6181C-87.6444 -72.8994 -97.8671 -110.84 -114.287 -142.252C-126.273 -165.539 -133.205 -197.679 -133.325 -230.479C-133.406 -261.024 -127.33 -286.458 -117.488 -296.934C-111.277 -303.543 -104.225 -313.031 -95.309 -325.099C-76.3692 -350.677 -47.7377 -389.332 1.24758 -437.421C17.0672 -453.158 34.919 -456.321 54.3933 -446.779C73.9094 -437.23 94.5678 -415.426 115.784 -381.959C134.443 -352.571 152.924 -314.958 169.19 -273.233C200.731 -192.243 218.312 -110.481 211.979 -74.383C208.346 -53.3905 201.464 -35.2082 190.973 -18.754C181.556 -4.035 169.384 8.98124 153.738 20.9873C123.978 43.8343 86.2297 59.495 49.7309 74.6361C11.2819 90.6251 -26.8768 91.7868 -49.7774 77.7281C-56.2937 73.6985 -61.3326 68.5757 -64.7966 62.5402Z" fill="url(#paint17_linear_0_1)"/>
            <path d="M115.089 -353.631C112.614 -357.942 110.119 -362.134 107.59 -366.128C88.4285 -396.828 69.7392 -416.861 52.0374 -425.729C34.4122 -434.542 18.1986 -431.912 3.83423 -417.886C-40.3085 -376.193 -67.2393 -341.657 -86.9301 -316.454C-95.8678 -305.004 -102.928 -295.967 -109.118 -289.477C-119.141 -278.95 -125.298 -255.533 -125.623 -226.856C-125.939 -196.747 -119.754 -166.739 -108.652 -144.546C-81.7798 -92.4015 -69.1687 -16.1588 -67.2522 22.3883C-66.5502 36.6924 -59.6511 48.1861 -47.3563 55.5456C-25.9653 68.403 9.17209 67.3314 44.2898 52.7278C75.9167 39.6863 111.756 24.8806 139.45 3.55603C153.813 -7.48683 164.986 -19.4496 173.69 -33.025C183.392 -48.1445 189.756 -64.8224 193.177 -84.0941C196.277 -100.765 194.155 -127.454 187.052 -161.34C180.229 -193.869 169.015 -231.287 155.518 -266.688C143.181 -299.11 129.307 -328.854 115.089 -353.631ZM-61.2082 40.5597C-64.2818 35.2457 -66.0095 29.102 -66.3423 22.3414C-68.2451 -16.2851 -80.9121 -92.701 -107.854 -144.939C-118.928 -167.046 -125.092 -196.928 -124.755 -226.91C-124.457 -255.428 -118.341 -278.607 -108.471 -288.997C-102.232 -295.52 -95.1654 -304.596 -86.2277 -316.047C-66.5856 -341.217 -39.6615 -375.713 4.43259 -417.373C18.4919 -431.126 34.3513 -433.694 51.622 -425.065C69.1639 -416.266 87.7418 -396.334 106.841 -365.767C123.654 -338.865 140.205 -304.489 154.741 -266.414C168.237 -231.013 179.417 -193.642 186.247 -161.152C193.328 -127.392 195.423 -100.79 192.385 -84.2312C188.985 -65.0785 182.634 -48.48 172.988 -33.4327C164.346 -19.9691 153.18 -8.04602 138.913 2.93191C111.317 24.1915 75.5263 38.9647 43.9479 51.9738C9.06619 66.4548 -25.7308 67.5444 -46.8923 54.8493C-53.1162 51.1155 -57.9462 46.2741 -61.2082 40.5597Z" fill="url(#paint18_linear_0_1)"/>
            <path d="M103.478 -341.622C101.826 -344.483 100.195 -347.218 98.5578 -349.913C81.555 -377.705 64.9532 -395.906 49.2186 -403.983C33.797 -411.884 19.6105 -409.802 7.05508 -397.792C-32.6055 -362.149 -59.0689 -330.067 -78.4506 -306.65C-86.7658 -296.563 -93.9863 -287.84 -100.059 -281.534C-109.95 -271.27 -116.298 -249.48 -117.003 -223.322C-117.734 -196.023 -112.317 -168.274 -102.17 -147.267C-91.6753 -126.527 -82.2238 -99.2641 -74.8976 -68.4048C-69.0074 -43.6387 -64.719 -17.5558 -63.1016 3.11924C-62.0902 15.8829 -55.6521 26.0707 -44.3798 32.6401C-24.7628 44.0869 7.01292 43.0875 38.5079 30.064C71.648 16.4669 101.032 3.73204 124.626 -14.5008C137.616 -24.5552 147.778 -35.3852 155.706 -47.7051C164.515 -61.3851 170.396 -76.5117 173.584 -93.9436C176.569 -109.204 174.937 -133.519 168.758 -164.302C162.858 -193.729 153.06 -227.673 141.064 -259.831C129.626 -290.503 116.707 -318.57 103.478 -341.622ZM-57.6672 18.6102C-60.3087 14.025 -61.8609 8.85173 -62.3306 3.13009C-63.9343 -17.6244 -68.2226 -43.7072 -74.1477 -68.5202C-81.5087 -99.4264 -90.9534 -126.729 -101.483 -147.515C-111.602 -168.436 -116.998 -196.059 -116.246 -223.232C-115.526 -249.224 -109.296 -270.83 -99.5087 -280.989C-93.3948 -287.288 -86.216 -296.018 -77.8522 -306.138C-58.5122 -329.562 -32.0488 -361.644 7.55632 -397.215C19.8552 -408.983 33.7361 -411.036 48.7963 -403.28C64.4126 -395.264 80.9032 -377.164 97.8015 -349.512C112.763 -325.056 127.431 -293.948 140.238 -259.525C152.192 -227.374 161.997 -193.47 167.904 -164.082C174.021 -133.432 175.708 -109.189 172.737 -94.0086C169.527 -76.703 163.743 -61.6413 154.949 -48.0406C147.075 -35.7929 136.962 -24.9953 124.028 -15.013C100.524 3.19452 71.1884 15.8969 38.0969 29.4615C6.83097 42.402 -24.6877 43.4051 -44.0752 32.1206C-49.9793 28.5239 -54.5656 24.0107 -57.6672 18.6102Z" fill="url(#paint19_linear_0_1)"/>
            <path d="M91.9447 -329.559C91.1154 -330.97 90.3277 -332.373 89.4915 -333.744C74.6477 -358.629 60.168 -374.95 46.3659 -382.284C33.1897 -389.264 21.0303 -387.731 10.1936 -377.713C-25.5259 -347.723 -51.9097 -317.589 -71.1761 -295.582C-78.8272 -286.852 -85.4111 -279.326 -91.0536 -273.518C-100.98 -263.301 -107.332 -243.719 -108.444 -219.675C-109.598 -195.147 -104.936 -169.735 -95.7488 -149.875C-76.4878 -111.065 -63.2116 -53.3039 -59.0123 -16.0375C-57.733 -4.82148 -51.6794 4.11449 -41.4715 9.88659C-23.6284 19.9228 4.78555 18.9956 32.6648 7.51258C60.9815 -4.01737 88.1657 -15.7024 109.7 -32.4525C121.31 -41.4787 130.424 -51.2229 137.578 -62.2874C145.541 -74.5604 150.849 -88.1105 153.84 -103.656C156.758 -117.538 155.534 -139.493 150.36 -167.16C145.432 -193.517 136.961 -223.961 126.513 -252.909C116.113 -281.888 104.191 -308.271 91.9447 -329.559ZM-54.16 -3.38569C-56.3346 -7.1953 -57.7392 -11.4847 -58.2624 -16.1529C-62.4548 -53.459 -75.7589 -111.307 -95.0479 -150.204C-104.214 -169.937 -108.806 -195.255 -107.673 -219.664C-106.553 -243.503 -100.306 -262.98 -90.4901 -273.053C-84.8059 -278.854 -78.2152 -286.419 -70.564 -295.149C-51.3045 -317.116 -24.9692 -347.218 10.7502 -377.208C21.3305 -386.984 33.1842 -388.489 46.0476 -381.685C59.6898 -374.419 74.1415 -358.185 88.8809 -333.441C101.955 -311.478 114.734 -283.598 125.853 -252.818C136.266 -223.918 144.703 -193.521 149.679 -167.196C154.867 -139.609 156.063 -117.74 153.159 -103.937C150.182 -88.4713 144.888 -75.0005 136.979 -62.7997C129.881 -51.8073 120.815 -42.0956 109.261 -33.1416C87.7822 -16.4636 60.6396 -4.77137 32.4132 6.73332C4.71444 18.1659 -23.4008 19.1039 -41.0491 9.1831C-46.8067 5.97957 -51.2257 1.74069 -54.16 -3.38569Z" fill="url(#paint20_linear_0_1)"/>
            <path d="M80.5706 -317.426C80.5358 -317.473 80.501 -317.52 80.4662 -317.567C67.823 -339.537 55.389 -354.032 43.5542 -360.576C32.6233 -366.637 22.4494 -365.659 13.373 -357.625C-19.2034 -332.895 -46.166 -303.883 -65.8438 -282.724C-72.0127 -276.108 -77.3428 -270.368 -82.0775 -265.588C-91.8793 -255.595 -98.387 -237.593 -99.8659 -216.146C-101.393 -194.421 -97.5479 -171.235 -89.3081 -152.602C-81.1481 -135.74 -73.6539 -114.784 -66.9377 -90.3242C-61.9212 -71.9219 -57.5336 -51.871 -54.9032 -35.3121C-53.3561 -25.6438 -47.6939 -17.92 -38.4947 -13.0173C-22.4674 -4.39885 2.58487 -5.25389 26.8551 -15.2362C50.5776 -24.7819 75.3398 -35.3739 94.8071 -50.6016C105.037 -58.5996 113.146 -67.2507 119.524 -77.0597C126.602 -87.933 131.371 -99.8597 134.136 -113.605C139.741 -138.302 130.801 -191.593 112.002 -246.223C102.648 -273.305 91.792 -297.909 80.5706 -317.426ZM-50.737 -25.3949C-52.4864 -28.4361 -53.6669 -31.7875 -54.2436 -35.4023C-56.8739 -51.9612 -61.2547 -72.0518 -66.3128 -90.4613C-73.0222 -114.96 -80.5512 -135.964 -88.7043 -152.865C-96.8745 -171.405 -100.698 -194.464 -99.1852 -216.11C-97.692 -237.391 -91.2883 -255.288 -81.5556 -265.13C-76.821 -269.91 -71.4908 -275.65 -65.322 -282.266C-45.6441 -303.425 -18.6884 -332.397 13.8394 -357.095C22.6662 -364.927 32.583 -365.908 43.2359 -359.977C54.9525 -353.495 67.2751 -339.1 79.8903 -317.217C79.9252 -317.17 79.96 -317.123 79.9948 -317.076C91.1813 -297.606 102.038 -273.002 111.357 -245.967C130.142 -191.503 139.061 -138.338 133.469 -113.72C130.724 -100.094 125.962 -88.2072 118.94 -77.406C112.618 -67.6691 104.556 -59.0506 94.3755 -51.085C74.9568 -35.8898 50.2431 -25.3303 26.5624 -15.7773C2.52112 -5.878 -22.3159 -5.02651 -38.1485 -13.5296C-43.6833 -16.5311 -47.9282 -20.5355 -50.737 -25.3949Z" fill="url(#paint21_linear_0_1)"/>
        </g>
    </g>
    <defs>
        <linearGradient id="paint0_linear_0_1" x1="318.62" y1="-324.025" x2="247.656" y2="86.0149" gradientUnits="userSpaceOnUse">
            <stop stop-color="#FF9900" stop-opacity="0.4"/>
            <stop offset="0.206768" stop-color="#FF9900" stop-opacity="0.8"/>
            <stop offset="0.500041" stop-color="#FF9900" stop-opacity="0.4"/>
            <stop offset="0.80293" stop-color="#D90368" stop-opacity="0.6"/>
            <stop offset="1" stop-color="#D6EBFF" stop-opacity="0.7"/>
        </linearGradient>
        <linearGradient id="paint1_linear_0_1" x1="316.115" y1="-308.271" x2="251.496" y2="65.1093" gradientUnits="userSpaceOnUse">
            <stop stop-color="#FF9900" stop-opacity="0.4"/>
            <stop offset="0.206768" stop-color="#FF9900" stop-opacity="0.8"/>
            <stop offset="0.500041" stop-color="#FF9900" stop-opacity="0.4"/>
            <stop offset="0.80293" stop-color="#D90368" stop-opacity="0.6"/>
            <stop offset="1" stop-color="#D6EBFF" stop-opacity="0.7"/>
        </linearGradient>
        <linearGradient id="paint2_linear_0_1" x1="313.652" y1="-292.667" x2="255.349" y2="44.2178" gradientUnits="userSpaceOnUse">
            <stop stop-color="#FF9900" stop-opacity="0.4"/>
            <stop offset="0.206768" stop-color="#FF9900" stop-opacity="0.8"/>
            <stop offset="0.500041" stop-color="#FF9900" stop-opacity="0.4"/>
            <stop offset="0.80293" stop-color="#D90368" stop-opacity="0.6"/>
            <stop offset="1" stop-color="#D6EBFF" stop-opacity="0.7"/>
        </linearGradient>
        <linearGradient id="paint3_linear_0_1" x1="311.293" y1="-277.108" x2="259.278" y2="23.4436" gradientUnits="userSpaceOnUse">
            <stop stop-color="#FF9900" stop-opacity="0.4"/>
            <stop offset="0.206768" stop-color="#FF9900" stop-opacity="0.8"/>
            <stop offset="0.500041" stop-color="#FF9900" stop-opacity="0.4"/>
            <stop offset="0.80293" stop-color="#D90368" stop-opacity="0.6"/>
            <stop offset="1" stop-color="#D6EBFF" stop-opacity="0.7"/>
        </linearGradient>
        <linearGradient id="paint4_linear_0_1" x1="309.332" y1="-261.352" x2="263.604" y2="2.87614" gradientUnits="userSpaceOnUse">
            <stop stop-color="#FF9900" stop-opacity="0.4"/>
            <stop offset="0.206768" stop-color="#FF9900" stop-opacity="0.8"/>
            <stop offset="0.500041" stop-color="#FF9900" stop-opacity="0.4"/>
            <stop offset="0.80293" stop-color="#D90368" stop-opacity="0.6"/>
            <stop offset="1" stop-color="#D6EBFF" stop-opacity="0.7"/>
        </linearGradient>
        <linearGradient id="paint5_linear_0_1" x1="307.927" y1="-245.747" x2="268.407" y2="-17.3936" gradientUnits="userSpaceOnUse">
            <stop stop-color="#FF9900" stop-opacity="0.4"/>
            <stop offset="0.206768" stop-color="#FF9900" stop-opacity="0.8"/>
            <stop offset="0.500041" stop-color="#FF9900" stop-opacity="0.4"/>
            <stop offset="0.80293" stop-color="#D90368" stop-opacity="0.6"/>
            <stop offset="1" stop-color="#D6EBFF" stop-opacity="0.7"/>
        </linearGradient>
        <linearGradient id="paint6_linear_0_1" x1="341.597" y1="65.5067" x2="241.259" y2="645.278" gradientUnits="userSpaceOnUse">
            <stop stop-color="#FF9900" stop-opacity="0.4"/>
            <stop offset="0.206768" stop-color="#FF9900" stop-opacity="0.8"/>
            <stop offset="0.500041" stop-color="#FF9900" stop-opacity="0.4"/>
            <stop offset="0.80293" stop-color="#D90368" stop-opacity="0.6"/>
            <stop offset="1" stop-color="#D6EBFF" stop-opacity="0.7"/>
        </linearGradient>
        <linearGradient id="paint7_linear_0_1" x1="343.067" y1="89.5965" x2="250.505" y2="624.437" gradientUnits="userSpaceOnUse">
            <stop stop-color="#FF9900" stop-opacity="0.4"/>
            <stop offset="0.206768" stop-color="#FF9900" stop-opacity="0.8"/>
            <stop offset="0.500041" stop-color="#FF9900" stop-opacity="0.4"/>
            <stop offset="0.80293" stop-color="#D90368" stop-opacity="0.6"/>
            <stop offset="1" stop-color="#D6EBFF" stop-opacity="0.7"/>
        </linearGradient>
        <linearGradient id="paint8_linear_0_1" x1="344.737" y1="113.762" x2="259.944" y2="603.708" gradientUnits="userSpaceOnUse">
            <stop stop-color="#FF9900" stop-opacity="0.4"/>
            <stop offset="0.206768" stop-color="#FF9900" stop-opacity="0.8"/>
            <stop offset="0.500041" stop-color="#FF9900" stop-opacity="0.4"/>
            <stop offset="0.80293" stop-color="#D90368" stop-opacity="0.6"/>
            <stop offset="1" stop-color="#D6EBFF" stop-opacity="0.7"/>
        </linearGradient>
        <linearGradient id="paint9_linear_0_1" x1="346.236" y1="137.961" x2="269.223" y2="582.956" gradientUnits="userSpaceOnUse">
            <stop stop-color="#FF9900" stop-opacity="0.4"/>
            <stop offset="0.206768" stop-color="#FF9900" stop-opacity="0.8"/>
            <stop offset="0.500041" stop-color="#FF9900" stop-opacity="0.4"/>
            <stop offset="0.80293" stop-color="#D90368" stop-opacity="0.6"/>
            <stop offset="1" stop-color="#D6EBFF" stop-opacity="0.7"/>
        </linearGradient>
        <linearGradient id="paint10_linear_0_1" x1="347.896" y1="162.024" x2="278.627" y2="562.276" gradientUnits="userSpaceOnUse">
            <stop stop-color="#FF9900" stop-opacity="0.4"/>
            <stop offset="0.206768" stop-color="#FF9900" stop-opacity="0.8"/>
            <stop offset="0.500041" stop-color="#FF9900" stop-opacity="0.4"/>
            <stop offset="0.80293" stop-color="#D90368" stop-opacity="0.6"/>
            <stop offset="1" stop-color="#D6EBFF" stop-opacity="0.7"/>
        </linearGradient>
        <linearGradient id="paint11_linear_0_1" x1="91.2139" y1="94.3903" x2="20.2503" y2="504.43" gradientUnits="userSpaceOnUse">
            <stop stop-color="#FF9900" stop-opacity="0.4"/>
            <stop offset="0.206768" stop-color="#FF9900" stop-opacity="0.8"/>
            <stop offset="0.500041" stop-color="#FF9900" stop-opacity="0.4"/>
            <stop offset="0.80293" stop-color="#D90368" stop-opacity="0.6"/>
            <stop offset="1" stop-color="#D6EBFF" stop-opacity="0.7"/>
        </linearGradient>
        <linearGradient id="paint12_linear_0_1" x1="87.3714" y1="115.296" x2="22.7523" y2="488.676" gradientUnits="userSpaceOnUse">
            <stop stop-color="#FF9900" stop-opacity="0.4"/>
            <stop offset="0.206768" stop-color="#FF9900" stop-opacity="0.8"/>
            <stop offset="0.500041" stop-color="#FF9900" stop-opacity="0.4"/>
            <stop offset="0.80293" stop-color="#D90368" stop-opacity="0.6"/>
            <stop offset="1" stop-color="#D6EBFF" stop-opacity="0.7"/>
        </linearGradient>
        <linearGradient id="paint13_linear_0_1" x1="83.5185" y1="136.187" x2="25.2155" y2="473.072" gradientUnits="userSpaceOnUse">
            <stop stop-color="#FF9900" stop-opacity="0.4"/>
            <stop offset="0.206768" stop-color="#FF9900" stop-opacity="0.8"/>
            <stop offset="0.500041" stop-color="#FF9900" stop-opacity="0.4"/>
            <stop offset="0.80293" stop-color="#D90368" stop-opacity="0.6"/>
            <stop offset="1" stop-color="#D6EBFF" stop-opacity="0.7"/>
        </linearGradient>
        <linearGradient id="paint14_linear_0_1" x1="79.5885" y1="156.961" x2="27.5736" y2="457.513" gradientUnits="userSpaceOnUse">
            <stop stop-color="#FF9900" stop-opacity="0.4"/>
            <stop offset="0.206768" stop-color="#FF9900" stop-opacity="0.8"/>
            <stop offset="0.500041" stop-color="#FF9900" stop-opacity="0.4"/>
            <stop offset="0.80293" stop-color="#D90368" stop-opacity="0.6"/>
            <stop offset="1" stop-color="#D6EBFF" stop-opacity="0.7"/>
        </linearGradient>
        <linearGradient id="paint15_linear_0_1" x1="75.2645" y1="177.529" x2="29.5359" y2="441.757" gradientUnits="userSpaceOnUse">
            <stop stop-color="#FF9900" stop-opacity="0.4"/>
            <stop offset="0.206768" stop-color="#FF9900" stop-opacity="0.8"/>
            <stop offset="0.500041" stop-color="#FF9900" stop-opacity="0.4"/>
            <stop offset="0.80293" stop-color="#D90368" stop-opacity="0.6"/>
            <stop offset="1" stop-color="#D6EBFF" stop-opacity="0.7"/>
        </linearGradient>
        <linearGradient id="paint16_linear_0_1" x1="97.5677" y1="-464.881" x2="-2.77059" y2="114.89" gradientUnits="userSpaceOnUse">
            <stop stop-color="#FF9900" stop-opacity="0.4"/>
            <stop offset="0.206768" stop-color="#FF9900" stop-opacity="0.8"/>
            <stop offset="0.500041" stop-color="#FF9900" stop-opacity="0.4"/>
            <stop offset="0.80293" stop-color="#D90368" stop-opacity="0.6"/>
            <stop offset="1" stop-color="#D6EBFF" stop-opacity="0.7"/>
        </linearGradient>
        <linearGradient id="paint17_linear_0_1" x1="88.3278" y1="-444.079" x2="-4.23443" y2="90.7616" gradientUnits="userSpaceOnUse">
            <stop stop-color="#FF9900" stop-opacity="0.4"/>
            <stop offset="0.206768" stop-color="#FF9900" stop-opacity="0.8"/>
            <stop offset="0.500041" stop-color="#FF9900" stop-opacity="0.4"/>
            <stop offset="0.80293" stop-color="#D90368" stop-opacity="0.6"/>
            <stop offset="1" stop-color="#D6EBFF" stop-opacity="0.7"/>
        </linearGradient>
        <linearGradient id="paint18_linear_0_1" x1="78.9214" y1="-423.302" x2="-5.87117" y2="66.6439" gradientUnits="userSpaceOnUse">
            <stop stop-color="#FF9900" stop-opacity="0.4"/>
            <stop offset="0.206768" stop-color="#FF9900" stop-opacity="0.8"/>
            <stop offset="0.500041" stop-color="#FF9900" stop-opacity="0.4"/>
            <stop offset="0.80293" stop-color="#D90368" stop-opacity="0.6"/>
            <stop offset="1" stop-color="#D6EBFF" stop-opacity="0.7"/>
        </linearGradient>
        <linearGradient id="paint19_linear_0_1" x1="69.6439" y1="-402.552" x2="-7.3693" y2="42.4437" gradientUnits="userSpaceOnUse">
            <stop stop-color="#FF9900" stop-opacity="0.4"/>
            <stop offset="0.206768" stop-color="#FF9900" stop-opacity="0.8"/>
            <stop offset="0.500041" stop-color="#FF9900" stop-opacity="0.4"/>
            <stop offset="0.80293" stop-color="#D90368" stop-opacity="0.6"/>
            <stop offset="1" stop-color="#D6EBFF" stop-opacity="0.7"/>
        </linearGradient>
        <linearGradient id="paint20_linear_0_1" x1="60.2392" y1="-381.872" x2="-9.0304" y2="18.3799" gradientUnits="userSpaceOnUse">
            <stop stop-color="#FF9900" stop-opacity="0.4"/>
            <stop offset="0.206768" stop-color="#FF9900" stop-opacity="0.8"/>
            <stop offset="0.500041" stop-color="#FF9900" stop-opacity="0.4"/>
            <stop offset="0.80293" stop-color="#D90368" stop-opacity="0.6"/>
            <stop offset="1" stop-color="#D6EBFF" stop-opacity="0.7"/>
        </linearGradient>
        <linearGradient id="paint21_linear_0_1" x1="50.8115" y1="-361.208" x2="-10.6896" y2="-5.84414" gradientUnits="userSpaceOnUse">
            <stop stop-color="#FF9900" stop-opacity="0.4"/>
            <stop offset="0.206768" stop-color="#FF9900" stop-opacity="0.8"/>
            <stop offset="0.500041" stop-color="#FF9900" stop-opacity="0.4"/>
            <stop offset="0.80293" stop-color="#D90368" stop-opacity="0.6"/>
            <stop offset="1" stop-color="#D6EBFF" stop-opacity="0.7"/>
        </linearGradient>
    </defs>
</svg>
