<svg width="347" height="164" viewBox="0 0 347 164" fill="none" xmlns="http://www.w3.org/2000/svg">
    <rect width="347" height="164" rx="10" fill="#FF9900"/>
    <path d="M0 154V32.9999C40 8 112 47.4999 164.5 75.4999C261.844 127.417 337 87.4999 347 68.9999V154C347 159.523 342.523 164 337 164H10C4.47714 164 0 159.523 0 154Z" fill="#230C33"/>
    <mask id="mask0_0_1" style="mask-type:alpha" maskUnits="userSpaceOnUse" x="0" y="25" width="347" height="139">
        <path d="M0 154V32.9999C40 8 112 47.4999 164.5 75.4999C261.844 127.417 337 87.4999 347 68.9999V154C347 159.523 342.523 164 337 164H10C4.47714 164 0 159.523 0 154Z" fill="#00031D"/>
    </mask>
    <g mask="url(#mask0_0_1)">
        <mask id="mask1_0_1" style="mask-type:luminance" maskUnits="userSpaceOnUse" x="-51" y="-6" width="404" height="258">
            <path d="M352.302 11.1623L-40.6763 -5.64209L-50.9694 235.066L342.008 251.87L352.302 11.1623Z" fill="white"/>
        </mask>
        <g mask="url(#mask1_0_1)">
            <path d="M393.008 37.29C394.769 35.5396 396.102 34.8105 397.115 34.6257C402.838 33.6025 409.156 25.5808 415.285 17.83C422.322 8.90087 428.983 0.46283 435.421 0.712742C438.167 0.830158 440.55 2.50421 442.745 5.81845C449.331 15.7359 450.274 33.8052 449.908 47.2036C449.467 63.7431 446.923 78.9754 445.327 85.1704C440.505 103.855 436.165 120.279 431.799 131.757C427.199 143.883 422.755 150.261 417.397 152.441C414.267 153.702 410.874 153.506 406.981 151.843C401.549 149.532 396.388 149.159 390.674 150.664C385.5 152.015 380.322 154.811 374.842 157.772C368.211 161.343 360.702 165.408 351.64 167.734C350.114 168.125 348.851 167.919 347.911 167.093C345.484 165.037 345.089 159.061 346.749 149.293C348.21 140.734 351.239 129.377 355.519 116.45C361.596 98.1483 369.795 77.9595 377.44 62.4127C384.627 47.9114 389.609 40.6947 393.008 37.29ZM406.27 29.4385C403.212 32.4774 400.189 34.681 397.268 35.2154C393.334 35.9093 386.368 45.9319 378.109 62.6949C370.464 78.2163 362.266 98.3798 356.22 116.657C347.019 144.36 344.119 163.076 348.43 166.709C349.2 167.376 350.2 167.52 351.485 167.195C360.459 164.865 367.936 160.849 374.537 157.277C385.618 151.31 395.157 146.139 407.358 151.327C411.047 152.905 414.263 153.093 417.184 151.899C428.14 147.474 434.781 123.592 444.712 85.0174C446.307 78.8477 448.82 63.6647 449.288 47.1771C449.651 33.8546 448.704 15.8865 442.201 6.09948C440.116 2.96746 437.906 1.4022 435.426 1.29614C429.373 1.03732 422.523 9.74625 415.892 18.1603C412.674 22.1812 409.453 26.2528 406.27 29.4385Z" fill="url(#paint0_linear_0_1)"/>
            <path d="M393.707 39.602C395.066 38.2654 396.284 37.4554 397.328 37.2465C402.517 36.2512 408.302 28.9421 413.899 21.8785C420.402 13.6619 426.531 5.91107 432.467 6.13953C434.977 6.24685 437.16 7.76024 439.191 10.7632C442.784 15.9629 445.32 24.4393 446.483 35.2912C447.479 44.5132 447.404 55.2615 446.318 64.7494C445.067 74.6359 443.472 82.2003 443.026 84.3112C438.262 103.049 434.544 116.659 430.688 126.587C426.499 137.413 422.25 143.393 417.343 145.389C414.393 146.582 411.176 146.419 407.487 144.841C402.519 142.727 397.743 142.37 392.479 143.717C387.724 144.934 382.972 147.469 377.918 150.144C371.865 153.359 364.994 157.021 356.74 159.128C355.276 159.471 354.073 159.242 353.16 158.442C346.999 153.107 355.899 123.439 360.013 110.937C369.666 81.656 384.595 48.6452 393.707 39.602ZM405.666 32.4808C402.885 35.2526 400.137 37.2652 397.484 37.7603C389.729 39.2544 371.639 77.7086 360.658 111.066C352.128 136.92 349.515 154.457 353.622 158.031C354.363 158.671 355.331 158.865 356.557 158.562C364.751 156.478 371.56 152.864 377.584 149.648C387.755 144.225 396.562 139.556 407.746 144.319C411.232 145.812 414.272 145.968 417.041 144.844C427.306 140.668 433.743 118.096 442.353 84.1556C442.797 82.07 444.391 74.531 445.642 64.6444C446.727 55.1818 446.8 44.4841 445.803 35.2875C444.637 24.5115 442.156 16.1136 438.589 10.991C436.699 8.17158 434.66 6.74044 432.386 6.64323C426.805 6.42991 420.488 14.4263 414.39 22.1531C411.541 25.8348 408.571 29.5622 405.666 32.4808Z" fill="url(#paint1_linear_0_1)"/>
            <path d="M389.998 164.404C392.716 161.706 395.194 160.468 397.492 160.693C400.408 160.97 402.926 163.664 404.988 168.697C407.21 174.142 408.952 182.534 410.194 193.592C411.816 208.242 412.215 221.724 411.321 233.654C410.552 244.018 408.815 253.529 406.177 261.936C401.526 276.647 394.734 286.068 388.121 294.052C381.012 302.598 373.004 308.645 364.34 312.028C356.79 314.976 348.884 315.855 340.86 314.675C324.105 312.209 310.648 301.11 307.348 291.815C305.789 287.463 306.569 283.744 309.539 281.386C322.125 271.35 332.413 261.799 340.99 252.15C352.797 238.886 361.144 225.6 365.779 212.663C369.103 203.423 374.257 190.103 380.049 179.168C383.592 172.397 386.938 167.469 389.998 164.404ZM387.803 293.886L387.514 293.722C394.095 285.788 400.855 276.415 405.474 261.779C408.11 253.397 409.846 243.937 410.613 233.599C411.477 221.692 411.105 208.262 409.482 193.638C408.268 182.606 406.524 174.29 404.33 168.872C402.376 164.072 400.06 161.513 397.409 161.247C392.932 160.802 387.133 167.071 380.601 179.394C374.84 190.305 369.657 203.599 366.363 212.84C361.695 225.852 353.316 239.187 341.447 252.524C332.841 262.172 322.551 271.774 309.934 281.834C307.148 284.047 306.436 287.542 307.917 291.662C311.195 300.779 324.395 311.664 340.885 314.093C348.791 315.268 356.549 314.383 363.978 311.505C372.551 308.17 380.467 302.194 387.485 293.721L387.803 293.886Z" fill="url(#paint2_linear_0_1)"/>
            <path d="M128.406 167.748C132.731 163.445 137.259 159.226 141.991 155.092C168.632 131.813 193.746 122.794 218.743 127.565C240.396 131.686 258.679 145.451 274.812 157.602C285.587 165.721 295.731 173.356 305.256 176.806C336.949 188.229 350.116 184.684 357.985 182.586C362.533 181.36 365.555 180.551 369.27 183.601C372.928 186.597 365.91 201.994 347.231 232.08C339.161 245.098 328.171 251.703 319.366 257.032C314.963 259.684 311.137 262.005 308.542 264.582C301.434 271.708 300.376 274.325 298.118 280.086C296.227 284.874 293.374 292.105 285.232 306.135C278.079 318.457 262.863 334.669 245.53 348.483C235.669 356.353 225.468 363.194 215.229 368.842C203.777 375.173 192.515 379.839 181.774 382.702C161.876 388.013 144.077 387.15 128.847 380.16C113.85 373.255 101.316 363.388 91.558 350.875C81.8849 338.442 75.4619 324.018 72.4499 307.99C68.0941 284.653 71.4376 259.033 82.1275 233.853C87.8187 220.429 95.6051 207.12 105.265 194.271C112.043 185.179 119.786 176.331 128.406 167.748ZM338.059 242.515C341.117 239.476 344.018 235.974 346.623 231.775C355.106 218.09 361.084 207.645 364.85 199.818C370.301 188.539 370.009 185.002 368.779 184.011C365.35 181.202 362.806 181.905 358.168 183.152C350.208 185.296 336.892 188.885 304.966 177.352C295.354 173.873 285.123 166.183 274.319 158.063C258.272 145.966 240.046 132.255 218.569 128.166C193.806 123.456 168.932 132.409 142.445 155.543C128.28 167.92 115.976 181.036 105.814 194.574C96.1848 207.398 88.4301 220.658 82.7399 234.057C72.0839 259.136 68.7742 284.656 73.1049 307.891C76.0906 323.842 82.4578 338.188 92.1046 350.543C101.778 362.976 114.256 372.765 129.136 379.639C144.191 386.572 161.813 387.427 181.531 382.159C192.213 379.294 203.415 374.651 214.805 368.367C225.014 362.744 235.156 355.9 245.015 348.08C262.286 334.314 277.471 318.152 284.592 305.879C292.703 291.899 295.555 284.693 297.446 279.905C299.735 274.095 300.796 271.427 307.995 264.229C307.996 264.204 308.026 264.205 308.027 264.179C310.683 261.554 314.509 259.233 318.942 256.557C324.865 252.931 331.757 248.788 338.059 242.515Z" fill="url(#paint3_linear_0_1)"/>
            <path d="M135.674 176.959C139.165 173.482 142.801 170.063 146.583 166.7C170.415 145.48 192.936 136.909 215.44 140.483C235.007 143.602 251.747 155.399 266.535 165.794C276.814 173.055 286.549 179.886 295.773 182.766C325.004 192.282 337.776 188.974 345.404 186.993C350.01 185.795 353.06 185.013 356.722 187.933C358.812 189.544 358.119 194.687 354.647 203.236C351.539 210.913 346.285 221.034 339.465 232.483C332.415 244.48 322.712 250.734 314.924 255.777C311.153 258.202 307.897 260.32 305.549 262.654C298.075 270.043 296.939 272.403 293.506 279.356C291.207 284.025 288.034 290.432 281.402 301.635C274.611 313.11 260.388 328.224 244.309 341.102C235.12 348.468 225.617 354.883 216.133 360.158C205.468 366.092 195.046 370.464 185.082 373.131C167.128 377.968 151.066 377.306 137.309 371.139C123.495 364.919 111.867 356.003 102.83 344.612C93.819 333.298 87.8143 320.159 84.9188 305.556C80.7641 284.434 83.5619 261.199 93.0292 238.326C98.0758 226.142 105.012 214.039 113.676 202.339C120.021 193.685 127.425 185.177 135.674 176.959ZM330.244 243.373C333.334 240.285 336.299 236.659 338.913 232.257C353.319 208.023 359.984 191.191 356.318 188.372C352.944 185.667 350.192 186.386 345.616 187.56C337.899 189.562 325.008 192.891 295.572 183.315C286.261 180.406 276.498 173.523 266.162 166.234C251.46 155.868 234.777 144.125 215.358 141.037C193.058 137.497 170.717 146.026 147.07 167.075C134.341 178.373 123.27 190.35 114.166 202.639C105.562 214.316 98.6281 226.369 93.5826 238.527C84.1492 261.3 81.3556 284.434 85.5136 305.48C88.3807 320.057 94.3591 333.118 103.314 344.354C112.326 355.643 123.838 364.503 137.564 370.694C151.177 376.778 167.092 377.434 184.867 372.64C198.004 369.094 218.891 360.681 243.851 340.728C259.899 327.898 274.061 312.833 280.821 301.407C287.451 290.229 290.594 283.821 292.894 279.152C296.262 272.323 297.525 269.765 305.061 262.303C307.47 259.921 310.726 257.803 314.528 255.354C319.395 252.215 324.992 248.6 330.244 243.373Z" fill="url(#paint4_linear_0_1)"/>
            <path d="M142.788 186.265C145.476 183.591 148.282 180.922 151.203 178.308C172.225 159.149 192.183 151.026 212.251 153.482C229.731 155.599 244.926 165.479 258.368 174.168C268.182 180.521 277.421 186.52 286.344 188.829C313.083 196.438 325.402 193.339 332.787 191.499C337.481 190.331 340.59 189.551 344.168 192.341C349.218 196.006 341.235 215.975 331.694 232.963C325.631 244.013 317.155 249.939 310.354 254.719C307.275 256.87 304.622 258.734 302.523 260.775C294.002 269.133 292.886 271.013 286.849 281.455C284.581 285.39 281.739 290.289 277.54 297.184C273.275 304.229 265.923 312.916 256.854 321.632C246.673 331.441 235.198 340.408 223.68 347.599C210.065 356.095 196.863 361.844 184.469 364.636C170.043 367.899 157.002 367.113 145.704 362.243C133.045 356.706 122.383 348.719 114.005 338.497C105.685 328.328 100.039 316.473 97.2626 303.244C93.2794 284.335 95.5622 263.462 103.806 242.92C111.75 223.152 124.839 204.136 142.788 186.265ZM322.298 244.479C325.48 241.318 328.541 237.519 331.141 232.761C342.506 212.53 347.841 195.693 343.766 192.755C340.417 190.152 337.606 190.869 332.942 192.013C325.497 193.876 313.06 196.97 286.145 189.327C277.133 187.015 267.838 180.963 257.995 174.583C244.641 165.923 229.502 156.096 212.171 153.986C192.308 151.564 172.529 159.644 151.662 178.657C129.417 198.753 113.493 220.437 104.39 243.097C96.179 263.565 93.9301 284.338 97.8575 303.168C100.609 316.294 106.198 328.096 114.491 338.213C122.811 348.383 133.416 356.316 145.99 361.799C157.142 366.612 170.035 367.391 184.342 364.149C196.648 361.353 209.788 355.652 223.343 347.179C234.83 340.012 246.275 331.069 256.425 321.284C265.463 312.592 272.754 303.953 277.017 296.959C281.187 290.063 284.029 285.164 286.325 281.255C292.424 270.765 293.511 268.859 302.093 260.452C304.193 258.386 306.877 256.498 309.987 254.323C313.798 251.646 318.13 248.586 322.298 244.479Z" fill="url(#paint5_linear_0_1)"/>
            <path d="M150.057 195.426C151.911 193.578 153.824 191.733 155.795 189.915C174.036 172.818 191.461 165.145 209.062 166.506C224.452 167.671 237.526 175.28 250.167 182.641C259.461 188.034 268.234 193.151 276.858 194.839C301.075 200.565 312.492 197.808 320.023 196C325.014 194.793 328.004 194.059 331.586 196.748C336.328 199.993 332.947 216.103 323.893 233.466C318.781 243.72 311.471 249.341 305.598 253.882C303.365 255.612 301.224 257.245 299.495 258.946L298.601 259.796C288.481 269.582 287.648 270.383 273.645 292.809C269.708 299.106 262.824 307.205 254.74 315.025C245.453 324.01 235.043 332.262 224.643 338.892C212.298 346.757 200.354 352.155 189.146 354.871C176.083 358.065 164.274 357.535 154.071 353.345C142.564 348.517 132.839 341.458 125.123 332.354C117.465 323.304 112.238 312.735 109.548 300.93C105.767 284.21 107.503 265.748 114.553 247.513C121.63 229.356 133.53 211.861 150.057 195.426ZM314.161 245.931C317.497 242.625 320.747 238.555 323.4 233.242C332.196 216.375 335.729 200.171 331.246 197.088C327.892 194.587 324.994 195.274 320.182 196.438C313.039 198.161 301.054 201.046 276.72 195.289C268.009 193.573 259.206 188.454 249.854 183.034C237.271 175.7 224.254 168.145 209.012 166.986C191.587 165.657 174.313 173.261 156.194 190.262C136.732 208.22 122.921 227.534 115.169 247.641C108.151 265.801 106.448 284.188 110.204 300.806C112.866 312.559 118.067 323.051 125.669 332.048C133.299 341.072 142.967 348.078 154.387 352.877C164.474 357.011 176.135 357.535 189.079 354.361C200.198 351.641 212.081 346.292 224.396 338.45C234.765 331.845 245.144 323.616 254.402 314.63C262.456 306.835 269.308 298.76 273.215 292.486C287.25 270.011 288.083 269.21 298.234 259.399L299.128 258.55C300.886 256.85 302.998 255.191 305.261 253.462C308.014 251.348 311.133 248.946 314.161 245.931Z" fill="url(#paint6_linear_0_1)"/>
            <path d="M261.398 -169.218C265.383 -173.181 269.329 -176.918 273.205 -180.403C294.584 -199.623 313.651 -211.106 329.918 -214.543C346.574 -218.066 359.874 -212.983 369.441 -199.439C398.504 -158.335 412.475 -128.805 421.696 -109.266C425.845 -100.467 429.128 -93.5305 432.352 -88.7015C437.688 -80.6633 437.821 -63.0342 432.662 -42.6901C427.113 -20.8158 416.785 -0.641955 404.325 12.6703C387.153 31.0301 373.77 54.8515 365.54 71.6158C355.98 91.1378 347.811 112.697 343.732 129.233C341.086 139.922 333.784 147.445 322.627 151.026C303.314 157.198 274.929 150.736 248.575 134.115C236.073 126.252 223.171 118.094 211.317 109.624C198.2 100.265 187.868 91.4802 179.69 82.8133C169.928 72.4558 162.924 61.9373 158.23 50.6554C153.029 38.084 150.815 24.8542 151.529 10.2282C152.715 -14.7487 179.129 -66.616 215.725 -115.892C230.722 -135.968 246.29 -154.168 261.398 -169.218ZM335.52 142.803C339.196 139.157 341.759 134.55 343.086 129.13C347.196 112.544 355.366 90.9595 364.929 71.3868C373.16 54.5972 386.575 30.7011 403.809 12.2933C416.206 -0.945606 426.472 -21.0461 431.988 -42.8204C437.111 -63.0139 437.03 -80.4886 431.777 -88.3964C428.555 -93.276 425.244 -100.239 421.095 -109.038C411.872 -128.551 397.93 -158.055 368.866 -199.134C359.465 -212.418 346.428 -217.413 330.101 -213.978C313.953 -210.56 294.978 -199.149 273.69 -180.002C255.019 -163.228 235.194 -140.924 216.3 -115.513C179.767 -66.3351 153.418 -14.5918 152.206 10.3079C151.524 24.8592 153.683 38.0106 158.858 50.5048C163.496 61.7082 170.473 72.1748 180.178 82.4792C198.398 101.845 224.091 118.031 248.948 133.675C275.131 150.161 303.251 156.612 322.354 150.507C327.69 148.833 332.09 146.232 335.52 142.803Z" fill="url(#paint7_linear_0_1)"/>
            <path d="M267.67 -160.278C270.822 -163.414 273.936 -166.375 277.014 -169.184C296.466 -186.914 313.869 -197.53 328.677 -200.751C343.666 -204.015 355.662 -199.572 364.316 -187.512C390.807 -151.259 404.738 -123.582 413.982 -105.259C418.317 -96.6552 421.724 -89.8659 425.007 -85.0091C430.289 -77.1253 430.763 -60.5213 426.229 -41.6465C421.371 -21.4416 411.926 -2.54859 400.291 10.165C384.538 27.1654 372.097 49.0239 364.401 64.3657C355.377 82.3892 347.844 101.541 343.698 116.883C341.095 126.559 334.266 133.393 323.953 136.603C306.056 142.177 279.956 136.218 255.818 121.036C233.033 106.724 209.499 91.9488 192.439 73.7988C183.472 64.236 176.994 54.5514 172.676 44.1478C167.848 32.5559 165.796 20.3727 166.371 6.90724C167.271 -16.2055 191.239 -64.1455 224.627 -109.654C238.758 -128.829 253.459 -146.128 267.67 -160.278ZM336.236 128.837C339.51 125.579 341.843 121.52 343.112 116.756C347.26 101.364 354.795 82.1868 363.848 64.1392C371.545 48.7721 384.048 26.8655 399.832 9.81575C411.407 -2.84974 420.818 -21.6428 425.672 -41.7718C430.171 -60.5213 429.721 -76.972 424.522 -84.7508C421.242 -89.6583 417.805 -96.4489 413.471 -105.078C404.256 -123.375 390.323 -151.027 363.861 -187.253C355.345 -199.078 343.612 -203.46 328.923 -200.259C314.203 -197.059 296.921 -186.489 277.561 -168.831C260.541 -153.331 242.446 -132.753 225.265 -109.348C191.939 -63.9128 168.035 -16.0967 167.109 6.9388C166.537 20.3283 168.593 32.4356 173.364 43.9744C177.655 54.3008 184.075 63.9575 193.015 73.4684C210.018 91.5653 233.523 106.339 256.25 120.624C280.186 135.695 306.08 141.62 323.767 136.114C328.804 134.529 332.991 132.07 336.236 128.837Z" fill="url(#paint8_linear_0_1)"/>
            <path d="M273.914 -151.339C276.232 -153.649 278.546 -155.882 280.854 -157.99C298.408 -174.229 314.088 -183.98 327.469 -187.008C340.79 -190.014 351.482 -186.185 359.252 -175.608C383.337 -143.972 396.708 -119.082 406.49 -100.914C410.929 -92.6604 414.437 -86.1457 417.721 -81.3142C423.035 -73.4797 423.834 -58.2566 419.884 -40.5993C415.719 -22.0637 407.129 -4.47807 396.317 7.63684C370.377 35.9928 350.671 81.0976 343.754 104.511C341.194 113.2 334.809 119.317 325.341 122.158C308.86 127.134 285.016 121.676 263.154 107.911C243.449 95.5813 221.123 81.5929 205.311 64.7134C197.107 55.9693 191.215 47.0959 187.245 37.5693C182.818 26.9582 180.897 15.8456 181.364 3.54192C181.672 -7.12033 187.005 -23.2224 196.786 -43.0646C206.179 -62.1121 219.282 -83.5619 233.651 -103.462C246.794 -121.689 260.598 -138.063 273.914 -151.339ZM336.981 114.871C339.854 112.027 341.927 108.49 343.138 104.383C350.057 80.9192 369.827 35.7157 395.828 7.31166C406.608 -4.75389 415.166 -22.2649 419.298 -40.7258C423.243 -58.2818 422.438 -73.3531 417.208 -81.0825C413.896 -85.9406 410.389 -92.4807 405.95 -100.734C396.196 -118.876 382.825 -143.74 358.768 -175.35C351.166 -185.716 340.707 -189.46 327.655 -186.519C314.394 -183.51 298.804 -173.806 281.312 -157.641C265.915 -143.414 249.609 -124.561 234.141 -103.162C219.772 -83.262 206.699 -61.8362 197.308 -42.8141C187.559 -23.0466 182.259 -6.99385 181.924 3.59121C181.461 15.819 183.383 26.8809 187.783 37.4402C191.727 46.8896 197.619 55.7377 205.766 64.4286C221.522 81.255 243.819 95.2167 263.496 107.52C285.214 121.178 308.823 126.599 325.124 121.693C329.919 120.224 333.922 117.936 336.981 114.871Z" fill="url(#paint9_linear_0_1)"/>
            <path d="M280.099 -142.376C281.644 -143.908 283.155 -145.365 284.666 -146.796C300.323 -161.544 314.31 -170.455 326.232 -173.267C337.915 -176.013 347.302 -172.797 354.131 -163.706C376.034 -136.398 389.442 -113.079 399.274 -96.0493C403.486 -88.7184 407.149 -82.3746 410.379 -77.6722C415.642 -70.0175 416.807 -55.7675 413.483 -39.6049C410.011 -22.7386 402.274 -6.43506 392.287 5.08116C382.102 16.3861 371.68 31.8394 362.186 49.7921C354.56 64.1986 347.836 79.6326 343.724 92.1101C341.176 99.8112 335.297 105.189 326.641 107.684C311.577 112.036 290.019 107.082 270.402 94.7815C249.744 81.9041 231.527 70.0693 218.064 55.6486C210.654 47.6992 205.289 39.6597 201.666 31.01C197.64 21.405 195.823 11.3112 196.181 0.169274C196.363 -9.61088 201.015 -24.3221 209.714 -42.3848C218.025 -59.6528 229.656 -79.1624 242.528 -97.2749C254.802 -114.551 267.71 -130.025 280.099 -142.376ZM337.758 100.882C340.23 98.4268 342.042 95.4614 343.196 92.0114C347.31 79.4834 354.034 64.0493 361.691 49.6188C371.215 31.642 381.638 16.1634 391.854 4.83442C401.81 -6.63244 409.514 -22.8613 412.953 -39.6529C416.243 -55.7156 415.131 -69.8364 409.924 -77.4127C406.664 -82.1164 403.031 -88.4589 398.79 -95.8164C388.989 -112.845 375.581 -136.163 353.704 -163.42C347.016 -172.327 337.833 -175.484 326.418 -172.777C314.586 -169.987 300.689 -161.122 285.124 -146.447C271.347 -133.47 256.803 -116.367 243.047 -96.9737C230.205 -78.8599 218.575 -59.3757 210.266 -42.133C201.628 -24.1437 196.949 -9.4844 196.77 0.245138C196.444 11.3124 198.204 21.353 202.232 30.9075C205.828 39.5052 211.165 47.5181 218.547 55.4156C231.952 69.8086 250.141 81.6168 270.77 94.4676C290.243 106.686 311.625 111.607 326.509 107.324C331.064 105.946 334.854 103.776 337.758 100.882Z" fill="url(#paint10_linear_0_1)"/>
            <path d="M286.221 -133.392C286.993 -134.145 287.735 -134.899 288.506 -135.627C302.265 -148.884 314.529 -156.93 325.024 -159.549C335.039 -162.037 343.121 -159.435 349.065 -151.802C369.1 -128.504 382.737 -106.392 392.695 -90.2448C396.65 -83.8377 400.053 -78.3165 403.062 -73.9785C408.355 -66.3478 409.845 -53.4533 407.107 -38.5335C404.326 -23.3112 397.445 -8.34042 388.281 2.60243C369.479 23.8086 352.007 57.4713 343.717 79.7863C341.212 86.5002 335.777 91.1618 327.965 93.3128C314.318 97.0399 295.045 92.5897 277.673 81.7293C260.009 70.7803 243.142 59.8907 230.87 46.662C224.254 39.5326 219.446 32.303 216.169 24.5303C212.515 15.9047 210.861 6.85753 211.08 -3.09853C211.107 -12.0232 215.137 -25.3409 222.696 -41.6267C229.896 -57.1418 240.111 -74.6833 251.459 -91.0353C262.778 -107.414 274.759 -121.964 286.221 -133.392ZM338.562 86.8941C340.602 84.8513 342.185 82.4086 343.222 79.613C351.513 57.2727 369.016 23.5606 387.85 2.30507C396.981 -8.5631 403.801 -23.4858 406.579 -38.6322C409.282 -53.4267 407.848 -66.2427 402.609 -73.7696C399.57 -78.1089 396.169 -83.6554 392.214 -90.0625C382.255 -106.184 368.646 -128.269 348.612 -151.567C342.807 -159.017 334.93 -161.56 325.154 -159.138C314.779 -156.539 302.546 -148.542 288.879 -135.357C276.754 -123.654 263.969 -108.276 251.897 -90.8898C240.58 -74.5618 230.395 -57.0444 223.166 -41.5559C215.609 -25.3207 211.611 -12.0523 211.586 -3.17833C211.37 6.72712 213.026 15.7237 216.653 24.2974C219.901 32.0182 224.681 39.2212 231.27 46.2987C243.514 59.4756 260.353 70.3639 277.958 81.285C295.214 92.0898 314.281 96.5059 327.779 92.823C332.176 91.6671 335.812 89.6419 338.562 86.8941Z" fill="url(#paint11_linear_0_1)"/>
            <path d="M292.225 -124.387C292.255 -124.411 292.286 -124.435 292.316 -124.459C304.148 -136.226 314.75 -143.43 323.786 -145.833C332.133 -148.063 338.94 -146.073 343.971 -139.899C362.624 -120.261 376.819 -98.7591 387.181 -83.0762C390.432 -78.17 393.238 -73.9168 395.776 -70.3343C401.018 -62.858 402.844 -50.9127 400.733 -37.5382C398.616 -23.9865 392.616 -10.2711 384.278 0.047695C376.251 9.28953 368.083 21.1371 359.938 35.2424C353.834 45.8597 347.92 57.5755 343.714 67.3864C341.251 73.1133 336.26 77.0838 329.263 78.8386C317.062 81.9429 300.075 77.9961 284.95 68.5504C270.136 59.4475 254.764 49.5602 243.682 37.5487C237.859 31.2393 233.578 24.8183 230.649 17.9227C227.397 10.2779 225.874 2.30128 225.984 -6.49301C225.749 -22.4275 239.608 -53.9372 260.396 -84.9224C270.726 -100.304 281.721 -113.932 292.225 -124.387ZM339.426 72.9084C341.063 71.2795 342.357 69.3823 343.277 67.2409C347.483 57.43 353.398 45.6889 359.531 35.0729C367.678 20.9423 375.876 9.07062 383.904 -0.196522C392.181 -10.4673 398.148 -24.1079 400.263 -37.609C402.339 -50.8835 400.569 -62.7504 395.353 -70.1242C392.815 -73.7067 390.009 -77.9599 386.758 -82.8661C376.396 -98.5489 362.199 -120.025 343.575 -139.637C338.686 -145.652 332.055 -147.61 323.916 -145.422C314.97 -143.041 304.459 -135.883 292.659 -124.165C292.628 -124.141 292.598 -124.117 292.567 -124.093C282.094 -113.663 271.099 -100.034 260.801 -84.7022C240.016 -53.793 226.219 -22.3567 226.457 -6.47281C226.349 2.27085 227.872 10.2221 231.097 17.8151C233.999 24.6588 238.251 31.0532 244.046 37.3361C255.099 49.3209 270.443 59.1818 285.228 68.2833C300.209 77.6468 317.049 81.562 329.1 78.5019C333.319 77.3891 336.801 75.5094 339.426 72.9084Z" fill="url(#paint12_linear_0_1)"/>
            <path d="M298.141 -115.386C307.255 -124.454 315.454 -130.114 322.521 -132.144C329.23 -134.089 334.731 -132.687 338.848 -127.972C356.702 -111.791 372.176 -89.7535 383.468 -73.6758C385.252 -71.1399 386.925 -68.7608 388.432 -66.6424C393.734 -59.2142 395.82 -48.5003 394.331 -36.4939C392.837 -24.3863 387.824 -12.3024 380.245 -2.45819C374.698 4.12575 360.054 22.8725 343.711 55.0367C341.289 59.8018 336.713 63.0547 330.531 64.4386C319.748 66.8936 305.076 63.4515 292.255 55.4735C280.147 48.1093 266.413 39.3316 256.493 28.5109C246.008 17.0828 240.924 4.54181 240.888 -9.83731C240.634 -17.0243 243.332 -27.559 248.7 -40.3378C253.805 -52.4938 260.939 -65.7803 269.334 -78.7846C277.982 -92.1838 287.248 -104.137 296.131 -113.342C296.783 -114.049 297.462 -114.73 298.141 -115.386ZM340.321 58.9236C341.526 57.7326 342.5 56.3796 343.275 54.8659C345.891 49.7288 351.333 39.3622 358.394 27.7969C365.805 15.6634 373.017 5.39778 379.871 -2.70241C387.418 -12.4972 392.398 -24.5065 393.89 -36.5635C395.376 -48.4939 393.286 -59.1066 388.041 -66.4816C386.505 -68.6013 384.833 -71.0057 383.076 -73.5151C371.784 -89.5927 356.34 -111.629 338.513 -127.758L338.485 -127.785C334.481 -132.368 329.156 -133.737 322.656 -131.834C315.258 -129.691 306.196 -123.206 296.447 -113.125C287.566 -103.946 278.33 -92.0168 269.683 -78.6429C261.32 -65.6879 254.185 -52.4015 249.082 -40.2707C243.716 -27.5426 241.019 -17.0332 241.277 -9.92215C241.316 4.38104 246.403 16.8462 256.802 28.1945C266.665 38.962 280.4 47.7144 292.479 55.0774C305.214 63.001 319.739 66.4114 330.402 64.002C334.491 63.1372 337.85 61.379 340.321 58.9236Z" fill="url(#paint13_linear_0_1)"/>
            <path d="M303.634 -106.225C310.121 -112.667 316.129 -116.899 321.199 -118.558C326.298 -120.217 330.493 -119.403 333.724 -116.096C351.734 -103.56 372.317 -75.1161 381.086 -62.9753C392.032 -47.8 390.036 -23.948 376.21 -4.98876C364.44 9.49407 352.756 28.1646 345.771 39.3274C345.04 40.5133 344.342 41.6245 343.677 42.6611C341.266 46.463 337.135 48.9996 331.737 50.0366C322.402 51.8182 310.047 48.8555 299.529 42.3454C288.714 35.8479 277.578 28.5759 269.302 19.4484C260.46 9.71344 256.037 -0.973637 255.791 -13.2064C255.02 -25.6137 263.827 -48.9715 278.24 -72.6729C285.176 -84.066 292.682 -94.2936 299.914 -102.251C301.129 -103.67 302.398 -104.985 303.634 -106.225ZM341.362 44.9203C342.103 44.1913 342.76 43.3572 343.329 42.494C343.965 41.4562 344.663 40.345 345.423 39.1857C352.407 28.0229 364.121 9.3283 375.892 -5.15454C389.623 -23.9911 391.613 -47.6911 380.751 -62.7614C371.983 -74.9022 351.426 -103.294 333.474 -115.802L333.445 -115.803C330.358 -119.003 326.28 -119.786 321.36 -118.171C315.39 -116.22 308.051 -110.6 300.199 -101.985C292.968 -94.0532 285.492 -83.8496 278.556 -72.4565C264.175 -48.8045 255.371 -25.5226 256.144 -13.1659C256.728 13.9914 278.002 29.0505 299.745 42.1264C310.177 48.5822 322.415 51.5144 331.66 49.7544C335.689 48.9124 338.983 47.2783 341.362 44.9203Z" fill="url(#paint14_linear_0_1)"/>
            <path d="M308.864 -97.0752C312.818 -101.014 316.545 -103.771 319.824 -105.051C323.344 -106.447 326.289 -106.143 328.601 -104.193C334.656 -101.906 342.552 -95.6347 352.088 -85.5404C359.049 -78.1681 366.923 -68.6266 373.742 -59.3078C384.639 -44.3629 384.048 -25.0151 372.178 -7.51902C367.668 -1.65149 363.085 4.54256 358.658 10.5404C352.943 18.2836 347.542 25.6092 343.645 30.2857C340.372 34.2029 334.608 36.1879 327.434 35.8558C320.644 35.5401 313.116 33.1389 306.745 29.2404C292.003 20.521 285.779 14.6001 282.024 10.4078C274.825 2.36595 271.09 -6.44061 270.575 -16.5295C269.495 -27.2258 275.787 -46.4057 286.971 -66.543C294.179 -79.4713 301.881 -90.1216 308.864 -97.0752ZM342.642 30.9022C342.891 30.6338 343.139 30.3655 343.387 30.0972C347.253 25.4446 352.684 18.1204 358.398 10.3772C362.825 4.37933 367.409 -1.81471 371.919 -7.68224C383.725 -25.0543 384.311 -44.3008 373.469 -59.142C366.679 -68.4343 358.775 -77.9769 351.843 -85.348C342.307 -95.4423 334.44 -101.687 328.442 -103.921L328.412 -103.923L328.384 -103.949C326.186 -105.818 323.358 -106.091 319.959 -104.766C310.994 -101.244 298.505 -86.5639 287.352 -66.4507C276.199 -46.3628 269.909 -27.2334 270.992 -16.5877C271.48 -6.55074 275.187 2.20392 282.359 10.1938C289.472 18.1559 299.262 24.4067 306.994 28.972C313.306 32.8427 320.777 35.2161 327.478 35.528C334.002 35.8324 339.337 34.1841 342.642 30.9022Z" fill="url(#paint15_linear_0_1)"/>
        </g>
        <mask id="mask2_0_1" style="mask-type:luminance" maskUnits="userSpaceOnUse" x="-7" y="-4" width="360" height="190">
            <path d="M352.282 11.6259L0.830078 -3.40283L-6.60357 170.436L344.848 185.465L352.282 11.6259Z" fill="white"/>
        </mask>
        <g mask="url(#mask2_0_1)">
            <path d="M-48.5556 190.382C-50.3164 192.132 -51.6491 192.861 -52.6627 193.046C-58.3856 194.069 -64.7036 202.091 -70.8325 209.842C-77.8696 218.771 -84.5308 227.209 -90.9683 226.959C-93.7141 226.841 -96.0976 225.167 -98.2926 221.853C-104.879 211.936 -105.822 193.866 -105.456 180.468C-105.015 163.929 -102.47 148.696 -100.874 142.501C-96.0526 123.816 -91.7121 107.393 -87.3464 95.915C-82.746 83.7881 -78.3026 77.4106 -72.9443 75.2307C-69.8142 73.9699 -66.421 74.1657 -62.5285 75.8283C-57.0961 78.1399 -51.9357 78.5127 -46.2217 77.0074C-41.0468 75.6565 -35.8692 72.8604 -30.3888 69.8997C-23.7583 66.3289 -16.2489 62.2632 -7.18699 59.9375C-5.66173 59.5463 -4.39866 59.7525 -3.45789 60.5788C-1.0316 62.635 -0.636403 68.6109 -2.2964 78.3785C-3.75682 86.9376 -6.78627 98.2949 -11.066 111.222C-17.1432 129.523 -25.3421 149.712 -32.9876 165.259C-40.1742 179.76 -45.1574 187.002 -48.5556 190.382ZM-61.8174 198.233C-58.7591 195.194 -55.7365 192.991 -52.8149 192.456C-48.8808 191.762 -41.9153 181.74 -33.6558 164.977C-26.0115 149.455 -17.8137 129.292 -11.767 111.014C-2.56651 83.3117 0.333957 64.5952 -3.97712 60.9623C-4.74724 60.2954 -5.74677 60.1512 -7.03258 60.4766C-16.0059 62.8061 -23.4836 66.8225 -30.0846 70.3945C-41.1657 76.3614 -50.7042 81.5321 -62.9055 76.3446C-66.5946 74.7669 -69.8106 74.5786 -72.7309 75.7724C-83.6868 80.1978 -90.3281 104.079 -100.26 142.654C-101.855 148.824 -104.367 164.007 -104.836 180.494C-105.198 193.817 -104.251 211.785 -97.7482 221.572C-95.6637 224.704 -93.453 226.269 -90.9729 226.375C-84.9203 226.634 -78.0701 217.925 -71.4395 209.511C-68.221 205.49 -65.0002 201.419 -61.8174 198.233Z" fill="url(#paint16_linear_0_1)"/>
            <path d="M-45.5464 63.2672C-48.2648 65.9656 -50.7432 67.2035 -53.0407 66.9785C-55.9572 66.7017 -58.4745 64.0075 -60.5369 58.9747C-62.7591 53.5293 -64.5004 45.1376 -65.7431 34.0794C-67.3647 19.4296 -67.7643 5.94779 -66.8696 -5.9826C-66.101 -16.3462 -64.3633 -25.857 -61.7262 -34.2643C-57.0744 -48.9755 -50.2824 -58.3969 -43.6703 -66.3806C-36.5608 -74.9263 -28.5525 -80.9739 -19.8891 -84.3563C-12.3387 -87.3045 -4.43314 -88.1836 3.59148 -87.0037C20.346 -84.5376 33.8032 -73.4389 37.1031 -64.1438C38.6621 -59.7917 37.8819 -56.0722 34.9119 -53.7142C22.3258 -43.6784 12.038 -34.1275 3.46157 -24.4781C-8.34565 -11.214 -16.693 2.07128 -21.3281 15.0082C-24.6516 24.2482 -29.8059 37.5686 -35.5977 48.5035C-39.1421 55.2999 -42.4882 60.2283 -45.5464 63.2672ZM-43.3531 -66.1895L-43.0643 -66.025C-49.6448 -58.0907 -56.405 -48.7186 -61.0241 -34.0821C-63.6601 -25.7001 -65.3957 -16.24 -66.1631 -5.90165C-67.0272 6.00469 -66.655 19.4346 -65.0323 34.0591C-63.8181 45.0907 -62.0736 53.4065 -59.8798 58.8253C-57.9258 63.6253 -55.6097 66.184 -52.959 66.4495C-48.482 66.8945 -42.6826 60.6257 -36.1511 48.3024C-30.3899 37.3915 -25.2071 24.0977 -21.9132 14.8564C-17.2453 1.8448 -8.86628 -11.4898 3.00323 -24.8273C11.6092 -34.4755 21.8992 -44.077 34.5159 -54.1368C37.3022 -56.3505 38.0136 -59.8448 36.5334 -63.9652C33.2555 -73.0819 20.0554 -83.9668 3.5655 -86.3962C-4.34102 -87.5711 -12.099 -86.6857 -19.528 -83.8084C-28.1007 -80.4728 -36.0172 -74.4973 -43.0348 -66.0238L-43.3531 -66.1895Z" fill="url(#paint17_linear_0_1)"/>
            <path d="M-45.7259 56.4129C-48.2278 58.8924 -50.5247 60.0367 -52.6156 59.8205C-58.2408 59.2503 -62.0156 49.301 -64.1829 29.4296C-66.601 3.6646 -64.8162 -18.0156 -58.8542 -35.0037C-54.0347 -48.7948 -47.4294 -57.3114 -41.0301 -64.4674C-34.6441 -72.0044 -27.4939 -77.3533 -19.8232 -80.3471C-13.1147 -82.9763 -6.10023 -83.7667 0.982829 -82.7031C5.86233 -81.9873 13.2312 -79.9987 20.5141 -74.6158C25.7044 -70.7931 29.6136 -66.0616 31.2558 -61.5792C32.9265 -57.0702 32.1704 -53.2229 29.1654 -50.7396C6.97569 -31.9351 -14.7976 -11.1096 -23.865 13.4796C-26.9439 21.8426 -31.6855 33.8114 -36.8283 43.4048C-40.0111 49.3544 -42.9769 53.6905 -45.7259 56.4129ZM-36.6031 -68.386C-37.9322 -67.0482 -39.2351 -65.6331 -40.5127 -64.1156C-46.8803 -57.0089 -53.454 -48.5418 -58.2407 -34.8253C-64.1709 -17.8866 -65.9526 3.71767 -63.5312 29.4067C-62.4277 39.5715 -60.8333 47.2469 -58.8289 52.2519C-57.0358 56.6647 -54.9189 59.0373 -52.5043 59.2927C-48.4111 59.7213 -43.3277 54.284 -37.3501 43.1542C-32.2083 33.5862 -27.4678 21.6427 -24.3889 13.2797C-15.2865 -11.4348 6.54797 -32.3084 28.7989 -51.161C31.6202 -53.5 32.3086 -57.1473 30.7178 -61.45C29.0997 -65.8046 25.2759 -70.4564 20.172 -74.2246C16.2144 -77.1325 9.66054 -80.8867 0.961182 -82.1969C-6.00486 -83.2301 -12.9001 -82.46 -19.4884 -79.8764C-25.5956 -77.475 -31.3206 -73.6373 -36.6031 -68.386Z" fill="url(#paint18_linear_0_1)"/>
            <path d="M-45.879 49.5854C-48.1645 51.8459 -50.2504 52.8978 -52.1641 52.6891C-57.2874 52.1404 -60.713 43.0175 -62.6269 24.8305C-64.431 0.613195 -62.1994 -19.7547 -56.015 -35.719C-50.9633 -48.7141 -44.2975 -56.5687 -38.4226 -62.5301C-32.759 -69.0836 -26.4669 -73.7339 -19.7299 -76.3366C-13.8347 -78.6202 -7.71146 -79.3219 -1.53935 -78.3987C4.66229 -77.4742 10.6186 -74.9627 15.7193 -71.1185C20.3616 -67.6235 23.8168 -63.3426 25.4108 -59.1158C27.193 -54.4499 26.4884 -50.4229 23.4179 -47.7902L21.7565 -46.2891C12.8655 -38.2761 2.77541 -29.1985 -5.92128 -19.5036C-15.8607 -8.41637 -22.5713 1.87068 -26.4039 11.9511C-30.5359 22.8049 -34.4653 31.6894 -38.0906 38.3048C-40.8527 43.4103 -43.4689 47.1781 -45.879 49.5854ZM-34.8635 -65.5222C-35.9139 -64.4767 -36.9369 -63.3794 -37.9632 -62.2061C-43.8075 -56.2689 -50.4416 -48.4636 -55.4605 -35.5431C-61.6427 -19.6295 -63.8415 0.663737 -62.0343 24.8051C-60.1566 42.458 -56.824 51.6784 -52.0834 52.1854C-48.4616 52.5685 -43.9103 47.8185 -38.5838 38.0808C-34.9881 31.4642 -31.0608 22.6303 -26.9289 11.7766C-23.0941 1.64547 -16.3518 -8.69093 -6.35117 -19.8262C2.37613 -29.5452 12.4662 -38.6228 21.3583 -46.6611L23.0197 -48.1623C25.9361 -50.6494 26.5741 -54.5017 24.8728 -58.9867C23.3029 -63.0856 19.8478 -67.3666 15.3487 -70.754C10.3345 -74.5438 4.49411 -76.9997 -1.58943 -77.9191C-7.64452 -78.8119 -13.6486 -78.1304 -19.4235 -75.8924C-24.9272 -73.7695 -30.075 -70.2874 -34.8635 -65.5222Z" fill="url(#paint19_linear_0_1)"/>
            <path d="M-46.0309 42.7577C-48.1011 44.8246 -50.0034 45.7321 -51.7104 45.5323C-56.3023 45.0063 -59.3786 36.7098 -61.0677 20.1806C-62.2576 -2.48896 -59.6088 -21.5458 -53.143 -36.4837C-47.8242 -48.8081 -41.0738 -55.8731 -35.7823 -60.6422C-23.8527 -74.0025 -11.9035 -75.368 -3.96749 -74.1919C1.38116 -73.3799 6.55111 -71.1556 10.9605 -67.7467C14.998 -64.6326 18.056 -60.749 19.5744 -56.8297C21.4683 -52.0069 20.7791 -47.6496 17.6737 -44.8916C15.4844 -42.8045 13.2032 -40.6453 11.0149 -38.5835C-5.13591 -23.3497 -21.8114 -7.6059 -28.9079 10.3225C-35.6397 27.3284 -41.3036 38.0405 -46.0309 42.7577ZM-38.3408 -57.5313C-43.0058 -52.8875 -48.3141 -46.3441 -52.6782 -36.2864C-59.1112 -21.4231 -61.7568 -2.44221 -60.5647 20.1768C-58.9141 36.2224 -55.9296 44.5912 -51.691 45.0768C-48.512 45.4409 -44.5225 41.3768 -39.845 32.9807C-36.7058 27.3588 -33.3116 19.9222 -29.4963 10.2467C-22.3669 -7.75643 -5.65979 -23.5496 10.5227 -38.8327C12.711 -40.8945 14.9922 -43.0538 17.1815 -45.1409C20.1951 -47.8267 20.8133 -51.9081 18.9742 -56.6272C17.482 -60.4692 14.4787 -64.2491 10.4992 -67.3354C6.17625 -70.6899 1.12332 -72.8838 -4.13784 -73.6667C-11.9263 -74.8365 -23.6687 -73.4622 -35.4421 -60.298C-36.3657 -59.45 -37.3221 -58.5273 -38.3408 -57.5313Z" fill="url(#paint20_linear_0_1)"/>
            <path d="M-46.1814 35.9301C-47.9422 37.6806 -49.6684 38.621 -51.3164 38.4238C-55.4063 37.9192 -58.104 30.4503 -59.5682 15.579C-60.1713 -5.5948 -57.0758 -23.3393 -50.3612 -37.1762C-46.0775 -46.0456 -40.483 -53.0586 -33.2618 -58.6834C-22.9671 -69.7807 -12.95 -70.9245 -6.36889 -69.8824C-1.84369 -69.1817 2.48086 -67.2472 6.20005 -64.2988C9.60421 -61.5922 12.2367 -58.1324 13.6828 -54.5966C15.6893 -49.6422 15.0811 -45.1039 12.0535 -42.0891C11.9912 -42.0157 11.8994 -41.9435 11.8371 -41.8701C8.21921 -38.1959 4.51494 -34.5761 0.935271 -31.103C-12.7997 -17.7185 -25.7346 -5.06046 -31.5054 8.84214C-35.8584 19.3314 -41.1458 30.9218 -46.1814 35.9301ZM-38.1159 -53.7688C-42.8421 -49.0769 -46.6866 -43.5613 -49.8647 -37.0282C-56.5476 -23.2407 -59.6409 -5.54678 -59.0346 15.5511C-57.6099 29.9642 -54.9746 37.5066 -51.2379 37.9707C-44.4994 38.7914 -35.4297 16.9155 -32.0009 8.66882C-26.1973 -5.30845 -13.2023 -17.9893 0.534909 -31.4244C4.11458 -34.8975 7.78932 -38.5186 11.4367 -42.1916C14.5486 -45.1014 15.1831 -49.5625 13.1743 -54.4663C11.7852 -57.9489 9.17786 -61.3061 5.83167 -63.9849C2.19889 -66.8789 -2.03816 -68.7844 -6.47587 -69.4559C-12.9115 -70.4411 -22.7197 -69.3391 -32.8899 -58.3886L-32.891 -58.3632L-32.9205 -58.3645C-34.7263 -56.9456 -36.4785 -55.3977 -38.1159 -53.7688Z" fill="url(#paint21_linear_0_1)"/>
            <path d="M-46.335 29.1279C-47.9101 30.6834 -49.4231 31.4809 -50.8644 31.2925C-54.4524 30.8094 -56.7998 24.1415 -58.0096 10.9293C-57.9964 -8.74742 -54.4541 -25.1796 -47.4898 -37.9408C-41.8399 -48.324 -35.1818 -53.9222 -30.6221 -56.7954C-21.9295 -65.7045 -13.8172 -66.5747 -8.55927 -65.716C-1.36244 -64.5461 5.10348 -59.4263 7.88943 -52.6382C10.0602 -47.3725 9.39864 -42.2786 6.09335 -38.9967C6.09227 -38.9714 6.06275 -38.9726 6.06167 -38.9473C1.06894 -33.5569 -3.8114 -28.7195 -8.50917 -24.001C-19.7563 -12.7669 -29.4579 -3.08954 -34.0723 7.28714C-38.1645 16.5197 -42.3816 25.2144 -46.335 29.1279ZM-37.5096 -50.6745C-46.4067 -41.8249 -57.5295 -23.8151 -57.5372 10.9495C-56.3396 23.7554 -54.084 30.4955 -50.7891 30.9153C-45.3771 31.6285 -38.0153 15.1061 -34.5098 7.14164C-29.8932 -3.28566 -20.1599 -13.0124 -8.88218 -24.2706C-4.18548 -28.9637 0.666409 -33.8277 5.68758 -39.1916C5.68866 -39.2169 5.71819 -39.2156 5.71927 -39.2409C8.93165 -42.4254 9.55714 -47.3687 7.43897 -52.48C4.67606 -59.115 -1.61596 -64.1512 -8.66624 -65.2894C-13.8071 -66.1179 -21.7412 -65.2653 -30.3093 -56.5031L-30.3399 -56.479L-30.3705 -56.455C-32.2562 -55.2424 -34.7606 -53.397 -37.5096 -50.6745Z" fill="url(#paint22_linear_0_1)"/>
            <path d="M-46.4581 22.3273C-47.8178 23.6891 -49.1516 24.4435 -50.4147 24.2374C-53.5007 23.7757 -55.4683 17.9102 -56.451 6.3052C-55.85 -11.901 -51.861 -27.0209 -44.649 -38.6558C-41.9795 -42.9792 -38.9226 -46.6774 -35.5691 -49.7036C-32.1861 -52.7286 -29.4005 -54.2324 -28.0131 -54.8577C-23.6967 -58.9585 -19.2505 -61.2534 -14.7061 -61.693C-10.8156 -62.0592 -7.01628 -60.9838 -3.77736 -58.5632C-0.192807 -55.9249 2.3579 -51.9361 3.26849 -47.6372C4.2273 -43.0826 3.16297 -38.9441 0.314624 -35.9723C-6.09115 -28.6644 -12.1497 -22.5588 -17.4967 -17.1835C-26.1829 -8.42632 -33.0755 -1.49421 -36.5802 5.76026L-36.8064 6.207C-39.4306 11.5466 -42.9976 18.8745 -46.4581 22.3273ZM-36.8892 -47.8837C-39.2381 -45.5244 -41.7945 -42.4641 -44.2728 -38.4622C-51.4836 -26.8526 -55.4409 -11.7821 -56.0377 6.32287C-55.0978 17.5456 -53.1619 23.4606 -50.3405 23.8855C-46.1674 24.5204 -40.5858 12.9679 -37.2143 6.06277L-36.9881 5.61603C-33.4517 -1.6878 -26.5581 -8.64523 -17.8413 -17.4265C-12.4943 -22.8018 -6.46524 -28.9087 -0.0605484 -36.1913C2.7255 -39.0896 3.75599 -43.1281 2.82128 -47.5549C1.93697 -51.7766 -0.588534 -55.6629 -4.05608 -58.2708C-7.20966 -60.6117 -10.8624 -61.6555 -14.6337 -61.3096C-19.0589 -60.8902 -23.444 -58.6434 -27.6696 -54.5895L-27.7003 -54.5654L-27.7309 -54.5414C-29.1478 -53.9173 -32.6877 -52.0654 -36.8892 -47.8837Z" fill="url(#paint23_linear_0_1)"/>
            <path d="M216.046 59.9237C211.72 64.227 207.192 68.4455 202.46 72.5793C175.82 95.8592 150.706 104.877 125.709 100.106C104.055 95.9854 85.7727 82.2207 69.6394 70.0693C58.8648 61.9507 48.7203 54.3154 39.1955 50.8652C7.50202 39.4431 -5.66433 42.988 -13.5333 45.0858C-18.0817 46.3113 -21.1038 47.1203 -24.8187 44.0707C-28.4766 41.0742 -21.4588 25.6782 -2.77979 -4.40829C5.28995 -17.4265 16.28 -24.0312 25.0858 -29.3601C29.4881 -32.0118 33.3143 -34.3332 35.9092 -36.9101C43.017 -44.0359 44.0755 -46.6532 46.3332 -52.4142C48.224 -57.2019 51.077 -64.4335 59.2195 -78.4629C66.3722 -90.785 81.5887 -106.997 98.9211 -120.811C108.782 -128.681 118.984 -135.522 129.223 -141.17C140.674 -147.502 151.936 -152.168 162.678 -155.03C182.575 -160.341 200.374 -159.479 215.604 -152.488C230.601 -145.583 243.135 -135.716 252.893 -123.203C262.566 -110.77 268.989 -96.3462 272.001 -80.3183C276.357 -56.9809 273.014 -31.3608 262.324 -6.18171C256.633 7.24252 248.846 20.5518 239.186 33.4006C232.409 42.493 224.636 51.3399 216.046 59.9237ZM6.36164 -14.8196C3.30338 -11.7807 0.402768 -8.27866 -2.20228 -4.07932C-10.6851 9.60589 -16.663 20.0511 -20.4288 27.8776C-25.8804 39.1567 -25.588 42.6939 -24.3585 43.6847C-20.9291 46.4938 -18.3849 45.7912 -13.7468 44.5441C-5.78706 42.3995 7.52907 38.8103 39.4545 50.3438C49.0668 53.8231 59.2976 61.5127 70.1017 69.6326C86.1487 81.7296 104.375 95.4412 125.852 99.5293C150.615 104.24 175.489 95.2872 201.975 72.1528C216.141 59.7756 228.444 46.6595 238.607 33.1222C248.236 20.2975 255.991 7.03754 261.681 -6.36138C272.337 -31.4405 275.647 -56.9606 271.316 -80.1956C268.33 -96.1462 261.963 -110.492 252.316 -122.848C242.643 -135.281 230.165 -145.07 215.285 -151.944C200.23 -158.876 182.608 -159.731 162.89 -154.463C152.208 -151.598 141.006 -146.955 129.616 -140.672C119.407 -135.048 109.265 -128.204 99.4057 -120.384C82.1345 -106.619 66.9497 -90.456 59.8287 -78.1833C51.7179 -64.2033 48.8659 -56.997 46.9752 -52.2092C44.6858 -46.3989 43.6252 -43.731 36.4255 -36.5331C36.4244 -36.5078 36.3948 -36.509 36.3938 -36.4837C33.7377 -33.8587 29.9115 -31.5373 25.4785 -28.8615C19.5862 -25.2591 12.6946 -21.1163 6.36164 -14.8196Z" fill="url(#paint24_linear_0_1)"/>
            <path d="M208.778 50.7124C205.287 54.1892 201.651 57.6091 197.869 60.9721C174.038 82.1914 151.516 90.7627 129.012 87.1885C109.445 84.0697 92.7053 72.2727 77.9166 61.8778C67.6378 54.6171 57.9027 47.7854 48.6789 44.906C19.4476 35.3895 6.67594 38.6977 -0.951431 40.679C-5.55781 41.8767 -8.60833 42.6591 -12.2696 39.7386C-14.3599 38.1278 -13.6667 32.9845 -10.1954 24.4354C-7.08666 16.7583 -1.83248 6.63719 4.98699 -4.81164C12.037 -16.8085 21.7401 -23.0625 29.5279 -28.1052C33.2994 -30.5304 36.555 -32.648 38.9028 -34.9819C46.3768 -42.3709 47.513 -44.7313 50.9458 -51.6845C53.2455 -56.3534 56.4182 -62.7599 63.0497 -73.9631C69.8407 -85.4385 84.0638 -100.552 100.143 -113.43C109.332 -120.797 118.835 -127.212 128.319 -132.486C138.984 -138.42 149.406 -142.792 159.37 -145.46C177.324 -150.296 193.387 -149.635 207.143 -143.468C220.957 -137.248 232.585 -128.332 241.622 -116.94C250.633 -105.626 256.638 -92.4877 259.533 -77.8848C263.688 -56.762 260.89 -33.5276 251.423 -10.6544C246.376 1.5295 239.44 13.6326 230.776 25.3322C224.431 33.9867 217.027 42.4944 208.778 50.7124ZM14.208 -15.7013C11.1181 -12.6131 8.15302 -8.98699 5.53931 -4.58515C-8.8667 19.649 -15.5318 36.4802 -11.8662 39.2994C-8.49161 42.0048 -5.73959 41.2857 -1.16382 40.1121C6.55321 38.1092 19.4441 34.7808 48.8798 44.3567C58.1911 47.2652 67.9537 54.1488 78.2904 61.4373C92.9916 71.8032 109.675 83.547 129.095 86.6342C151.394 90.1742 173.736 81.6459 197.382 60.5962C210.111 49.2987 221.183 37.3217 230.286 25.0323C238.89 13.3555 245.824 1.30303 250.869 -10.8556C260.303 -33.6288 263.096 -56.762 258.938 -77.8089C256.07 -92.3598 250.092 -105.421 241.137 -116.657C232.125 -127.946 220.613 -136.806 206.887 -142.997C193.274 -149.081 177.359 -149.737 159.584 -144.944C146.447 -141.397 125.56 -132.984 100.6 -113.031C84.5516 -100.201 70.3898 -85.1362 63.6305 -73.7101C57.0001 -62.5322 53.8569 -56.1244 51.5571 -51.4555C48.1889 -44.6263 46.9259 -42.0685 39.3895 -34.6061C36.9805 -32.2241 33.725 -30.1065 29.9229 -27.6573C25.0571 -24.5435 19.4589 -20.9033 14.208 -15.7013Z" fill="url(#paint25_linear_0_1)"/>
            <path d="M201.663 41.4063C198.975 44.0807 196.169 46.75 193.247 49.3637C172.226 68.5224 152.267 76.6454 132.199 74.1898C114.72 72.073 99.5248 62.1932 86.083 53.5041C76.2683 47.1508 67.0299 41.1518 58.1071 38.843C31.3677 31.2335 19.0486 34.3328 11.6639 36.1724C6.97006 37.341 3.86049 38.1209 0.282428 35.3307C-4.76677 31.6662 3.21571 11.6963 12.7567 -5.29078C18.8196 -16.3409 27.296 -22.267 34.0965 -27.0477C37.176 -29.1982 39.8291 -31.0626 41.9277 -33.1028C50.4489 -41.4614 51.5645 -43.3408 57.6015 -53.7835C59.8699 -57.7183 62.7119 -62.6175 66.9112 -69.5126C71.176 -76.5571 78.5281 -85.2445 87.5971 -93.96C97.7776 -103.769 109.253 -112.737 120.771 -119.927C134.386 -128.423 147.587 -134.172 159.982 -136.964C174.408 -140.227 187.448 -139.441 198.746 -134.571C211.406 -129.035 222.068 -121.048 230.445 -110.825C238.766 -100.656 244.411 -88.8012 247.188 -75.5727C251.171 -56.6633 248.889 -35.7904 240.645 -15.2485C232.701 4.52011 219.612 23.5363 201.663 41.4063ZM22.1513 -16.7816C18.9695 -13.6212 15.9083 -9.82177 13.309 -5.06432C1.94332 15.1666 -3.391 32.0039 0.683576 34.9421C4.03301 37.545 6.84408 36.8284 11.5073 35.6839C18.9522 33.8215 31.3893 30.7273 58.3048 38.3697C67.3162 40.6822 76.6114 46.7344 86.4546 53.1142C99.809 61.7743 114.947 71.601 132.279 73.7114C152.141 76.1329 171.92 68.0529 192.788 49.0398C215.033 28.9444 230.957 7.2602 240.06 -15.4003C248.271 -35.8676 250.52 -56.6405 246.592 -75.4714C243.841 -88.5973 238.252 -100.399 229.959 -110.516C221.638 -120.686 211.033 -128.619 198.46 -134.102C187.308 -138.915 174.415 -139.694 160.108 -136.452C147.802 -133.656 134.662 -127.955 121.107 -119.482C109.62 -112.315 98.1747 -103.372 88.0248 -93.5867C78.9865 -84.8953 71.6955 -76.2559 67.4329 -69.2621C63.2631 -62.3657 60.4211 -57.4665 58.1243 -53.5582C52.0261 -43.0675 50.9389 -41.1615 42.3565 -32.7549C40.2568 -30.6893 37.5731 -28.8008 34.463 -26.6263C30.6523 -23.9746 26.3212 -20.9141 22.1513 -16.7816Z" fill="url(#paint26_linear_0_1)"/>
            <path d="M194.393 32.2459C192.539 34.0938 190.627 35.9391 188.656 37.7567C170.414 54.8535 152.989 62.527 135.389 61.1658C119.998 60.0006 106.924 52.3922 94.2835 45.0305C84.9897 39.6377 76.2165 34.5207 67.5924 32.8334C43.3755 27.1067 31.9584 29.8642 24.4272 31.6722C19.4359 32.8788 16.4466 33.6131 12.8642 30.9242C8.12245 27.6785 11.503 11.569 20.5572 -5.7939C25.6691 -16.0479 32.9789 -21.6689 38.8523 -26.2103C41.0855 -27.9405 43.2258 -29.5733 44.955 -31.2743L45.8491 -32.1236C55.9695 -41.9098 56.8024 -42.711 70.8057 -65.1366C74.7428 -71.4344 81.6261 -79.5333 89.7101 -87.3527C98.9976 -96.3377 109.407 -104.59 119.807 -111.22C132.152 -119.085 144.096 -124.483 155.305 -127.199C168.367 -130.393 180.176 -129.863 190.379 -125.674C201.886 -120.845 211.612 -113.786 219.327 -104.682C226.985 -95.6319 232.213 -85.0627 234.902 -73.2579C238.683 -56.5379 236.947 -38.0759 229.897 -19.8412C222.82 -1.68373 210.921 15.8111 194.393 32.2459ZM30.2893 -18.2592C26.9534 -14.9533 23.7031 -10.883 21.0504 -5.56993C12.2541 11.2969 8.72161 27.5013 13.2041 30.5837C16.5579 33.0854 19.4565 32.3979 24.2684 31.2343C31.4115 29.5112 43.3961 26.6258 67.73 32.3828C76.4416 34.0993 85.2443 39.2175 94.5961 44.6382C107.179 51.972 120.196 59.5272 135.439 60.6862C152.863 62.0145 170.137 54.4106 188.256 37.4099C207.719 19.4271 221.56 0.113472 229.312 -19.993C236.329 -38.1531 238.033 -56.5404 234.277 -73.1579C231.614 -84.9107 226.414 -95.4028 218.812 -104.4C211.182 -113.424 201.513 -120.43 190.094 -125.229C180.007 -129.363 168.346 -129.887 155.402 -126.713C144.283 -123.993 132.4 -118.644 120.085 -110.803C109.716 -104.197 99.3368 -95.9682 90.0788 -86.9819C82.0254 -79.1866 75.1727 -71.1117 71.2662 -64.838C57.2312 -42.363 56.3983 -41.5619 46.2473 -31.7516L45.3532 -30.9023C43.5945 -29.2025 41.4826 -27.5432 39.2198 -25.8142C36.4367 -23.6764 33.3169 -21.2741 30.2893 -18.2592Z" fill="url(#paint27_linear_0_1)"/>
            <path d="M187.151 23.1369C186.131 24.1583 185.113 25.1544 184.035 26.148C149.313 59.9606 124.351 47.4317 102.343 36.3983C93.5976 32.0179 85.3454 27.8614 77.0485 26.822C55.4458 22.9061 44.5098 25.4813 37.2792 27.1754C32.1097 28.3997 28.9728 29.1277 25.4145 26.5666C23.0541 25.0456 21.9357 20.7631 22.3683 14.7973C22.8171 8.4518 24.9396 1.01143 28.3241 -6.19746C32.556 -15.9312 38.6062 -21.1496 43.9503 -25.7644C45.3637 -26.9972 46.7147 -28.1566 47.9181 -29.3222C49.7686 -31.0942 51.4301 -32.5953 52.9068 -33.9268C59.6773 -40.078 63.7401 -43.784 74.6054 -60.613C81.5127 -71.3481 98.2704 -89.0156 118.75 -102.416C129.827 -109.676 140.513 -114.696 150.505 -117.337C162.203 -120.438 172.753 -120.215 181.89 -116.68C192.243 -112.535 201.061 -106.402 208.086 -98.4436C215.083 -90.5119 219.921 -81.2271 222.493 -70.822C226.072 -56.2914 224.882 -40.2151 219.025 -24.3129C212.939 -7.86272 202.228 8.11082 187.151 23.1369ZM38.6612 -20.3612C35.0772 -16.787 31.5461 -12.3736 28.7911 -6.0507C21.5327 9.43652 21.3202 23.3993 25.7249 26.2248C29.0819 28.6505 32.0997 27.9428 37.1194 26.7628C44.4101 25.046 55.4052 22.4733 77.126 26.3942C85.5114 27.4375 93.8227 31.5965 102.597 36.0035C113.745 41.6024 125.271 47.3696 138.451 47.6542C153.464 47.9666 168.233 40.8388 183.634 25.8519C200.344 9.98277 212.071 -6.93625 218.501 -24.4875C224.295 -40.3163 225.512 -56.3408 221.959 -70.7689C219.414 -81.122 214.603 -90.3549 207.662 -98.2082C200.694 -106.113 191.932 -112.193 181.667 -116.309C169.941 -120.842 149.553 -122.044 119.061 -102.073C98.6423 -88.7207 81.9458 -71.1014 75.0702 -60.4157C64.1733 -43.5372 60.0798 -39.8072 53.3083 -33.6307C51.8611 -32.2979 50.1996 -30.7968 48.3491 -29.0249C47.1151 -27.8351 45.764 -26.6758 44.3507 -25.443C42.4804 -23.9001 40.5751 -22.2319 38.6612 -20.3612Z" fill="url(#paint28_linear_0_1)"/>
            <path d="M178.331 15.6601C165.911 28.0359 153.81 34.3396 141.419 34.9761C130.154 35.5594 120.064 31.4765 110.295 27.5341C102.153 24.2445 94.4764 21.1523 86.5047 20.8114C67.607 18.6594 57.2111 21.0548 50.3402 22.6375C44.8437 23.8985 41.557 24.6708 37.966 22.1844C32.8919 19.102 30.9933 6.08863 36.0943 -6.67619C39.6339 -16.8199 45.0586 -21.9383 50.3293 -26.9112L50.9152 -27.4693C53.4718 -29.845 55.7706 -31.7246 57.9776 -33.532C63.9241 -38.3999 69.5339 -43.0033 78.4095 -56.1899C84.8558 -65.829 99.9084 -81.6675 117.697 -93.6869C132.683 -103.823 154.525 -114.503 173.435 -107.786C191.835 -100.913 205.212 -86.5721 210.148 -68.4842C213.496 -56.1695 212.821 -42.4547 208.216 -28.8572C203.144 -13.9865 193.652 0.466957 179.936 14.1059C179.78 14.2767 179.597 14.421 179.442 14.5919C179.072 14.9311 178.702 15.2956 178.331 15.6601ZM47.5566 -23.6319C43.3856 -19.4741 39.3615 -14.6001 36.5624 -6.55474C31.1282 7.08334 33.8936 19.1956 38.2764 21.8427C41.6957 24.195 44.8928 23.4442 50.2394 22.2274C57.1409 20.6208 67.5959 18.2278 86.581 20.409C94.6414 20.7536 102.346 23.8724 110.547 27.1645C120.259 31.0791 130.29 35.1342 141.437 34.5458C154.065 33.9194 166.358 27.2689 179.1 14.273C179.256 14.1022 179.439 13.9579 179.594 13.787C193.249 0.196183 202.739 -14.2067 207.78 -29.028C212.381 -42.5496 213.053 -56.1884 209.732 -68.4512C207.275 -77.406 202.854 -85.3797 196.576 -92.1143C190.269 -98.8755 182.445 -104.053 173.303 -107.462C154.597 -114.119 132.936 -103.508 118.04 -93.4187C100.312 -81.422 85.3206 -65.6316 78.8765 -56.0432C69.9681 -42.7819 64.3288 -38.1797 58.3517 -33.2878C56.1447 -31.4804 53.8459 -29.6008 51.3188 -27.2239L50.7329 -26.6657C49.6246 -25.6481 48.5763 -24.6533 47.5566 -23.6319Z" fill="url(#paint29_linear_0_1)"/>
            <path d="M171.603 6.29412C162.52 15.3386 153.518 20.4055 144.232 21.7581C134.975 23.1119 126.351 20.7145 118.05 18.407C110.946 16.4297 103.58 14.3904 95.9615 14.7746C79.9525 14.2422 70.2137 16.4883 63.7911 17.9633C57.8158 19.356 54.201 20.1904 50.5182 17.7761C45.6104 14.9544 40.5546 3.83458 43.8642 -7.15575C45.7195 -15.2668 48.7067 -20.7938 53.9414 -25.616C56.7418 -28.1588 59.4593 -30.1472 62.3584 -32.2294C68.4625 -36.6341 74.7809 -41.2071 82.3028 -51.7891C88.3483 -60.3549 101.697 -74.3899 116.732 -84.9803C129.755 -94.1606 148.723 -104.025 165.038 -98.8897C181.19 -93.4065 193.191 -81.4572 197.92 -66.1421C201.066 -56.0168 200.907 -44.6888 197.466 -33.3998C193.649 -20.9098 186.057 -8.68257 174.881 2.96032C173.737 4.10323 172.683 5.24994 171.603 6.29412ZM53.3306 -24.4757C48.7279 -19.9054 45.9877 -14.6214 44.2743 -7.06216C41.0303 3.77883 45.946 14.7152 50.7673 17.4824C54.2774 19.7879 57.6232 19.0181 63.6871 17.6292C70.1403 16.1301 79.9086 13.8853 95.9767 14.4203C103.624 14.0373 111.021 16.0779 118.183 18.0577C126.455 20.364 135.02 22.7335 144.158 21.3999C154.427 19.9119 164.361 13.7945 174.478 2.68954C185.623 -8.9293 193.213 -21.1059 196.998 -33.5213C200.435 -44.7344 200.591 -55.9863 197.473 -66.0598C192.768 -81.2471 180.881 -93.0901 164.846 -98.543C148.706 -103.62 129.889 -93.8253 116.957 -84.6918C101.952 -74.1255 88.6633 -60.1133 82.6189 -51.5728C75.0654 -40.9414 68.7459 -36.343 62.6111 -31.9143C59.7416 -29.8309 56.9956 -27.869 54.2247 -25.325C53.9471 -25.0579 53.6388 -24.7668 53.3306 -24.4757Z" fill="url(#paint30_linear_0_1)"/>
            <path d="M83.053 396.915C79.0678 400.878 75.122 404.614 71.2459 408.1C49.8678 427.294 30.8011 438.777 14.504 442.214C-2.15167 445.736 -15.4224 440.655 -25.0184 427.11C-54.082 386.005 -68.0524 356.475 -77.2737 336.936C-81.4231 328.137 -84.7055 321.201 -87.9302 316.372C-93.2656 308.334 -93.3991 290.705 -88.2402 270.36C-82.6905 248.486 -72.3626 228.312 -59.9026 215C-42.7307 196.64 -29.348 172.819 -21.1181 156.055C-11.5575 136.533 -3.38875 114.973 0.690367 98.4371C3.3363 87.7481 10.6386 80.2249 21.7951 76.6448C41.1079 70.4721 69.4937 76.9348 95.8477 93.5551C108.349 101.418 121.251 109.577 133.105 118.046C146.223 127.406 156.555 136.19 164.732 144.857C174.494 155.215 181.498 165.733 186.192 177.015C191.393 189.586 193.608 202.816 192.893 217.442C191.707 242.419 165.293 294.286 128.697 343.563C113.728 363.665 98.1607 381.865 83.053 396.915ZM8.93155 84.8684C5.25572 88.5148 2.69241 93.1217 1.3662 98.5421C-2.7446 115.128 -10.9145 136.712 -20.4772 156.285C-28.7082 173.074 -42.1237 196.971 -59.3568 215.378C-71.7545 228.617 -82.0201 248.718 -87.536 270.492C-92.6589 290.686 -92.5779 308.16 -87.3256 316.068C-84.1031 320.948 -80.7922 327.91 -76.6429 336.709C-67.4205 356.223 -53.4785 385.727 -24.4138 426.806C-15.0137 440.089 -1.9759 445.084 14.3507 441.649C30.4991 438.232 49.4739 426.821 70.7613 407.674C89.4331 390.9 109.258 368.596 128.151 343.185C164.684 294.007 191.033 242.264 192.246 217.364C192.927 202.812 190.769 189.661 185.594 177.167C180.956 165.964 173.979 155.497 164.274 145.193C146.054 125.826 120.361 109.64 95.5035 93.9968C69.3211 77.5107 41.2012 71.0593 22.0983 77.1649C16.7605 78.8638 12.3614 81.4397 8.93155 84.8684Z" fill="url(#paint31_linear_0_1)"/>
            <path d="M76.7791 387.975C73.6279 391.111 70.5138 394.072 67.4358 396.882C47.9542 414.61 30.581 425.227 15.7425 428.447C0.754281 431.711 -11.2423 427.268 -19.896 415.208C-46.3867 378.955 -60.318 351.278 -69.5618 332.955C-73.8969 324.351 -77.304 317.562 -80.5866 312.705C-85.8695 304.821 -86.3427 288.217 -81.8086 269.342C-76.9514 249.138 -67.5065 230.245 -55.8707 217.531C-40.1176 200.531 -27.6766 178.672 -19.9808 163.33C-10.9576 145.307 -3.42414 126.154 0.722199 110.813C3.32484 101.136 10.154 94.3031 20.4665 91.0926C38.3635 85.5186 64.4635 91.4779 88.6015 106.659C111.387 120.972 134.921 135.747 151.981 153.897C160.948 163.46 167.426 173.145 171.743 183.548C176.572 195.14 178.624 207.323 178.049 220.789C177.149 243.901 153.181 291.841 119.792 337.35C105.693 356.5 90.9916 373.799 76.7791 387.975ZM8.21504 98.8352C4.94036 102.093 2.60753 106.152 1.33899 110.916C-2.80953 126.308 -10.344 145.485 -19.3979 163.533C-27.0948 178.9 -39.597 200.806 -55.3817 217.856C-66.9563 230.522 -76.3674 249.315 -81.2213 269.444C-85.7205 288.193 -85.2704 304.644 -80.0717 312.423C-76.7912 317.33 -73.3547 324.121 -69.0206 332.75C-59.8053 351.046 -45.8729 378.698 -19.4107 414.924C-10.8947 426.75 0.838226 431.132 15.528 427.931C30.2472 424.731 47.5297 414.161 66.8899 396.503C83.91 381.002 102.005 360.425 119.185 337.02C152.512 291.585 176.415 243.769 177.341 220.733C177.914 207.344 175.858 195.236 171.086 183.698C166.795 173.371 160.375 163.714 151.435 154.203C134.432 136.107 110.927 121.332 88.2004 107.048C64.2647 91.9766 38.3703 86.0514 20.6832 91.5583C15.6461 93.1433 11.4591 95.6014 8.21504 98.8352Z" fill="url(#paint32_linear_0_1)"/>
            <path d="M70.5364 379.01C68.2192 381.32 65.9053 383.554 63.5967 385.662C46.0423 401.9 30.3626 411.652 16.9817 414.68C3.66089 417.686 -7.03083 413.856 -14.8015 403.28C-38.8866 371.643 -52.2569 346.754 -62.0397 328.586C-66.4785 320.332 -69.9861 313.818 -73.2698 308.986C-78.5843 301.152 -79.3827 285.928 -75.4332 268.271C-71.2685 249.735 -62.6781 232.15 -51.8666 220.035C-25.926 191.679 -6.22024 146.574 0.696748 123.161C3.25718 114.471 9.6416 108.354 19.11 105.514C35.5912 100.538 59.4352 105.995 81.297 119.761C101.002 132.091 123.327 146.079 139.14 162.958C147.344 171.702 153.236 180.576 157.206 190.102C161.633 200.714 163.553 211.826 163.086 224.13C162.778 234.792 157.446 250.894 147.665 270.736C138.272 289.784 125.168 311.234 110.8 331.133C97.6563 349.361 83.8526 365.735 70.5364 379.01ZM7.4686 112.826C4.59614 115.67 2.52224 119.207 1.31137 123.314C-5.60779 146.778 -25.3769 191.981 -51.3787 220.385C-62.1586 232.451 -70.7162 249.962 -74.8481 268.423C-78.7933 285.979 -77.9884 301.05 -72.7581 308.78C-69.4459 313.638 -65.9395 320.178 -61.5006 328.431C-51.7463 346.573 -38.375 371.437 -14.3183 403.047C-6.7161 413.413 3.74267 417.157 16.7945 414.216C30.0562 411.208 45.6452 401.503 63.1373 385.338C78.5352 371.111 94.8407 352.258 110.309 330.859C124.677 310.959 137.75 289.533 147.142 270.511C156.89 250.744 162.191 234.691 162.525 224.106C162.989 211.878 161.066 200.816 156.667 190.257C152.723 180.808 146.83 171.959 138.683 163.268C122.927 146.442 100.63 132.48 80.9538 120.177C59.2353 106.519 35.6265 101.098 19.3257 106.005C14.5313 107.448 10.528 109.762 7.4686 112.826Z" fill="url(#paint33_linear_0_1)"/>
            <path d="M64.3541 370.048C62.8097 371.58 61.298 373.037 59.7874 374.468C44.1306 389.216 30.1433 398.127 18.221 400.939C6.5382 403.685 -2.84871 400.469 -9.67724 391.378C-31.5811 364.07 -44.9889 340.751 -54.8204 323.721C-59.0325 316.39 -62.6953 310.047 -65.9253 305.344C-71.1884 297.69 -72.3538 283.44 -69.0301 267.277C-65.5581 250.411 -57.8211 234.107 -47.8338 222.591C-37.6485 211.286 -27.2266 195.833 -17.7331 177.88C-10.1068 163.473 -3.38315 148.039 0.729465 135.562C3.2772 127.861 9.15677 122.483 17.8118 119.988C32.8761 115.636 54.4344 120.59 74.0517 132.891C94.7092 145.768 112.927 157.603 126.39 172.023C133.799 179.973 139.164 188.012 142.788 196.662C146.814 206.267 148.63 216.361 148.272 227.503C148.09 237.283 143.439 251.994 134.739 270.057C126.428 287.325 114.798 306.834 101.925 324.947C89.6509 342.223 76.7435 357.697 64.3541 370.048ZM6.69501 126.79C4.22369 129.245 2.41089 132.211 1.25768 135.661C-2.85711 148.189 -9.58079 163.623 -17.2377 178.053C-26.7618 196.03 -37.1847 211.509 -47.4007 222.838C-57.3563 234.305 -65.0605 250.533 -68.4998 267.325C-71.7896 283.388 -70.6778 297.508 -65.4706 305.085C-62.2109 309.788 -58.5777 316.131 -54.3372 323.488C-44.5352 340.517 -31.1274 363.835 -9.2509 391.092C-2.56243 399.999 6.61997 403.156 18.0349 400.449C29.8675 397.659 43.7641 388.795 59.3291 374.119C73.1058 361.142 87.6505 344.039 101.406 324.646C114.249 306.532 125.878 287.048 134.188 269.805C142.825 251.816 147.504 237.156 147.684 227.427C148.009 216.36 146.249 206.319 142.221 196.765C138.625 188.167 133.289 180.154 125.906 172.256C112.501 157.863 94.3124 146.055 73.6833 133.204C54.2104 120.986 32.8282 116.066 17.9443 120.348C13.3883 121.751 9.59915 123.897 6.69501 126.79Z" fill="url(#paint34_linear_0_1)"/>
            <path d="M58.2301 361.064C57.4584 361.817 56.7163 362.571 55.9457 363.299C42.1865 376.556 29.9221 384.602 19.4279 387.221C9.41254 389.709 1.33046 387.107 -4.61389 379.474C-24.6483 356.176 -38.2852 334.064 -48.2432 317.917C-52.199 311.51 -55.6011 305.989 -58.6101 301.651C-63.9038 294.02 -65.3934 281.125 -62.6553 266.206C-59.8747 250.983 -52.9933 236.013 -43.8292 225.07C-25.0271 203.864 -7.55577 170.201 0.73405 147.886C3.23958 141.172 8.67439 136.51 16.4865 134.359C30.1339 130.632 49.4066 135.082 66.7783 145.943C84.442 156.892 101.31 167.781 113.581 181.01C120.198 188.14 125.006 195.369 128.282 203.142C131.936 211.767 133.59 220.815 133.371 230.771C133.345 239.695 129.315 253.013 121.756 269.299C114.555 284.814 104.34 302.355 92.9923 318.707C81.6731 335.086 69.6915 349.661 58.2301 361.064ZM5.88895 140.778C3.84938 142.821 2.26597 145.263 1.22947 148.059C-7.06142 170.399 -24.5644 204.112 -43.3982 225.367C-52.5296 236.235 -59.3497 251.158 -62.1271 266.304C-64.8303 281.099 -63.3965 293.915 -58.1575 301.442C-55.119 305.781 -51.7179 311.328 -47.7621 317.735C-37.8031 333.857 -24.1946 355.942 -4.16019 379.239C1.6441 386.689 9.52169 389.232 19.2976 386.81C29.6726 384.211 41.9054 376.214 55.5727 363.029C67.6977 351.326 80.4826 335.948 92.5549 318.562C103.872 302.234 114.057 284.717 121.286 269.228C128.842 252.993 132.841 239.724 132.865 230.85C133.082 220.945 131.425 211.948 127.799 203.375C124.55 195.654 119.77 188.451 113.181 181.373C100.937 168.197 84.0988 157.308 66.4931 146.387C49.2373 135.582 30.1702 131.166 16.6726 134.849C12.274 136.03 8.63898 138.03 5.88895 140.778Z" fill="url(#paint35_linear_0_1)"/>
            <path d="M52.2263 352.059C52.1957 352.083 52.1651 352.107 52.1345 352.131C40.3026 363.898 29.701 371.102 20.6654 373.505C12.3175 375.735 5.51072 373.745 0.480092 367.571C-18.1727 347.933 -32.3681 326.431 -42.7305 310.748C-45.9814 305.842 -48.787 301.589 -51.3255 298.006C-56.5667 290.53 -58.3926 278.585 -56.2826 265.21C-54.165 251.659 -48.1655 237.943 -39.8267 227.624C-31.8001 218.383 -23.6325 206.535 -15.4867 192.43C-9.38312 181.812 -3.46917 170.097 0.736475 160.286C3.19979 154.559 8.19095 150.588 15.1875 148.834C27.3885 145.729 44.3755 149.676 59.5005 159.122C74.3149 168.225 89.6873 178.112 100.769 190.123C106.592 196.433 110.873 202.854 113.802 209.749C117.054 217.394 118.576 225.371 118.466 234.19C118.701 250.125 104.842 281.635 84.0538 312.62C73.7248 327.976 62.7302 341.604 52.2263 352.059ZM5.02493 154.764C3.38759 156.393 2.09372 158.29 1.17394 160.431C-3.03171 170.242 -8.94673 181.983 -15.0799 192.599C-23.2268 206.73 -31.4249 218.602 -39.4526 227.869C-47.7302 238.139 -53.6969 251.78 -55.8123 265.281C-57.8885 278.556 -56.1184 290.423 -50.9024 297.796C-48.3639 301.379 -45.5583 305.632 -42.3074 310.538C-31.945 326.221 -17.7485 347.697 0.875821 367.309C5.76532 373.325 12.3961 375.282 20.5351 373.094C29.4811 370.713 39.9919 363.555 51.7921 351.837C51.8227 351.813 51.8533 351.789 51.8839 351.765C62.3572 341.335 73.3518 327.706 83.6502 312.374C104.404 281.489 118.231 250.054 117.993 234.17C118.101 225.427 116.577 217.475 113.353 209.882C110.451 203.039 106.199 196.644 100.404 190.361C89.3506 178.377 74.0067 168.516 59.2218 159.414C44.2412 150.051 27.4007 146.135 15.3495 149.196C11.1323 150.283 7.65037 152.163 5.02493 154.764Z" fill="url(#paint36_linear_0_1)"/>
            <path d="M46.3093 343.083C37.1957 352.151 28.9969 357.811 21.9294 359.841C15.2206 361.786 9.71968 360.384 5.60277 355.669C-12.2513 339.488 -27.7253 317.451 -39.0173 301.373C-40.8019 298.837 -42.4749 296.458 -43.9816 294.339C-49.284 286.911 -51.3696 276.197 -49.8801 264.191C-48.3862 252.083 -43.3735 239.999 -35.7944 230.155C-30.2478 223.571 -15.6032 204.825 0.739154 172.66C3.16134 167.895 7.73729 164.642 13.9193 163.259C24.7023 160.804 39.3742 164.246 52.1957 172.224C64.304 179.588 78.0378 188.365 87.9573 199.186C98.4425 210.614 103.526 223.155 103.562 237.534C103.817 244.721 101.118 255.256 95.7504 268.035C90.6458 280.191 83.5112 293.477 75.1166 306.482C66.4686 319.881 57.2021 331.834 48.3193 341.039C47.669 341.721 46.9891 342.402 46.3093 343.083ZM4.09995 168.772C2.89544 169.963 1.92064 171.316 1.14601 172.83C-1.46956 177.967 -6.9117 188.334 -13.9728 199.899C-21.3835 212.032 -28.5961 222.298 -35.4499 230.398C-42.9973 240.193 -47.9772 252.202 -49.4689 264.259C-50.9552 276.19 -48.8652 286.802 -43.6197 294.177C-42.0835 296.297 -40.4116 298.701 -38.6554 301.211C-27.3634 317.288 -11.919 339.325 5.90776 355.454L5.9362 355.481C9.94042 360.064 15.2653 361.433 21.7653 359.53C29.163 357.387 38.2252 350.902 47.9736 340.821C56.8554 331.641 66.0913 319.713 74.7382 306.339C83.101 293.384 90.2358 280.097 95.3392 267.967C100.705 255.238 103.402 244.729 103.144 237.618C103.105 223.315 98.0183 210.85 87.6185 199.501C77.7559 188.734 64.0209 179.981 51.9422 172.618C39.2071 164.695 24.6818 161.284 14.019 163.694C9.96032 164.535 6.60188 166.293 4.09995 168.772Z" fill="url(#paint37_linear_0_1)"/>
        </g>
    </g>
    <defs>
        <linearGradient id="paint0_linear_0_1" x1="394.974" y1="169.843" x2="402.267" y2="-0.705" gradientUnits="userSpaceOnUse">
            <stop stop-color="#FF9900" stop-opacity="0.4"/>
            <stop offset="0.206768" stop-color="#FF9900" stop-opacity="0.8"/>
            <stop offset="0.500041" stop-color="#FF9900" stop-opacity="0.4"/>
            <stop offset="0.80293" stop-color="#D90368" stop-opacity="0.6"/>
            <stop offset="1" stop-color="#D6EBFF" stop-opacity="0.7"/>
        </linearGradient>
        <linearGradient id="paint1_linear_0_1" x1="396.556" y1="161.042" x2="403.233" y2="4.88943" gradientUnits="userSpaceOnUse">
            <stop stop-color="#FF9900" stop-opacity="0.4"/>
            <stop offset="0.206768" stop-color="#FF9900" stop-opacity="0.8"/>
            <stop offset="0.500041" stop-color="#FF9900" stop-opacity="0.4"/>
            <stop offset="0.80293" stop-color="#D90368" stop-opacity="0.6"/>
            <stop offset="1" stop-color="#D6EBFF" stop-opacity="0.7"/>
        </linearGradient>
        <linearGradient id="paint2_linear_0_1" x1="356.629" y1="315.605" x2="363.316" y2="159.223" gradientUnits="userSpaceOnUse">
            <stop stop-color="#FF9900" stop-opacity="0.4"/>
            <stop offset="0.206768" stop-color="#FF9900" stop-opacity="0.8"/>
            <stop offset="0.500041" stop-color="#FF9900" stop-opacity="0.4"/>
            <stop offset="0.80293" stop-color="#D90368" stop-opacity="0.6"/>
            <stop offset="1" stop-color="#D6EBFF" stop-opacity="0.7"/>
        </linearGradient>
        <linearGradient id="paint3_linear_0_1" x1="213.86" y1="388.623" x2="225.044" y2="127.091" gradientUnits="userSpaceOnUse">
            <stop stop-color="#FF9900" stop-opacity="0.4"/>
            <stop offset="0.206768" stop-color="#FF9900" stop-opacity="0.8"/>
            <stop offset="0.500041" stop-color="#FF9900" stop-opacity="0.4"/>
            <stop offset="0.80293" stop-color="#D90368" stop-opacity="0.6"/>
            <stop offset="1" stop-color="#D6EBFF" stop-opacity="0.7"/>
        </linearGradient>
        <linearGradient id="paint4_linear_0_1" x1="214.443" y1="378.606" x2="224.627" y2="140.455" gradientUnits="userSpaceOnUse">
            <stop stop-color="#FF9900" stop-opacity="0.4"/>
            <stop offset="0.206768" stop-color="#FF9900" stop-opacity="0.8"/>
            <stop offset="0.500041" stop-color="#FF9900" stop-opacity="0.4"/>
            <stop offset="0.80293" stop-color="#D90368" stop-opacity="0.6"/>
            <stop offset="1" stop-color="#D6EBFF" stop-opacity="0.7"/>
        </linearGradient>
        <linearGradient id="paint5_linear_0_1" x1="215.029" y1="368.686" x2="224.218" y2="153.813" gradientUnits="userSpaceOnUse">
            <stop stop-color="#FF9900" stop-opacity="0.4"/>
            <stop offset="0.206768" stop-color="#FF9900" stop-opacity="0.8"/>
            <stop offset="0.500041" stop-color="#FF9900" stop-opacity="0.4"/>
            <stop offset="0.80293" stop-color="#D90368" stop-opacity="0.6"/>
            <stop offset="1" stop-color="#D6EBFF" stop-opacity="0.7"/>
        </linearGradient>
        <linearGradient id="paint6_linear_0_1" x1="215.682" y1="358.807" x2="223.879" y2="167.109" gradientUnits="userSpaceOnUse">
            <stop stop-color="#FF9900" stop-opacity="0.4"/>
            <stop offset="0.206768" stop-color="#FF9900" stop-opacity="0.8"/>
            <stop offset="0.500041" stop-color="#FF9900" stop-opacity="0.4"/>
            <stop offset="0.80293" stop-color="#D90368" stop-opacity="0.6"/>
            <stop offset="1" stop-color="#D6EBFF" stop-opacity="0.7"/>
        </linearGradient>
        <linearGradient id="paint7_linear_0_1" x1="286.225" y1="152.517" x2="302.038" y2="-217.275" gradientUnits="userSpaceOnUse">
            <stop stop-color="#FF9900" stop-opacity="0.4"/>
            <stop offset="0.206768" stop-color="#FF9900" stop-opacity="0.8"/>
            <stop offset="0.500041" stop-color="#FF9900" stop-opacity="0.4"/>
            <stop offset="0.80293" stop-color="#D90368" stop-opacity="0.6"/>
            <stop offset="1" stop-color="#D6EBFF" stop-opacity="0.7"/>
        </linearGradient>
        <linearGradient id="paint8_linear_0_1" x1="290.733" y1="137.922" x2="305.321" y2="-203.211" gradientUnits="userSpaceOnUse">
            <stop stop-color="#FF9900" stop-opacity="0.4"/>
            <stop offset="0.206768" stop-color="#FF9900" stop-opacity="0.8"/>
            <stop offset="0.500041" stop-color="#FF9900" stop-opacity="0.4"/>
            <stop offset="0.80293" stop-color="#D90368" stop-opacity="0.6"/>
            <stop offset="1" stop-color="#D6EBFF" stop-opacity="0.7"/>
        </linearGradient>
        <linearGradient id="paint9_linear_0_1" x1="295.391" y1="123.309" x2="308.754" y2="-189.19" gradientUnits="userSpaceOnUse">
            <stop stop-color="#FF9900" stop-opacity="0.4"/>
            <stop offset="0.206768" stop-color="#FF9900" stop-opacity="0.8"/>
            <stop offset="0.500041" stop-color="#FF9900" stop-opacity="0.4"/>
            <stop offset="0.80293" stop-color="#D90368" stop-opacity="0.6"/>
            <stop offset="1" stop-color="#D6EBFF" stop-opacity="0.7"/>
        </linearGradient>
        <linearGradient id="paint10_linear_0_1" x1="299.936" y1="108.651" x2="312.073" y2="-175.177" gradientUnits="userSpaceOnUse">
            <stop stop-color="#FF9900" stop-opacity="0.4"/>
            <stop offset="0.206768" stop-color="#FF9900" stop-opacity="0.8"/>
            <stop offset="0.500041" stop-color="#FF9900" stop-opacity="0.4"/>
            <stop offset="0.80293" stop-color="#D90368" stop-opacity="0.6"/>
            <stop offset="1" stop-color="#D6EBFF" stop-opacity="0.7"/>
        </linearGradient>
        <linearGradient id="paint11_linear_0_1" x1="304.571" y1="94.0985" x2="315.488" y2="-161.191" gradientUnits="userSpaceOnUse">
            <stop stop-color="#FF9900" stop-opacity="0.4"/>
            <stop offset="0.206768" stop-color="#FF9900" stop-opacity="0.8"/>
            <stop offset="0.500041" stop-color="#FF9900" stop-opacity="0.4"/>
            <stop offset="0.80293" stop-color="#D90368" stop-opacity="0.6"/>
            <stop offset="1" stop-color="#D6EBFF" stop-opacity="0.7"/>
        </linearGradient>
        <linearGradient id="paint12_linear_0_1" x1="309.228" y1="79.4466" x2="318.92" y2="-147.213" gradientUnits="userSpaceOnUse">
            <stop stop-color="#FF9900" stop-opacity="0.4"/>
            <stop offset="0.206768" stop-color="#FF9900" stop-opacity="0.8"/>
            <stop offset="0.500041" stop-color="#FF9900" stop-opacity="0.4"/>
            <stop offset="0.80293" stop-color="#D90368" stop-opacity="0.6"/>
            <stop offset="1" stop-color="#D6EBFF" stop-opacity="0.7"/>
        </linearGradient>
        <linearGradient id="paint13_linear_0_1" x1="313.905" y1="64.8596" x2="322.377" y2="-133.25" gradientUnits="userSpaceOnUse">
            <stop stop-color="#FF9900" stop-opacity="0.4"/>
            <stop offset="0.206768" stop-color="#FF9900" stop-opacity="0.8"/>
            <stop offset="0.500041" stop-color="#FF9900" stop-opacity="0.4"/>
            <stop offset="0.80293" stop-color="#D90368" stop-opacity="0.6"/>
            <stop offset="1" stop-color="#D6EBFF" stop-opacity="0.7"/>
        </linearGradient>
        <linearGradient id="paint14_linear_0_1" x1="318.627" y1="50.2624" x2="325.882" y2="-119.409" gradientUnits="userSpaceOnUse">
            <stop stop-color="#FF9900" stop-opacity="0.4"/>
            <stop offset="0.206768" stop-color="#FF9900" stop-opacity="0.8"/>
            <stop offset="0.500041" stop-color="#FF9900" stop-opacity="0.4"/>
            <stop offset="0.80293" stop-color="#D90368" stop-opacity="0.6"/>
            <stop offset="1" stop-color="#D6EBFF" stop-opacity="0.7"/>
        </linearGradient>
        <linearGradient id="paint15_linear_0_1" x1="323.296" y1="35.6791" x2="329.341" y2="-105.689" gradientUnits="userSpaceOnUse">
            <stop stop-color="#FF9900" stop-opacity="0.4"/>
            <stop offset="0.206768" stop-color="#FF9900" stop-opacity="0.8"/>
            <stop offset="0.500041" stop-color="#FF9900" stop-opacity="0.4"/>
            <stop offset="0.80293" stop-color="#D90368" stop-opacity="0.6"/>
            <stop offset="1" stop-color="#D6EBFF" stop-opacity="0.7"/>
        </linearGradient>
        <linearGradient id="paint16_linear_0_1" x1="-57.8139" y1="228.377" x2="-50.521" y2="57.8291" gradientUnits="userSpaceOnUse">
            <stop stop-color="#FF9900" stop-opacity="0.4"/>
            <stop offset="0.206768" stop-color="#FF9900" stop-opacity="0.8"/>
            <stop offset="0.500041" stop-color="#FF9900" stop-opacity="0.4"/>
            <stop offset="0.80293" stop-color="#D90368" stop-opacity="0.6"/>
            <stop offset="1" stop-color="#D6EBFF" stop-opacity="0.7"/>
        </linearGradient>
        <linearGradient id="paint17_linear_0_1" x1="-18.8648" y1="68.4481" x2="-12.1777" y2="-87.9337" gradientUnits="userSpaceOnUse">
            <stop stop-color="#FF9900" stop-opacity="0.4"/>
            <stop offset="0.206768" stop-color="#FF9900" stop-opacity="0.8"/>
            <stop offset="0.500041" stop-color="#FF9900" stop-opacity="0.4"/>
            <stop offset="0.80293" stop-color="#D90368" stop-opacity="0.6"/>
            <stop offset="1" stop-color="#D6EBFF" stop-opacity="0.7"/>
        </linearGradient>
        <linearGradient id="paint18_linear_0_1" x1="-20.2952" y1="61.2114" x2="-14.1036" y2="-83.5829" gradientUnits="userSpaceOnUse">
            <stop stop-color="#FF9900" stop-opacity="0.4"/>
            <stop offset="0.206768" stop-color="#FF9900" stop-opacity="0.8"/>
            <stop offset="0.500041" stop-color="#FF9900" stop-opacity="0.4"/>
            <stop offset="0.80293" stop-color="#D90368" stop-opacity="0.6"/>
            <stop offset="1" stop-color="#D6EBFF" stop-opacity="0.7"/>
        </linearGradient>
        <linearGradient id="paint19_linear_0_1" x1="-21.7827" y1="53.9978" x2="-16.086" y2="-79.222" gradientUnits="userSpaceOnUse">
            <stop stop-color="#FF9900" stop-opacity="0.4"/>
            <stop offset="0.206768" stop-color="#FF9900" stop-opacity="0.8"/>
            <stop offset="0.500041" stop-color="#FF9900" stop-opacity="0.4"/>
            <stop offset="0.80293" stop-color="#D90368" stop-opacity="0.6"/>
            <stop offset="1" stop-color="#D6EBFF" stop-opacity="0.7"/>
        </linearGradient>
        <linearGradient id="paint20_linear_0_1" x1="-23.3282" y1="46.7568" x2="-18.1231" y2="-74.9657" gradientUnits="userSpaceOnUse">
            <stop stop-color="#FF9900" stop-opacity="0.4"/>
            <stop offset="0.206768" stop-color="#FF9900" stop-opacity="0.8"/>
            <stop offset="0.500041" stop-color="#FF9900" stop-opacity="0.4"/>
            <stop offset="0.80293" stop-color="#D90368" stop-opacity="0.6"/>
            <stop offset="1" stop-color="#D6EBFF" stop-opacity="0.7"/>
        </linearGradient>
        <linearGradient id="paint21_linear_0_1" x1="-24.9841" y1="39.5604" x2="-20.2718" y2="-70.6387" gradientUnits="userSpaceOnUse">
            <stop stop-color="#FF9900" stop-opacity="0.4"/>
            <stop offset="0.206768" stop-color="#FF9900" stop-opacity="0.8"/>
            <stop offset="0.500041" stop-color="#FF9900" stop-opacity="0.4"/>
            <stop offset="0.80293" stop-color="#D90368" stop-opacity="0.6"/>
            <stop offset="1" stop-color="#D6EBFF" stop-opacity="0.7"/>
        </linearGradient>
        <linearGradient id="paint22_linear_0_1" x1="-26.6424" y1="32.3405" x2="-22.418" y2="-66.449" gradientUnits="userSpaceOnUse">
            <stop stop-color="#FF9900" stop-opacity="0.4"/>
            <stop offset="0.206768" stop-color="#FF9900" stop-opacity="0.8"/>
            <stop offset="0.500041" stop-color="#FF9900" stop-opacity="0.4"/>
            <stop offset="0.80293" stop-color="#D90368" stop-opacity="0.6"/>
            <stop offset="1" stop-color="#D6EBFF" stop-opacity="0.7"/>
        </linearGradient>
        <linearGradient id="paint23_linear_0_1" x1="-28.3091" y1="25.2008" x2="-24.569" y2="-62.2624" gradientUnits="userSpaceOnUse">
            <stop stop-color="#FF9900" stop-opacity="0.4"/>
            <stop offset="0.206768" stop-color="#FF9900" stop-opacity="0.8"/>
            <stop offset="0.500041" stop-color="#FF9900" stop-opacity="0.4"/>
            <stop offset="0.80293" stop-color="#D90368" stop-opacity="0.6"/>
            <stop offset="1" stop-color="#D6EBFF" stop-opacity="0.7"/>
        </linearGradient>
        <linearGradient id="paint24_linear_0_1" x1="119.408" y1="100.581" x2="130.591" y2="-160.952" gradientUnits="userSpaceOnUse">
            <stop stop-color="#FF9900" stop-opacity="0.4"/>
            <stop offset="0.206768" stop-color="#FF9900" stop-opacity="0.8"/>
            <stop offset="0.500041" stop-color="#FF9900" stop-opacity="0.4"/>
            <stop offset="0.80293" stop-color="#D90368" stop-opacity="0.6"/>
            <stop offset="1" stop-color="#D6EBFF" stop-opacity="0.7"/>
        </linearGradient>
        <linearGradient id="paint25_linear_0_1" x1="119.825" y1="87.2162" x2="130.009" y2="-150.934" gradientUnits="userSpaceOnUse">
            <stop stop-color="#FF9900" stop-opacity="0.4"/>
            <stop offset="0.206768" stop-color="#FF9900" stop-opacity="0.8"/>
            <stop offset="0.500041" stop-color="#FF9900" stop-opacity="0.4"/>
            <stop offset="0.80293" stop-color="#D90368" stop-opacity="0.6"/>
            <stop offset="1" stop-color="#D6EBFF" stop-opacity="0.7"/>
        </linearGradient>
        <linearGradient id="paint26_linear_0_1" x1="120.233" y1="73.8588" x2="129.421" y2="-141.014" gradientUnits="userSpaceOnUse">
            <stop stop-color="#FF9900" stop-opacity="0.4"/>
            <stop offset="0.206768" stop-color="#FF9900" stop-opacity="0.8"/>
            <stop offset="0.500041" stop-color="#FF9900" stop-opacity="0.4"/>
            <stop offset="0.80293" stop-color="#D90368" stop-opacity="0.6"/>
            <stop offset="1" stop-color="#D6EBFF" stop-opacity="0.7"/>
        </linearGradient>
        <linearGradient id="paint27_linear_0_1" x1="120.571" y1="60.563" x2="128.768" y2="-131.136" gradientUnits="userSpaceOnUse">
            <stop stop-color="#FF9900" stop-opacity="0.4"/>
            <stop offset="0.206768" stop-color="#FF9900" stop-opacity="0.8"/>
            <stop offset="0.500041" stop-color="#FF9900" stop-opacity="0.4"/>
            <stop offset="0.80293" stop-color="#D90368" stop-opacity="0.6"/>
            <stop offset="1" stop-color="#D6EBFF" stop-opacity="0.7"/>
        </linearGradient>
        <linearGradient id="paint28_linear_0_1" x1="120.609" y1="47.3395" x2="127.815" y2="-121.191" gradientUnits="userSpaceOnUse">
            <stop stop-color="#FF9900" stop-opacity="0.4"/>
            <stop offset="0.206768" stop-color="#FF9900" stop-opacity="0.8"/>
            <stop offset="0.500041" stop-color="#FF9900" stop-opacity="0.4"/>
            <stop offset="0.80293" stop-color="#D90368" stop-opacity="0.6"/>
            <stop offset="1" stop-color="#D6EBFF" stop-opacity="0.7"/>
        </linearGradient>
        <linearGradient id="paint29_linear_0_1" x1="120.275" y1="34.26" x2="126.503" y2="-111.389" gradientUnits="userSpaceOnUse">
            <stop stop-color="#FF9900" stop-opacity="0.4"/>
            <stop offset="0.206768" stop-color="#FF9900" stop-opacity="0.8"/>
            <stop offset="0.500041" stop-color="#FF9900" stop-opacity="0.4"/>
            <stop offset="0.80293" stop-color="#D90368" stop-opacity="0.6"/>
            <stop offset="1" stop-color="#D6EBFF" stop-opacity="0.7"/>
        </linearGradient>
        <linearGradient id="paint30_linear_0_1" x1="119.47" y1="22.0422" x2="124.759" y2="-101.647" gradientUnits="userSpaceOnUse">
            <stop stop-color="#FF9900" stop-opacity="0.4"/>
            <stop offset="0.206768" stop-color="#FF9900" stop-opacity="0.8"/>
            <stop offset="0.500041" stop-color="#FF9900" stop-opacity="0.4"/>
            <stop offset="0.80293" stop-color="#D90368" stop-opacity="0.6"/>
            <stop offset="1" stop-color="#D6EBFF" stop-opacity="0.7"/>
        </linearGradient>
        <linearGradient id="paint31_linear_0_1" x1="42.384" y1="444.945" x2="58.1969" y2="75.1536" gradientUnits="userSpaceOnUse">
            <stop stop-color="#FF9900" stop-opacity="0.4"/>
            <stop offset="0.206768" stop-color="#FF9900" stop-opacity="0.8"/>
            <stop offset="0.500041" stop-color="#FF9900" stop-opacity="0.4"/>
            <stop offset="0.80293" stop-color="#D90368" stop-opacity="0.6"/>
            <stop offset="1" stop-color="#D6EBFF" stop-opacity="0.7"/>
        </linearGradient>
        <linearGradient id="paint32_linear_0_1" x1="39.0991" y1="430.907" x2="53.6865" y2="89.7735" gradientUnits="userSpaceOnUse">
            <stop stop-color="#FF9900" stop-opacity="0.4"/>
            <stop offset="0.206768" stop-color="#FF9900" stop-opacity="0.8"/>
            <stop offset="0.500041" stop-color="#FF9900" stop-opacity="0.4"/>
            <stop offset="0.80293" stop-color="#D90368" stop-opacity="0.6"/>
            <stop offset="1" stop-color="#D6EBFF" stop-opacity="0.7"/>
        </linearGradient>
        <linearGradient id="paint33_linear_0_1" x1="35.6972" y1="416.862" x2="49.0602" y2="104.363" gradientUnits="userSpaceOnUse">
            <stop stop-color="#FF9900" stop-opacity="0.4"/>
            <stop offset="0.206768" stop-color="#FF9900" stop-opacity="0.8"/>
            <stop offset="0.500041" stop-color="#FF9900" stop-opacity="0.4"/>
            <stop offset="0.80293" stop-color="#D90368" stop-opacity="0.6"/>
            <stop offset="1" stop-color="#D6EBFF" stop-opacity="0.7"/>
        </linearGradient>
        <linearGradient id="paint34_linear_0_1" x1="32.3803" y1="402.849" x2="44.5173" y2="119.021" gradientUnits="userSpaceOnUse">
            <stop stop-color="#FF9900" stop-opacity="0.4"/>
            <stop offset="0.206768" stop-color="#FF9900" stop-opacity="0.8"/>
            <stop offset="0.500041" stop-color="#FF9900" stop-opacity="0.4"/>
            <stop offset="0.80293" stop-color="#D90368" stop-opacity="0.6"/>
            <stop offset="1" stop-color="#D6EBFF" stop-opacity="0.7"/>
        </linearGradient>
        <linearGradient id="paint35_linear_0_1" x1="28.9637" y1="388.863" x2="39.8803" y2="133.574" gradientUnits="userSpaceOnUse">
            <stop stop-color="#FF9900" stop-opacity="0.4"/>
            <stop offset="0.206768" stop-color="#FF9900" stop-opacity="0.8"/>
            <stop offset="0.500041" stop-color="#FF9900" stop-opacity="0.4"/>
            <stop offset="0.80293" stop-color="#D90368" stop-opacity="0.6"/>
            <stop offset="1" stop-color="#D6EBFF" stop-opacity="0.7"/>
        </linearGradient>
        <linearGradient id="paint36_linear_0_1" x1="25.5304" y1="374.885" x2="35.2227" y2="148.226" gradientUnits="userSpaceOnUse">
            <stop stop-color="#FF9900" stop-opacity="0.4"/>
            <stop offset="0.206768" stop-color="#FF9900" stop-opacity="0.8"/>
            <stop offset="0.500041" stop-color="#FF9900" stop-opacity="0.4"/>
            <stop offset="0.80293" stop-color="#D90368" stop-opacity="0.6"/>
            <stop offset="1" stop-color="#D6EBFF" stop-opacity="0.7"/>
        </linearGradient>
        <linearGradient id="paint37_linear_0_1" x1="22.0737" y1="360.947" x2="30.5452" y2="162.837" gradientUnits="userSpaceOnUse">
            <stop stop-color="#FF9900" stop-opacity="0.4"/>
            <stop offset="0.206768" stop-color="#FF9900" stop-opacity="0.8"/>
            <stop offset="0.500041" stop-color="#FF9900" stop-opacity="0.4"/>
            <stop offset="0.80293" stop-color="#D90368" stop-opacity="0.6"/>
            <stop offset="1" stop-color="#D6EBFF" stop-opacity="0.7"/>
        </linearGradient>
    </defs>
</svg>
