<svg width="20" height="20" viewBox="0 0 20 20" fill="none" xmlns="http://www.w3.org/2000/svg">
<path d="M10 1.803C12.67 1.803 12.986 1.813 14.041 1.862C15.016 1.906 15.545 2.069 15.898 2.206C16.333 2.366 16.726 2.622 17.049 2.954C17.381 3.277 17.637 3.67 17.797 4.105C17.934 4.458 18.097 4.987 18.142 5.962C18.189 7.017 18.2 7.332 18.2 10.003C18.2 12.673 18.19 12.989 18.142 14.044C18.097 15.019 17.934 15.549 17.797 15.901C17.6307 16.3323 17.376 16.7241 17.0493 17.0511C16.7226 17.3781 16.3311 17.6332 15.9 17.8C15.548 17.937 15.018 18.1 14.044 18.144C12.989 18.192 12.673 18.202 10.003 18.202C7.333 18.202 7.016 18.192 5.962 18.144C4.987 18.1 4.457 17.937 4.105 17.8C3.67021 17.6399 3.27688 17.3843 2.954 17.052C2.62132 16.7292 2.36536 16.3359 2.205 15.901C2.068 15.548 1.905 15.018 1.861 14.044C1.813 12.989 1.803 12.673 1.803 10.003C1.803 7.333 1.813 7.016 1.861 5.962C1.906 4.987 2.068 4.457 2.205 4.105C2.36486 3.66986 2.62089 3.27641 2.954 2.954C3.27647 2.62144 3.66946 2.36549 4.104 2.205C4.457 2.068 4.987 1.905 5.962 1.861C7.016 1.813 7.332 1.803 10.002 1.803H10ZM10.002 0C7.286 0 6.945 0.0119999 5.878 0.0599999C4.812 0.11 4.085 0.28 3.45 0.526C2.78253 0.777397 2.17784 1.1712 1.678 1.68C1.16956 2.17994 0.776104 2.78462 0.525 3.452C0.278 4.087 0.109 4.815 0.0599999 5.879C0.0119999 6.943 0 7.286 0 10.002C0 12.717 0.0119999 13.058 0.0599999 14.125C0.11 15.191 0.278 15.916 0.525 16.551C0.776075 17.2184 1.16953 17.8231 1.678 18.323C2.178 18.831 2.783 19.225 3.45 19.476C4.085 19.724 4.813 19.893 5.878 19.941C6.942 19.99 7.285 20.001 10.001 20.001C12.717 20.001 13.057 19.991 14.124 19.941C15.191 19.892 15.914 19.724 16.55 19.476C17.2145 19.2193 17.818 18.8264 18.3217 18.3227C18.8254 17.819 19.2183 17.2155 19.475 16.551C19.722 15.916 19.891 15.188 19.94 14.124C19.988 13.06 20 12.717 20 10.001C20 7.285 19.988 6.944 19.94 5.878C19.89 4.811 19.722 4.087 19.475 3.452C19.224 2.78486 18.8305 2.18048 18.322 1.681C17.8223 1.17183 17.2176 0.77769 16.55 0.526C15.915 0.279 15.187 0.11 14.122 0.062C13.058 0.014 12.716 0.00200009 10 0.00200009L10.002 0Z" fill="black"/>
<path d="M9.99828 4.86784C8.63639 4.86784 7.33029 5.40885 6.36729 6.37185C5.40429 7.33485 4.86328 8.64096 4.86328 10.0028C4.86328 11.3647 5.40429 12.6708 6.36729 13.6338C7.33029 14.5968 8.63639 15.1378 9.99828 15.1378C11.3602 15.1378 12.6663 14.5968 13.6293 13.6338C14.5923 12.6708 15.1333 11.3647 15.1333 10.0028C15.1333 8.64096 14.5923 7.33485 13.6293 6.37185C12.6663 5.40885 11.3602 4.86784 9.99828 4.86784ZM9.99828 13.3378C9.11378 13.3378 8.26551 12.9865 7.64008 12.361C7.01465 11.7356 6.66328 10.8873 6.66328 10.0028C6.66328 9.11835 7.01465 8.27008 7.64008 7.64464C8.26551 7.01921 9.11378 6.66784 9.99828 6.66784C10.8828 6.66784 11.731 7.01921 12.3565 7.64464C12.9819 8.27008 13.3333 9.11835 13.3333 10.0028C13.3333 10.8873 12.9819 11.7356 12.3565 12.361C11.731 12.9865 10.8828 13.3378 9.99828 13.3378ZM15.3363 5.86484C15.6545 5.86484 15.9598 5.73842 16.1848 5.51337C16.4099 5.28833 16.5363 4.9831 16.5363 4.66484C16.5363 4.34658 16.4099 4.04136 16.1848 3.81632C15.9598 3.59127 15.6545 3.46484 15.3363 3.46484C15.018 3.46484 14.7128 3.59127 14.4878 3.81632C14.2627 4.04136 14.1363 4.34658 14.1363 4.66484C14.1363 4.9831 14.2627 5.28833 14.4878 5.51337C14.7128 5.73842 15.018 5.86484 15.3363 5.86484Z" fill="black"/>
</svg>
