<svg width="20" height="20" viewBox="0 0 20 20" fill="none" xmlns="http://www.w3.org/2000/svg">
<path d="M11.75 10L19.625 2.125C20.125 1.625 20.125 0.875 19.625 0.375C19.125 -0.125 18.375 -0.125 17.875 0.375L10 8.25L2.125 0.375C1.625 -0.125 0.875 -0.125 0.375 0.375C-0.125 0.875 -0.125 1.625 0.375 2.125L8.25 10L0.375 17.875C0.125 18.125 0 18.375 0 18.75C0 19.5 0.5 20 1.25 20C1.625 20 1.875 19.875 2.125 19.625L10 11.75L17.875 19.625C18.125 19.875 18.375 20 18.75 20C19.125 20 19.375 19.875 19.625 19.625C20.125 19.125 20.125 18.375 19.625 17.875L11.75 10Z" fill="#230C33"/>
</svg>
