<svg width="24" height="30" viewBox="0 0 24 30" fill="none" xmlns="http://www.w3.org/2000/svg">
<path fill-rule="evenodd" clip-rule="evenodd" d="M12 4.02887C16.3469 4.02887 19.8707 7.59168 19.8707 11.9867C19.8707 16.3817 16.3468 19.9445 12 19.9445C7.65325 19.9445 4.12941 16.3816 4.12941 11.9867C4.12941 7.59174 7.65325 4.02887 12 4.02887ZM9.5401 24.87C8.09047 25.2271 6.59398 24.6353 5.76832 23.3588L4.72618 21.7476C4.57312 21.511 4.39905 21.3484 4.16322 21.2252L1.44014 27.1389C1.36306 27.3062 1.50338 27.4912 1.68314 27.4594L5.09793 26.8562L6.83958 29.8865C6.93119 30.0458 7.16169 30.0353 7.23859 29.8682L9.5401 24.87ZM14.46 24.87L16.7615 29.8682C16.8384 30.0353 17.069 30.0458 17.1605 29.8865L18.9022 26.8562L22.317 27.4594C22.4967 27.4912 22.6371 27.3062 22.56 27.1389L19.8369 21.2252C19.601 21.3483 19.4269 21.511 19.2739 21.7475L18.2318 23.3587C17.406 24.6353 15.9096 25.227 14.46 24.87ZM13.5162 0.518062C12.6035 -0.172687 11.3966 -0.172687 10.4839 0.518062L8.95953 1.67169C8.54265 1.98719 8.10382 2.14868 7.58389 2.17793L5.68283 2.28487C4.5445 2.34887 3.61993 3.13325 3.35994 4.25556L2.92568 6.12993C2.80688 6.64255 2.57346 7.05143 2.19373 7.41174L0.805362 8.72924C-0.025929 9.51811 -0.235482 10.7198 0.27882 11.7485L1.1378 13.4667C1.3727 13.9365 1.4538 14.4015 1.39199 14.9243L1.16599 16.8359C1.03068 17.9804 1.63412 19.0372 2.68213 19.491L4.43243 20.249C4.91113 20.4562 5.26885 20.7597 5.55382 21.2003L6.59596 22.8115C7.21999 23.7762 8.35405 24.1936 9.44539 23.8601L11.268 23.3032C11.7665 23.1508 12.2334 23.1508 12.7319 23.3032L14.5545 23.8601C15.6459 24.1936 16.78 23.7762 17.404 22.8115L18.4461 21.2003C18.7311 20.7597 19.0889 20.4562 19.5676 20.249L21.3179 19.4911C22.3659 19.0373 22.9693 17.9805 22.834 16.8359L22.608 14.9244C22.5462 14.4015 22.6273 13.9366 22.8622 13.4667L23.7212 11.7486C24.2355 10.7199 24.0259 9.51818 23.1946 8.7293L21.8063 7.4118C21.4266 7.05149 21.1931 6.64262 21.0743 6.12999L20.6401 4.25562C20.38 3.13331 19.4555 2.34893 18.3172 2.28493L16.4161 2.178C15.8962 2.14875 15.4574 1.98731 15.0405 1.67175L13.5162 0.518062ZM12.9906 9.83861C13.0153 9.77518 13.0525 9.71753 13.1001 9.66924C13.2922 9.4748 13.5003 9.16036 13.5381 8.8833V7.58887C13.5381 6.43155 12.6016 5.48506 11.457 5.48506V7.23937C11.457 8.69693 10.1625 9.35736 9.14763 10.1279L9.14676 15.9072C10.4344 17.1541 11.6772 16.8724 13.8924 16.4867C13.9738 16.5132 14.0588 16.5267 14.1443 16.5266H15.4791C15.9338 16.5266 16.3059 16.1504 16.3059 15.6907C16.3059 15.2309 15.9338 14.8546 15.4791 14.8546H15.9722C16.427 14.8545 16.7991 14.4784 16.7991 14.0185C16.7991 13.5587 16.427 13.1825 15.9722 13.1825H16.5524C17.0072 13.1825 17.3792 12.8064 17.3792 12.3465C17.3792 11.8867 17.0072 11.5105 16.5524 11.5105H16.2041C16.6589 11.5105 17.0309 11.1344 17.0309 10.6746C17.0309 10.2147 16.6588 9.83861 16.2041 9.83855L12.9906 9.83861ZM8.15741 15.9072L8.1623 10.1286H6.94404V15.9072H8.15741Z" fill="black"/>
</svg>
