<svg width="10" height="10" viewBox="0 0 10 10" fill="none" xmlns="http://www.w3.org/2000/svg">
<path d="M9.92374 2.86394L7.11023 0.0755706C7.08607 0.0516126 7.05738 0.0326073 7.0258 0.0196407C6.99423 0.00667398 6.96038 0 6.9262 0C6.89202 0 6.85818 0.00667398 6.8266 0.0196407C6.79503 0.0326073 6.76634 0.0516126 6.74218 0.0755706L6.73026 0.0873853C6.64517 0.171238 6.57771 0.270984 6.53178 0.38085C6.48585 0.490716 6.46236 0.608519 6.46268 0.727441C6.46268 0.883199 6.50261 1.03266 6.57679 1.1652L3.63293 3.66914C3.40762 3.46958 3.12005 3.36036 2.81546 3.36036C2.65405 3.35991 2.49415 3.39121 2.34502 3.45243C2.19589 3.51365 2.06049 3.60358 1.94667 3.71702L1.92903 3.73451C1.90485 3.75845 1.88567 3.78689 1.87259 3.81818C1.85951 3.84947 1.85277 3.88301 1.85277 3.91689C1.85277 3.95076 1.85951 3.9843 1.87259 4.0156C1.88567 4.04689 1.90485 4.07532 1.92903 4.09927L3.61455 5.76973L1.97296 7.39659C1.94011 7.43008 1.1631 8.22362 0.652258 8.85511C0.165778 9.45632 0.0695754 9.56647 0.0645779 9.57214C0.021063 9.62129 -0.00197441 9.68499 0.000132788 9.75035C0.00223999 9.8157 0.0293343 9.87781 0.0759264 9.92411C0.100092 9.9482 0.128833 9.96731 0.160489 9.98033C0.192145 9.99336 0.226091 10 0.260367 10C0.321431 10 0.382651 9.97885 0.431897 9.93618C0.436218 9.93246 0.54481 9.83893 1.1554 9.35375C1.79248 8.84748 2.59318 8.07736 2.62957 8.04222L4.2685 6.41794L5.86376 7.99893C5.91457 8.04934 5.9812 8.07452 6.04778 8.07452C6.11436 8.07452 6.18105 8.04934 6.2318 7.99893L6.24945 7.98144C6.36391 7.86864 6.45465 7.73445 6.51642 7.58666C6.57819 7.43886 6.60977 7.28039 6.60933 7.12042C6.61013 6.82147 6.49913 6.53284 6.29776 6.31026L8.82428 3.39271C8.9594 3.46706 9.11144 3.50599 9.26599 3.5058C9.50998 3.5058 9.73935 3.41164 9.91182 3.24061L9.92374 3.2288C9.94792 3.20484 9.9671 3.1764 9.98018 3.1451C9.99327 3.1138 10 3.08025 10 3.04637C10 3.01249 9.99327 2.97894 9.98018 2.94763C9.9671 2.91633 9.94792 2.88789 9.92374 2.86394Z" fill="#D6EBFF"/>
</svg>
