<svg width="347" height="352" viewBox="0 0 347 352" fill="none" xmlns="http://www.w3.org/2000/svg">
    <rect width="347" height="352" rx="10" fill="#FF9900"/>
    <path d="M337 0H90C44.4 4.8 11 38.6667 0 55V309C36.3333 276.333 87.1936 208.299 225.5 254C283 273 335.5 237.5 347 202V10C347 4.47715 342.523 0 337 0Z" fill="#230C33"/>
    <mask id="mask0_0_1" style="mask-type:alpha" maskUnits="userSpaceOnUse" x="0" y="0" width="347" height="309">
        <path d="M337 0H90C44.4 4.8 11 38.6667 0 55V309C36.3333 276.333 87.1936 208.299 225.5 254C283 273 335.5 237.5 347 202V10C347 4.47715 342.523 0 337 0Z" fill="#00031D"/>
    </mask>
    <g mask="url(#mask0_0_1)">
        <mask id="mask1_0_1" style="mask-type:luminance" maskUnits="userSpaceOnUse" x="-489" y="0" width="836" height="473">
            <path d="M-489 0L347 0L347 473L-489 473L-489 0Z" fill="white"/>
        </mask>
        <g mask="url(#mask1_0_1)">
            <path d="M-27.784 325.915C-36.5774 317.112 -45.8104 308.457 -55.4832 299.952C-109.939 252.055 -162.448 232.26 -215.963 239.522C-262.316 245.789 -302.389 271.254 -337.751 293.735C-361.367 308.756 -383.602 322.881 -404.141 328.849C-472.478 348.595 -500.115 340.538 -516.634 335.763C-526.181 332.978 -532.525 331.137 -540.69 336.807C-548.729 342.378 -535.225 373.165 -498.293 433.745C-482.339 459.957 -459.602 473.833 -441.387 485.024C-432.28 490.595 -424.366 495.469 -419.09 500.741C-404.643 515.314 -402.634 520.536 -398.362 532.026C-394.782 541.575 -389.381 555.999 -373.364 584.2C-359.295 608.969 -328.455 642.044 -292.905 670.593C-272.68 686.857 -251.639 701.132 -230.409 713.069C-206.667 726.448 -183.176 736.545 -160.627 743.06C-118.858 755.146 -80.984 754.947 -48.0088 742.513C-15.5361 730.228 11.9747 711.925 33.8326 688.2C55.502 664.625 70.4507 636.871 78.302 605.686C89.6706 560.276 84.897 509.743 64.4838 459.459C53.6177 432.651 38.2921 405.892 18.9466 379.88C5.37965 361.477 -10.26 343.472 -27.784 325.915ZM-479.764 454.983C-485.982 448.766 -491.824 441.653 -496.974 433.198C-513.744 405.644 -525.49 384.655 -532.776 368.987C-543.328 346.407 -542.386 339.493 -539.685 337.653C-532.148 332.431 -526.809 334.022 -517.073 336.857C-500.366 341.731 -472.415 349.888 -403.576 329.944C-382.848 323.926 -360.425 309.701 -336.746 294.68C-301.572 272.298 -261.625 246.932 -215.648 240.715C-162.637 233.553 -110.63 253.199 -56.4881 300.798C-27.5328 326.263 -2.59722 353.022 17.7532 380.427C37.0358 406.39 52.2986 433.049 63.1648 459.807C83.5152 509.893 88.2259 560.227 76.9201 605.438C69.1317 636.474 54.3086 664.078 32.7019 687.504C11.0325 711.079 -16.3526 729.233 -48.5741 741.469C-81.1724 753.803 -118.67 754.002 -160.062 742.016C-182.485 735.5 -205.85 725.453 -229.467 712.173C-250.634 700.286 -271.549 686.012 -291.774 669.847C-327.199 641.398 -357.976 608.422 -371.982 583.752C-387.936 555.651 -393.338 541.277 -396.918 531.727C-401.252 520.138 -403.262 514.817 -417.896 500.094C-417.896 500.045 -417.959 500.045 -417.959 499.995C-423.361 494.623 -431.275 489.749 -440.445 484.129C-452.693 476.519 -466.951 467.815 -479.764 454.983Z" fill="#FF9900"/>
            <path d="M-44.0516 343.373C-51.1492 336.26 -58.5608 329.247 -66.2864 322.334C-114.964 278.714 -162.009 260.013 -210.121 265.136C-251.953 269.612 -288.571 291.348 -320.918 310.496C-343.404 323.876 -364.696 336.459 -384.544 341.333C-447.48 357.548 -474.3 349.988 -490.316 345.462C-499.989 342.726 -506.396 340.936 -514.435 346.357C-519.02 349.341 -518.015 359.487 -511.42 376.547C-505.516 391.866 -495.278 412.159 -481.837 435.187C-467.956 459.31 -447.919 472.391 -431.84 482.935C-424.052 488.008 -417.331 492.435 -412.558 497.21C-397.358 512.33 -395.159 517.055 -388.501 530.981C-384.042 540.332 -377.886 553.164 -364.822 575.695C-351.443 598.773 -322.614 629.61 -289.638 656.219C-270.795 671.439 -251.199 684.818 -231.539 695.959C-209.43 708.493 -187.698 717.943 -166.782 724.011C-129.096 735.003 -94.9277 735.052 -65.1558 724.11C-35.2583 713.069 -9.75743 696.556 10.4674 674.97C30.6294 653.533 44.5732 628.267 52.0475 599.867C62.788 558.784 58.9566 512.976 40.9302 467.318C31.3203 442.996 17.6905 418.675 0.354942 395C-12.3327 377.492 -27.2814 360.184 -44.0516 343.373ZM-463.245 457.32C-469.526 451.004 -475.493 443.643 -480.643 434.789C-509.034 386.047 -521.658 352.474 -513.619 347.252C-506.207 342.229 -500.429 343.87 -490.819 346.556C-474.614 351.132 -447.543 358.741 -384.167 342.428C-364.131 337.504 -342.776 324.821 -320.164 311.392C-288.005 292.293 -251.513 270.657 -209.996 266.23C-162.323 261.157 -115.655 279.759 -67.3541 323.03C-41.3508 346.257 -18.9277 370.678 -0.712795 395.547C16.4971 419.172 30.1269 443.394 39.7368 467.666C57.7004 513.125 61.5318 558.734 50.7913 599.668C43.3798 628.018 29.4987 653.135 9.46238 674.423C-10.6996 695.81 -35.9492 712.223 -65.6583 723.215C-95.1161 734.008 -128.971 733.958 -166.28 723.066C-193.853 715.008 -237.443 696.755 -288.634 655.523C-321.546 629.013 -350.25 598.275 -363.566 575.297C-376.63 552.816 -382.723 539.983 -387.182 530.633C-393.715 516.955 -396.164 511.832 -411.49 496.563C-416.389 491.689 -423.11 487.262 -430.961 482.139C-441.01 475.574 -452.567 468.014 -463.245 457.32Z" fill="#FF9900"/>
            <path d="M-60.0053 361.029C-65.4698 355.558 -71.1855 350.087 -77.1524 344.715C-120.052 305.373 -161.695 287.767 -204.531 290.9C-241.84 293.586 -275.004 311.69 -304.336 327.606C-325.754 339.244 -345.916 350.236 -365.073 354.016C-422.544 366.699 -448.422 359.587 -463.936 355.359C-473.797 352.673 -480.329 350.883 -488.18 356.056C-499.235 362.82 -484.098 402.659 -465.38 436.779C-453.509 458.962 -436.048 471.296 -422.042 481.244C-415.698 485.72 -410.233 489.6 -405.962 493.778C-388.627 510.887 -386.428 514.667 -374.557 535.656C-370.098 543.564 -364.508 553.412 -356.217 567.289C-347.8 581.464 -332.977 599.121 -314.511 616.976C-293.784 637.07 -270.23 655.622 -246.425 670.693C-218.286 688.498 -190.776 700.883 -164.709 707.398C-134.372 715.008 -106.61 714.561 -82.1772 705.956C-54.7921 696.158 -31.4268 681.386 -12.7095 662.038C5.88227 642.79 18.9467 620.01 26.0443 594.296C36.2195 557.541 33.2674 516.408 17.6277 475.425C2.55334 435.983 -23.5128 397.586 -60.0053 361.029ZM-446.475 460.155C-452.944 453.69 -459.099 445.98 -464.187 436.431C-486.485 395.796 -496.283 362.322 -487.364 356.901C-480.015 352.077 -474.111 353.718 -464.313 356.354C-448.673 360.631 -422.544 367.744 -364.696 355.011C-345.351 351.231 -325.063 340.14 -303.582 328.451C-274.438 312.585 -241.4 294.581 -204.405 291.895C-162.009 288.811 -120.743 306.318 -78.1574 345.362C-32.7458 386.644 -0.901207 430.512 16.3715 475.723C31.9484 516.557 34.8376 557.491 24.7881 594.097C17.7534 619.612 4.81452 642.293 -13.7144 661.441C-32.3061 680.69 -55.5458 695.362 -82.7425 705.061C-106.862 713.566 -134.309 714.014 -164.395 706.453C-190.273 699.938 -217.658 687.653 -245.671 669.897C-269.414 654.876 -292.904 636.374 -313.569 616.33C-331.972 598.524 -346.67 580.967 -355.086 566.891C-363.314 553.014 -368.904 543.167 -373.427 535.308C-385.423 514.22 -387.559 510.39 -405.02 493.181C-409.291 488.953 -414.818 485.024 -421.225 480.498C-429.076 474.927 -437.995 468.561 -446.475 460.155Z" fill="#FF9900"/>
        </g>
        <mask id="mask2_0_1" style="mask-type:luminance" maskUnits="userSpaceOnUse" x="-489" y="0" width="836" height="473">
            <path d="M-489 0L347 0L347 473L-489 473L-489 0Z" fill="white"/>
        </mask>
        <g mask="url(#mask2_0_1)">
            <path d="M345.933 385.152C349.513 388.733 352.276 390.275 354.412 390.722C366.471 393.209 379.159 409.473 391.47 425.19C405.602 443.294 418.981 460.404 432.673 460.454C438.514 460.454 443.728 457.37 448.69 451.053C463.576 432.153 467.219 396.79 467.658 370.479C468.223 338.001 464.204 307.91 461.377 295.625C452.835 258.571 445.109 225.993 436.881 203.114C428.214 178.942 419.357 166.06 408.177 161.335C401.645 158.599 394.422 158.699 386.005 161.633C374.26 165.712 363.268 166.01 351.271 162.578C340.405 159.494 329.665 153.576 318.296 147.309C304.541 139.749 288.964 131.144 269.933 125.822C266.729 124.927 264.028 125.226 261.956 126.767C256.617 130.597 255.235 142.285 257.873 161.583C260.197 178.494 265.599 201.025 273.513 226.739C284.756 263.147 300.333 303.434 315.156 334.569C329.1 363.616 339.023 378.238 345.933 385.152ZM373.381 401.664C367.162 395.447 360.944 390.872 354.789 389.578C346.498 387.887 332.617 367.644 316.6 334.072C301.777 302.986 286.2 262.749 275.02 226.391C257.999 171.282 253.539 134.327 263.023 127.563C264.719 126.32 266.855 126.121 269.556 126.867C288.399 132.189 303.913 140.694 317.605 148.254C340.594 160.887 360.379 171.829 386.759 162.678C394.736 159.892 401.582 159.793 407.675 162.379C430.538 171.978 442.471 219.378 460.058 295.874C462.885 308.109 466.842 338.1 466.339 370.479C465.9 396.641 462.257 431.805 447.559 450.457C442.848 456.425 438.012 459.31 432.736 459.31C419.86 459.31 406.104 441.653 392.789 424.593C386.319 416.436 379.85 408.18 373.381 401.664Z" fill="url(#paint0_linear_0_1)"/>
            <path d="M347.63 380.725C350.393 383.46 352.906 385.152 355.104 385.649C366.033 388.036 377.653 402.858 388.896 417.182C401.96 433.844 414.271 449.561 426.896 449.611C432.235 449.611 437.008 446.826 441.593 441.106C449.696 431.208 455.851 414.795 459.306 393.607C462.258 375.602 463.074 354.513 461.63 335.812C459.871 316.315 457.17 301.344 456.417 297.167C448 260.013 441.342 233.006 434.056 213.21C426.142 191.624 417.663 179.538 407.425 175.211C401.269 172.625 394.423 172.675 386.446 175.46C375.706 179.19 365.531 179.489 354.476 176.405C344.489 173.62 334.628 168.248 324.139 162.578C311.577 155.764 297.319 148.005 279.984 143.18C276.906 142.385 274.331 142.733 272.321 144.225C258.754 154.172 274.959 213.111 282.559 237.979C300.397 296.172 329.101 362.173 347.63 380.725ZM372.377 395.646C366.724 389.976 361.071 385.798 355.481 384.604C339.15 381.023 304.228 304.08 283.941 237.731C268.175 186.303 264.218 151.685 273.263 145.021C274.896 143.827 276.969 143.529 279.544 144.225C296.754 149 310.886 156.659 323.385 163.473C344.489 174.962 362.767 184.86 386.949 176.455C394.486 173.819 400.955 173.769 406.734 176.206C428.152 185.258 439.772 230.071 454.972 297.366C455.726 301.494 458.426 316.415 460.185 335.912C461.63 354.563 460.813 375.552 457.861 393.507C454.407 414.546 448.377 430.81 440.337 440.559C436.066 445.93 431.607 448.566 426.77 448.566C414.899 448.517 402.212 432.302 389.964 416.635C384.248 409.175 378.281 401.615 372.377 395.646Z" fill="url(#paint1_linear_0_1)"/>
            <path d="M349.137 376.149C351.587 378.586 353.848 380.128 355.858 380.626C365.719 382.914 376.209 396.293 386.384 409.225C398.318 424.444 409.623 438.768 421.118 438.818C425.954 438.818 430.351 436.331 434.496 431.208C442.285 422.256 448.754 406.837 452.837 387.788C456.605 370.081 457.924 350.734 456.48 334.718C455.223 324.025 453.779 314.376 452.585 306.617C452.146 303.583 451.706 300.997 451.392 298.808C445.299 271.304 438.642 243.152 431.167 223.407C423.881 204.109 416.093 193.216 406.609 189.188C400.767 186.701 394.298 186.75 386.886 189.337C365.468 196.748 349.075 188.044 330.106 177.897C318.737 171.829 305.799 164.916 290.096 160.638C283.69 159.146 280.737 163.125 279.356 166.706C272.321 185.606 287.961 241.959 303.475 284.534C317.481 323.03 335.822 362.87 349.137 376.149ZM371.309 389.529C366.222 384.455 361.26 380.775 356.172 379.631C345.432 377.094 324.202 337.852 304.605 284.235C295.435 259.118 287.961 234.15 283.501 213.957C278.539 191.227 277.471 175.012 280.486 167.005C282.245 162.33 285.197 160.589 289.594 161.583C305.108 165.811 317.921 172.675 329.29 178.693C348.572 188.989 365.217 197.892 387.326 190.232C394.423 187.795 400.516 187.695 405.98 190.033C424.572 197.941 435.438 232.906 450.073 298.908C450.387 301.096 450.764 303.682 451.266 306.716C452.46 314.475 453.904 324.075 455.161 334.768C456.605 350.684 455.286 369.932 451.518 387.589C447.498 406.489 441.028 421.758 433.366 430.611C429.471 435.436 425.452 437.774 421.118 437.774C410.314 437.724 398.695 422.952 387.452 408.628C381.924 401.615 376.585 394.801 371.309 389.529Z" fill="url(#paint2_linear_0_1)"/>
            <path d="M350.77 371.673C352.78 373.712 354.727 375.055 356.549 375.552C365.342 377.691 374.701 389.628 383.808 401.167C394.172 414.298 404.849 427.876 415.339 427.975C419.673 428.025 423.63 425.837 427.335 421.261C442.912 404.35 454.344 362.521 451.203 333.574C450.512 328.849 449.758 324.373 449.068 320.046C447.811 312.088 446.681 305.224 446.241 300.35V300.3C439.269 268.17 433.868 248.176 428.152 233.503C421.494 216.443 414.397 206.794 405.729 203.064C400.264 200.727 394.172 200.726 387.137 203.164C367.792 209.878 352.968 202.119 335.821 193.166C325.583 187.845 314.026 181.777 300.02 178.046C294.995 177.002 291.54 179.141 289.656 184.263C286.83 191.923 287.646 206.794 291.98 227.286C295.811 245.39 302.344 267.673 310.383 290.054C318.235 311.889 327.028 332.381 335.068 347.749C339.527 356.304 345.368 366.252 350.77 371.673ZM370.304 383.51C365.782 378.984 361.385 375.702 356.863 374.607C352.026 373.364 344.678 363.715 336.073 347.352C328.033 332.032 319.302 311.59 311.451 289.756C297.884 252.105 284.38 201.92 290.724 184.462C292.42 179.837 295.309 177.997 299.643 178.892C313.461 182.572 324.955 188.591 335.13 193.913C352.592 203.014 367.603 210.873 387.577 204.009C394.235 201.721 399.95 201.671 405.101 203.86C422.625 211.37 432.988 244.943 444.985 300.4C445.425 305.324 446.555 312.187 447.811 320.145C448.502 324.472 449.193 328.949 449.947 333.624C453.025 362.372 441.719 403.903 426.268 420.664C422.75 424.941 419.17 426.981 415.276 426.981C405.478 426.931 394.925 413.552 384.75 400.62C379.851 394.353 375.078 388.285 370.304 383.51Z" fill="url(#paint3_linear_0_1)"/>
            <path d="M352.34 367.147C354.036 368.838 355.732 370.032 357.239 370.479C364.902 372.518 373.193 382.963 381.233 393.11C390.529 404.848 400.139 416.983 409.56 417.083C413.454 417.133 416.909 415.243 420.238 411.264C427.335 404.151 434.621 390.921 439.772 375.95C445.236 360.034 447.56 344.119 446.053 332.381L445.425 329.048C443.415 318.454 441.53 308.407 441.279 301.892V301.842C429.848 247.081 419.673 223.257 405.038 216.991C399.887 214.752 394.172 214.752 387.577 217.04C370.304 223.009 357.051 216.294 341.725 208.485C332.681 203.91 322.443 198.687 310.069 195.504H310.006C305.17 194.708 301.841 196.847 300.02 201.92C294.178 218.333 305.107 261.107 317.292 295.675C324.013 314.724 331.55 332.629 338.522 346.058C342.479 353.569 347.567 362.372 352.34 367.147ZM369.299 377.542C365.342 373.613 361.511 370.678 357.616 369.683C349.2 367.346 332.681 336.111 318.36 295.426C311.451 275.83 305.924 256.283 302.72 240.367C299.14 222.362 298.575 209.182 301.087 202.119C302.72 197.494 305.547 195.604 309.755 196.3C321.94 199.483 332.116 204.656 341.097 209.182C356.674 217.09 370.178 223.954 388.016 217.786C394.235 215.648 399.636 215.648 404.473 217.737C420.929 224.849 430.664 256.531 440.149 301.941C440.4 308.507 442.284 318.554 444.357 329.197L444.985 332.53C446.43 344.168 444.168 359.885 438.704 375.751C433.616 390.623 426.33 403.753 419.296 410.766C416.218 414.497 413.015 416.237 409.56 416.237C400.767 416.138 391.282 404.201 382.175 392.662C377.778 387.091 373.507 381.72 369.299 377.542Z" fill="url(#paint4_linear_0_1)"/>
            <path d="M353.848 362.571C355.292 364.013 356.674 365.008 357.93 365.406C364.525 367.346 371.686 376.348 378.595 385.102C386.823 395.447 395.365 406.191 403.656 406.29C407.048 406.34 410.063 404.748 412.952 401.366C426.205 389.23 444.168 353.718 440.714 331.286C438.264 321.041 435.877 310.496 436.066 303.483V303.434C427.084 258.422 417.537 236.736 404.221 230.917C399.322 228.778 393.983 228.778 387.828 230.867C372.628 236.09 360.945 230.37 347.441 223.755C339.59 219.925 330.671 215.548 319.993 212.862H319.93C315.282 212.266 312.016 214.504 310.258 219.527C304.982 234.597 314.026 271.602 324.139 301.195C332.744 326.114 344.929 353.618 353.848 362.571ZM368.294 371.524C364.902 368.142 361.636 365.655 358.307 364.66C351.021 362.372 337.077 335.614 325.144 300.996C315.031 271.502 306.049 234.697 311.263 219.776C312.896 215.15 315.659 213.161 319.805 213.658C330.357 216.294 339.15 220.621 347.001 224.451C360.757 231.215 372.628 237.035 388.33 231.613C394.172 229.624 399.196 229.624 403.844 231.613C416.909 237.283 426.267 258.819 435.186 303.533C435.061 310.646 437.448 321.19 439.897 331.436C443.289 353.618 425.514 388.882 412.324 400.918L412.261 400.968C409.56 404.102 406.796 405.594 403.782 405.544C395.993 405.444 387.639 394.9 379.537 384.704C375.643 379.83 371.937 375.155 368.294 371.524Z" fill="url(#paint5_linear_0_1)"/>
            <path d="M355.419 358.045C356.549 359.189 357.68 359.985 358.685 360.333C364.149 362.123 370.242 369.733 376.083 377.044C383.243 386.047 390.655 395.298 397.941 395.447C400.767 395.497 403.468 394.154 405.855 391.418C418.103 381.571 439.081 348.943 435.564 330.142C433.303 322.781 430.414 312.187 431.042 305.025V304.926C424.384 269.214 415.653 250.115 403.657 244.793C399.071 242.754 393.921 242.704 388.205 244.644C375.078 249.121 364.966 244.445 353.22 238.974C346.499 235.841 338.962 232.309 329.98 230.22H329.918C325.333 229.823 322.192 232.21 320.433 237.233C318.361 243.351 318.423 253.348 320.685 266.827C322.695 278.615 326.212 292.392 330.985 306.666C337.957 327.457 347.881 350.535 355.419 358.045ZM367.29 365.456C364.526 362.67 361.762 360.532 359.061 359.636C352.843 357.448 341.475 335.066 331.99 306.467C319.617 269.065 318.423 246.286 321.438 237.383C323.009 232.757 325.835 230.569 329.855 230.917C338.711 233.006 345.934 236.388 352.843 239.621C364.777 245.191 375.078 249.966 388.645 245.341C394.109 243.5 398.883 243.5 403.28 245.44C415.025 250.613 423.567 269.562 430.225 304.975C429.597 312.187 432.549 322.831 434.747 330.242C438.202 348.843 417.412 381.173 405.227 390.921L405.164 390.971C402.903 393.507 400.516 394.751 398.004 394.701C391.22 394.552 383.934 385.45 376.9 376.647C373.571 372.568 370.367 368.589 367.29 365.456Z" fill="url(#paint6_linear_0_1)"/>
            <path d="M381.736 378.586C385.191 382.068 388.708 384.505 392.163 384.605C394.549 384.654 396.748 383.61 398.758 381.521C410.126 373.861 434.12 344.566 430.414 329.048V328.999C426.645 319.449 425.201 311.939 426.017 306.617V306.517C421.495 279.61 413.832 263.545 403.28 258.77C398.883 256.78 393.984 256.731 388.583 258.521C377.528 262.301 368.986 258.621 359.062 254.343C353.535 251.956 347.316 249.27 339.968 247.678H339.842C335.32 247.529 332.179 250.066 330.483 255.089C327.029 265.385 329.73 286.722 337.706 312.187C341.035 322.831 344.992 333.027 348.824 340.886C351.65 346.655 355.733 353.867 359.187 355.309C363.584 357.001 368.483 363.118 373.257 368.987C376.209 372.369 378.973 375.801 381.736 378.586ZM429.597 329.148C431.67 338.2 424.133 351.082 419.422 357.995C412.953 367.495 404.159 376.995 398.192 381.024L398.13 381.073C396.245 383.063 394.298 384.008 392.226 383.958C386.447 383.809 380.229 376.1 374.199 368.589C369.174 362.322 364.401 356.404 359.816 354.663C349.201 350.236 323.7 278.565 331.488 255.238C333.059 250.563 335.885 248.225 339.968 248.325C347.191 249.917 353.095 252.453 358.811 254.94C368.923 259.267 377.591 263.047 389.022 259.168C394.11 257.427 398.821 257.526 402.966 259.367C413.267 263.992 420.741 279.908 425.264 306.567C424.384 311.988 425.829 319.549 429.597 329.148Z" fill="url(#paint7_linear_0_1)"/>
            <path d="M377.527 368.639C380.479 371.573 383.431 373.662 386.32 373.812C388.204 373.911 389.963 373.165 391.533 371.623C397.061 368.788 406.482 360.581 413.58 352.474C418.856 346.406 427.461 335.166 425.2 327.904V327.854C422.938 323.478 419.295 315.072 420.928 308.208V308.109C418.29 289.159 412.135 276.924 403.216 272.795C398.945 270.806 394.109 270.657 388.958 272.398C379.976 275.431 373.004 272.795 364.902 269.712C360.38 267.971 355.669 266.18 350.016 265.136H349.89C345.368 265.335 342.228 267.971 340.532 273.044C337.58 281.848 339.024 298.46 344.552 317.559C349.388 334.37 355.92 348.097 360.066 350.236C363.395 351.778 366.975 356.205 370.806 360.88C373.004 363.566 375.266 366.351 377.527 368.639ZM424.509 328.053C428.214 340.139 400.704 366.202 391.157 371.126L391.094 371.175L391.031 371.225C389.586 372.668 388.016 373.314 386.383 373.264C381.547 373.065 376.396 366.699 371.434 360.581C367.54 355.807 363.897 351.33 360.442 349.739C356.548 347.7 350.016 333.823 345.305 317.41C339.841 298.41 338.333 281.897 341.285 273.193C342.919 268.419 345.808 265.882 349.953 265.683C355.481 266.727 360.128 268.518 364.651 270.209C372.879 273.343 380.039 276.078 389.335 272.945C394.297 271.303 398.882 271.403 402.965 273.293C411.633 277.322 417.662 289.358 420.3 308.109C418.604 315.122 422.185 323.577 424.509 328.053Z" fill="url(#paint8_linear_0_1)"/>
            <path d="M373.318 358.642C375.705 361.029 378.155 362.82 380.542 362.969C381.923 363.068 383.242 362.621 384.436 361.676C389.209 360.134 399.133 353.519 407.047 346.556C420.677 334.669 420.991 329.048 419.986 326.76V326.711C415.841 320.941 414.333 314.624 415.904 309.75V309.651C414.585 294.929 408.68 289.06 403.907 286.772C399.699 284.683 394.611 284.533 389.335 286.225C382.363 288.512 376.961 286.921 370.68 285.031C367.414 284.036 363.96 283.041 360.003 282.494H359.877C355.229 283.091 351.963 285.976 350.079 291.099C344.049 307.761 355.104 341.284 360.694 345.113C362.892 346.456 365.342 349.44 367.98 352.574C369.738 354.713 371.56 356.851 373.318 358.642ZM419.421 326.91C421.054 330.64 416.343 337.653 406.608 346.158C398.694 353.071 388.833 359.686 384.122 361.178H384.059L383.996 361.228C382.928 362.123 381.798 362.521 380.604 362.422C376.71 362.123 372.376 356.901 368.545 352.275C365.907 349.092 363.395 346.058 361.133 344.666C358.37 342.726 354.287 333.226 351.712 322.533C348.571 309.601 348.257 298.161 350.77 291.198C352.528 286.324 355.606 283.588 359.94 282.992C363.834 283.539 367.163 284.533 370.429 285.528C376.836 287.418 382.363 289.06 389.523 286.722C394.611 285.081 399.447 285.23 403.53 287.219C408.115 289.457 413.894 295.177 415.213 309.651C413.642 314.624 415.213 321.09 419.421 326.91Z" fill="url(#paint9_linear_0_1)"/>
            <path d="M351.085 135.57C356.612 141.091 361.762 143.727 366.661 143.478C372.88 143.18 378.47 138.107 383.306 128.408C388.519 117.913 392.979 101.6 396.622 80.0138C401.395 51.4149 403.468 25.0045 402.652 1.52856C401.961 -18.8636 399.134 -37.6643 394.298 -54.376C385.756 -83.6214 372.189 -102.671 358.873 -118.885C344.552 -136.243 328.096 -148.777 310.007 -156.138C294.242 -162.554 277.534 -164.942 260.387 -163.3C224.585 -159.868 195.002 -139.228 187.151 -121.272C183.445 -112.867 184.764 -105.506 190.857 -100.631C216.671 -79.8911 237.65 -60.2946 254.985 -40.6485C278.853 -13.6412 295.372 13.1173 304.04 38.8811C310.258 57.2839 319.994 83.8435 331.3 105.778C338.209 119.406 344.866 129.353 351.085 135.57ZM358.182 -118.537L357.554 -118.238C370.807 -102.124 384.311 -83.1737 392.79 -54.0775C397.627 -37.4156 400.453 -18.7144 401.144 1.62808C401.898 25.0543 399.888 51.3651 395.114 79.9142C391.534 101.45 387.075 117.615 381.924 128.06C377.339 137.311 372.189 142.135 366.536 142.434C356.989 142.931 345.243 130.149 332.493 105.429C321.25 83.5451 311.452 57.0352 305.296 38.6324C296.566 12.7194 279.984 -14.1386 255.99 -41.2951C238.592 -60.9412 217.614 -80.6371 191.736 -101.427C186.02 -106.003 184.827 -112.917 188.344 -120.874C196.133 -138.481 225.151 -158.724 260.387 -162.107C277.283 -163.748 293.676 -161.361 309.19 -155.094C327.091 -147.832 343.359 -135.447 357.491 -118.238L358.182 -118.537Z" fill="url(#paint10_linear_0_1)"/>
            <path d="M352.089 122.142C357.177 127.215 361.95 129.652 366.41 129.403C378.406 128.757 387.325 109.558 393.732 70.7634C401.206 20.4294 399.385 -22.245 388.267 -56.0663C379.286 -83.5211 366.033 -100.78 353.094 -115.353C340.218 -130.672 325.52 -141.763 309.504 -148.279C295.497 -153.999 280.674 -156.137 265.537 -154.645C255.11 -153.65 239.282 -150.368 223.329 -140.42C211.96 -133.358 203.229 -124.405 199.335 -115.751C195.378 -107.047 196.634 -99.437 202.79 -94.3141C248.201 -55.5689 292.545 -12.8945 309.567 36.0966C315.345 52.7585 324.327 76.6324 334.377 95.8806C340.595 107.818 346.499 116.571 352.089 122.142ZM344.049 -123.41C346.75 -120.675 349.388 -117.79 351.963 -114.706C364.839 -100.233 378.029 -83.0735 386.948 -55.7679C398.003 -22.0461 399.824 20.4791 392.35 70.6639C389.084 90.509 385.001 105.43 380.291 115.079C376.082 123.584 371.372 128.06 366.221 128.359C357.491 128.856 347.19 117.765 335.507 95.433C325.458 76.2344 316.476 52.4104 310.697 35.7484C293.613 -13.4913 249.143 -56.2652 203.606 -95.1099C197.828 -99.9344 196.697 -107.146 200.466 -115.452C204.297 -123.858 212.839 -132.661 224.02 -139.625C232.687 -144.996 246.945 -151.81 265.537 -153.65C280.423 -155.093 294.995 -153.004 308.75 -147.384C321.5 -142.161 333.309 -134.154 344.049 -123.41Z" fill="url(#paint11_linear_0_1)"/>
            <path d="M353.031 108.762C357.678 113.388 362.012 115.626 366.095 115.377C377.024 114.731 385.126 97.1236 390.842 61.6113C396.872 14.2615 393.983 -25.8763 382.3 -57.7081C372.753 -83.6211 359.312 -99.5867 347.378 -111.772C335.946 -125.102 323.007 -134.751 308.938 -140.421C296.627 -145.395 283.688 -147.285 270.498 -145.991C257.245 -144.698 244.369 -140.272 233.189 -133.159C223.014 -126.693 215.288 -118.586 211.52 -110.429C207.312 -101.427 208.442 -93.4691 214.723 -88.0477L218.115 -84.9641C236.267 -68.5011 256.869 -49.8496 274.455 -30.104C294.555 -7.52335 307.87 13.217 315.093 33.3108C322.882 54.9465 330.419 72.7026 337.516 85.9825C342.918 96.2283 348.131 103.838 353.031 108.762ZM340.092 -117.94C342.227 -115.801 344.3 -113.563 346.373 -111.176C358.244 -99.0397 371.622 -83.1735 381.107 -57.4097C392.789 -25.6774 395.616 14.3112 389.586 61.5118C383.996 95.9796 376.082 113.786 365.969 114.382C358.244 114.83 349.011 105.131 338.584 85.5845C331.55 72.3047 324.012 54.6481 316.224 33.0124C309.001 12.8192 295.622 -8.0207 275.397 -30.7008C257.748 -50.4962 237.146 -69.1476 218.994 -85.6603L215.602 -88.7441C209.635 -93.867 208.631 -101.477 212.65 -110.131C216.356 -118.039 224.082 -126.146 233.943 -132.413C244.935 -139.426 257.559 -143.753 270.561 -145.047C283.5 -146.29 296.188 -144.45 308.247 -139.575C319.741 -134.95 330.356 -127.688 340.092 -117.94Z" fill="url(#paint12_linear_0_1)"/>
            <path d="M353.974 95.3827C358.182 99.6103 362.139 101.55 365.782 101.301C375.58 100.655 382.866 84.6394 387.954 52.3601C392.539 7.99455 388.645 -29.6067 376.271 -59.449C366.096 -84.0689 352.404 -98.4926 341.6 -108.291C317.481 -135.497 292.232 -139.178 275.273 -137.536C263.842 -136.392 252.661 -132.463 242.989 -126.146C234.133 -120.377 227.286 -113.016 223.706 -105.456C219.247 -96.155 220.314 -87.5505 226.658 -81.8804C231.118 -77.603 235.766 -73.1764 240.225 -68.9488C273.137 -37.7139 307.118 -5.43449 320.559 30.3265C333.309 64.2472 344.364 85.7337 353.974 95.3827ZM346.751 -101.974C356.235 -92.4744 366.913 -79.1947 375.266 -59.1009C387.577 -29.4078 391.471 8.04424 386.886 52.3103C381.924 83.6447 374.827 99.8093 365.782 100.406C358.999 100.854 350.896 92.5476 341.726 75.6867C335.57 64.3964 329.038 49.525 321.815 30.227C308.311 -5.68315 274.268 -38.062 241.293 -69.3964C236.833 -73.6241 232.185 -78.0507 227.726 -82.3281C221.571 -87.8489 220.628 -95.9063 224.962 -105.008C228.48 -112.419 235.2 -119.581 243.931 -125.301C253.415 -131.518 264.344 -135.398 275.587 -136.492C292.232 -138.133 317.042 -134.453 340.847 -107.644C342.731 -105.903 344.678 -104.013 346.751 -101.974Z" fill="url(#paint13_linear_0_1)"/>
            <path d="M354.917 82.0035C358.497 85.5846 362.077 87.574 365.595 87.3254C374.325 86.6788 380.732 72.255 385.191 43.2086C388.395 1.7278 383.433 -33.3369 370.431 -61.0404C362.14 -78.7966 350.897 -93.0214 336.074 -104.66C315.221 -127.29 294.054 -130.374 279.985 -128.882C270.312 -127.887 260.953 -124.455 252.788 -118.984C245.314 -113.961 239.409 -107.395 236.018 -100.581C231.307 -91.0319 232.186 -82.0792 238.342 -75.9118C238.467 -75.7626 238.656 -75.6134 238.781 -75.4642C246.13 -67.9539 253.667 -60.5431 260.953 -53.4307C288.904 -26.0255 315.221 -0.112495 326.213 27.6408C334.504 48.5801 344.679 71.7577 354.917 82.0035ZM345.935 -94.613C355.545 -85.0137 363.208 -73.8726 369.363 -60.7917C382.302 -33.1876 387.264 1.7775 384.061 43.109C379.727 71.2603 373.446 85.8333 365.469 86.4301C351.086 87.4746 333.813 43.8054 327.281 27.3424C316.226 -0.56012 289.783 -26.5229 261.833 -54.0275C254.547 -61.1399 247.072 -68.5508 239.661 -76.0611C233.317 -82.0295 232.375 -90.833 237.086 -100.283C240.352 -106.998 246.193 -113.364 253.542 -118.338C261.519 -123.709 270.689 -127.091 280.173 -128.036C293.928 -129.429 314.656 -126.445 335.257 -104.113V-104.063H335.32C339.026 -101.129 342.606 -97.9454 345.935 -94.613Z" fill="url(#paint14_linear_0_1)"/>
            <path d="M355.857 68.6739C359.06 71.8571 362.2 73.5481 365.278 73.2995C372.941 72.6529 378.531 59.771 382.3 33.9574C384.058 -4.63861 378.028 -37.1667 364.399 -62.7813C353.344 -83.6212 339.714 -95.1602 330.293 -101.178C312.643 -119.382 295.496 -121.77 284.253 -120.526C268.865 -118.835 254.67 -109.335 248.138 -96.2544C243.05 -86.108 243.992 -76.0612 250.713 -69.3466C250.713 -69.2969 250.776 -69.2969 250.776 -69.2471C260.888 -58.2552 270.812 -48.3576 280.359 -38.7086C303.222 -15.73 322.944 4.06538 331.8 24.8058C339.652 43.2582 347.817 60.6662 355.857 68.6739ZM344.362 -88.5949C362.452 -70.4906 384.435 -34.2322 381.295 33.9574C377.589 58.9752 372.187 72.0063 365.152 72.5534C353.595 73.4984 339.463 40.473 332.743 24.5571C323.886 3.71722 304.101 -16.1777 281.176 -39.206C271.628 -48.8052 261.767 -58.7526 251.592 -69.6948C251.592 -69.7445 251.529 -69.7446 251.529 -69.7943C244.997 -76.3098 244.118 -86.0583 249.08 -95.9063C255.549 -108.689 269.367 -118.039 284.442 -119.681C295.433 -120.874 312.204 -118.537 329.602 -100.631L329.665 -100.582L329.728 -100.532C333.622 -97.9952 338.772 -94.1654 344.362 -88.5949Z" fill="url(#paint15_linear_0_1)"/>
            <path d="M356.737 55.3446C359.501 58.1299 362.264 59.7215 364.965 59.423C371.56 58.7765 376.271 47.4364 379.412 24.7563C379.788 -11.0047 372.691 -40.9962 358.433 -64.4224C353.157 -73.1264 347.002 -80.6366 340.155 -86.8538C333.246 -93.0709 327.468 -96.2541 324.578 -97.597C315.785 -106.003 306.552 -110.877 296.942 -112.12C288.714 -113.165 280.549 -111.374 273.451 -106.898C265.6 -102.024 259.821 -94.4138 257.497 -86.058C255.048 -77.2048 256.932 -68.9982 262.711 -62.9303C275.65 -48.0589 287.96 -35.5749 298.826 -24.5829C316.476 -6.67759 330.483 7.49753 337.266 22.0208L337.706 22.916C342.793 33.6095 349.702 48.282 356.737 55.3446ZM342.793 -83.1732C347.567 -78.3487 352.717 -72.1316 357.616 -64.0742C371.874 -40.6978 378.909 -10.8057 378.532 24.7563C375.517 46.6904 370.869 58.1299 364.84 58.7267C355.921 59.622 345.117 36.4942 338.585 22.6673L338.145 21.7721C331.299 7.14937 317.293 -7.0755 299.58 -25.0306C288.714 -36.0225 276.466 -48.5065 263.527 -63.3282C257.874 -69.2469 256.053 -77.2545 258.44 -85.859C260.701 -94.0657 266.416 -101.476 274.016 -106.301C280.926 -110.628 288.777 -112.369 296.754 -111.374C306.112 -110.181 315.22 -105.406 323.825 -97.0996L323.888 -97.0499L323.95 -97.0002C326.902 -95.6573 334.251 -91.728 342.793 -83.1732Z" fill="url(#paint16_linear_0_1)"/>
            <path d="M357.428 42.1142C359.815 44.5513 362.264 45.944 364.651 45.6456C370.178 44.999 374.073 35.1511 376.585 15.5546V15.5049C375.831 -7.12554 371.058 -39.6536 352.466 -66.1137C347.001 -73.9225 340.595 -80.7364 333.874 -85.8594C328.598 -89.8881 323.134 -92.8723 318.863 -94.066C300.836 -109.584 286.767 -103.516 281.554 -100.184C274.896 -95.9063 269.997 -88.4457 268.426 -80.2391C266.793 -71.4356 269.054 -63.03 274.77 -56.6637C290.849 -37.0673 305.107 -22.7927 316.601 -11.3034C328.975 1.13087 337.957 10.0835 342.856 19.1854C343.233 19.9315 343.673 20.6775 344.049 21.4236C348.132 28.8344 352.717 37.3892 357.428 42.1142ZM375.768 15.5546C373.382 34.5045 369.613 44.4021 364.588 45.0487C358.182 45.8445 350.205 31.0228 344.929 21.2246C344.489 20.4288 344.112 19.6828 343.735 18.9865C338.773 9.78508 329.792 0.782677 317.355 -11.6516C305.861 -23.1409 291.603 -37.4154 275.524 -56.9621C269.997 -63.1295 267.735 -71.5351 269.306 -80.0401C270.813 -88.0975 275.587 -95.4089 282.119 -99.5868C292.734 -106.401 305.987 -104.163 318.36 -93.4692L318.423 -93.4194L318.549 -93.3697C327.028 -91.032 340.595 -81.582 351.775 -65.6661C361.95 -51.2423 374.449 -25.3293 375.768 15.5546Z" fill="url(#paint17_linear_0_1)"/>
            <path d="M357.869 28.9841C360.067 31.1725 362.265 32.5154 364.401 32.1672C366.599 31.819 368.421 29.7301 369.928 25.8506C371.561 21.623 372.88 15.0577 373.822 6.35369V6.3039C370.682 -31.2476 357.303 -54.7235 346.563 -67.8044C334.189 -82.9245 320.622 -90.1861 313.211 -90.584C300.837 -99.4869 292.358 -96.254 288.401 -93.5682C277.472 -86.1574 274.394 -65.2678 286.893 -50.4461C306.804 -24.732 322.318 -10.1093 333.624 0.584135C340.533 7.0997 345.495 11.775 348.573 16.3011C349.075 17.0472 349.64 17.8429 350.143 18.6387C352.53 22.369 355.168 26.2983 357.869 28.9841ZM373.006 6.35369C371.247 22.4685 368.295 30.9238 364.212 31.6201C360.004 32.3164 354.854 24.6569 350.708 18.4895C350.143 17.6937 349.64 16.8979 349.138 16.1519C345.997 11.5263 341.035 6.85101 334.126 0.335447C322.821 -10.3083 307.369 -24.931 287.459 -50.6451C281.931 -57.2104 279.042 -65.9144 279.607 -74.4194C280.11 -82.4768 283.564 -89.3903 288.84 -92.9714C295.373 -97.4477 303.915 -96.3535 312.771 -89.9374L312.897 -89.8876H313.022C319.052 -89.6389 332.745 -83.4218 345.935 -67.4065C356.55 -54.4251 369.865 -31.0984 373.006 6.35369Z" fill="url(#paint18_linear_0_1)"/>
            <path d="M329.604 -7.3241C338.209 1.28042 344.615 6.15466 349.075 9.58652C351.21 11.1781 352.843 12.4712 354.162 13.6649C354.476 13.9634 354.853 14.3115 355.167 14.61C358.182 17.3952 361.26 20.28 364.024 19.5339C366.285 18.9371 369.488 15.9529 370.933 -2.79804V-2.84776C367.918 -23.5384 361.197 -41.6925 350.833 -56.7628C339.967 -72.5792 328.473 -80.0895 322.632 -83.1732C316.602 -86.3564 311.075 -87.6993 307.432 -86.9035C300.146 -90.4846 295.686 -88.9428 293.237 -87.003C289.217 -83.8696 287.395 -77.1053 288.338 -68.8987C289.343 -60.3439 293.174 -51.2918 298.827 -43.9804C311.2 -27.1693 321.376 -15.5805 329.604 -7.3241ZM354.602 13.267C353.283 12.0733 351.587 10.7802 349.514 9.13887C340.847 2.52383 324.642 -9.8607 299.455 -44.3783C286.893 -60.4433 286.076 -80.6864 293.739 -86.7046C297.005 -89.2909 301.716 -89.2412 307.243 -86.4559L307.369 -86.4061L307.495 -86.4559C310.949 -87.2517 316.288 -85.9585 322.255 -82.8251C328.85 -79.3932 362.076 -59.3492 370.242 -2.89755C369.237 10.9294 367.101 18.0418 363.835 18.9371C361.448 19.5836 358.496 16.8481 355.67 14.1623C355.293 13.9136 354.916 13.5654 354.602 13.267Z" fill="url(#paint19_linear_0_1)"/>
            <path d="M339.088 -2.30065C341.035 -0.360899 342.856 1.33018 344.615 2.87203C353.345 10.2829 358.182 10.7305 359.815 10.8797C361.385 11.0289 362.704 10.7305 363.709 9.9844C366.787 7.79597 367.98 1.42965 368.043 -12.0491V-12.0989C363.835 -31.0985 355.607 -48.1583 344.175 -61.4878C331.299 -76.5084 318.988 -81.6314 314.278 -83.1235C308.876 -84.8643 304.417 -84.9637 301.59 -83.4219C298.701 -83.6208 296.628 -82.8748 295.309 -81.2335C292.169 -77.354 294.241 -69.4458 296.502 -63.4773C299.455 -55.6686 304.605 -46.5667 310.823 -37.813C321.501 -22.3447 330.985 -10.4575 339.088 -2.30065ZM359.878 10.432C349.137 9.48704 332.807 -6.82675 311.326 -38.0119C299.831 -53.9775 290.473 -74.4692 295.749 -80.935C296.942 -82.4271 298.952 -83.0737 301.653 -82.9245H301.779L301.841 -82.9743C304.479 -84.4664 308.813 -84.3669 314.089 -82.6758C333.686 -76.3592 358.747 -51.5901 367.478 -12.0491C367.478 1.08149 366.221 7.59704 363.332 9.63626C362.453 10.2828 361.322 10.5315 359.878 10.432Z" fill="url(#paint20_linear_0_1)"/>
            <path d="M348.761 2.87199C353.786 7.89544 357.806 10.3823 360.884 10.432C362.768 10.4817 364.338 9.63623 365.594 7.89543C367.793 4.9112 367.981 -1.30595 367.73 -5.98124C367.416 -11.3529 366.411 -17.3711 365.155 -21.35C358.371 -42.737 346.94 -56.7131 338.523 -64.6711C328.788 -73.9222 317.293 -80.388 307.935 -82.0293C302.533 -82.9743 298.199 -82.1785 295.812 -79.7911C289.783 -73.8227 298.639 -62.8308 308.877 -50.1478C313.651 -44.1794 318.675 -38.012 322.821 -31.5461C333.373 -15.3318 341.978 -3.942 348.761 2.87199ZM364.715 -21.2008C367.039 -13.8894 368.986 2.62327 365.217 7.74619C364.024 9.33778 362.642 10.1336 360.946 10.0839C353.912 9.93466 341.287 -4.09121 323.323 -31.6953C319.115 -38.1611 314.153 -44.3286 309.317 -50.297C299.204 -62.8805 290.411 -73.7232 296.252 -79.4927C298.513 -81.7309 302.659 -82.5267 307.872 -81.5817C317.168 -79.9901 328.474 -73.5243 338.209 -64.3726C346.563 -56.4147 357.994 -42.538 364.715 -21.2008Z" fill="url(#paint21_linear_0_1)"/>
            <path d="M-204.091 107.071C-195.298 115.875 -186.065 124.529 -176.392 133.034C-121.936 180.931 -69.4267 200.726 -15.9126 193.465C30.4411 187.198 70.5138 161.732 105.876 139.251C129.492 124.231 151.727 110.105 172.266 104.137C240.603 84.3912 268.239 92.4486 284.758 97.2234C294.306 100.009 300.649 101.849 308.815 96.1789C316.854 90.6083 303.35 59.821 266.418 -0.758743C250.464 -26.9702 227.727 -40.8468 209.512 -52.0377C200.405 -57.6083 192.491 -62.4825 187.215 -67.7546C172.768 -82.3276 170.758 -87.55 166.487 -99.0392C162.907 -108.589 157.506 -123.013 141.489 -151.214C127.42 -175.983 96.5799 -209.058 61.0295 -237.607C40.8047 -253.871 19.7634 -268.145 -1.46637 -280.082C-25.2085 -293.462 -48.6994 -303.558 -71.2482 -310.074C-113.017 -322.16 -150.891 -321.961 -183.866 -309.527C-216.339 -297.242 -243.85 -278.938 -265.708 -255.214C-287.377 -231.638 -302.326 -203.885 -310.177 -172.7C-321.546 -127.29 -316.772 -76.757 -296.359 -26.4728C-285.493 0.335495 -270.167 27.0941 -250.822 53.1066C-237.255 71.5093 -221.552 89.5141 -204.091 107.071ZM247.952 -21.9467C254.17 -15.7296 260.011 -8.61723 265.162 -0.161926C281.932 27.3924 293.677 48.3815 300.963 64.0487C311.515 86.6294 310.573 93.5428 307.873 95.3831C300.335 100.606 294.996 99.0139 285.261 96.1789C268.553 91.3047 240.603 83.1478 171.763 103.092C151.036 109.111 128.613 123.335 104.934 138.356C69.7601 160.738 29.813 186.104 -16.1639 192.321C-69.1754 199.483 -121.182 179.837 -175.324 132.238C-204.28 106.773 -229.215 80.0143 -249.566 52.6092C-268.848 26.6464 -284.111 -0.0127106 -294.977 -26.7713C-315.328 -76.8566 -320.038 -127.191 -308.732 -172.402C-300.944 -203.438 -286.121 -231.042 -264.514 -254.468C-242.845 -278.043 -215.46 -296.197 -183.238 -308.433C-150.64 -320.767 -113.142 -320.966 -71.7506 -308.98C-49.3275 -302.464 -25.9622 -292.417 -2.3457 -279.137C18.8212 -267.25 39.7369 -252.976 59.9617 -236.811C95.3865 -208.361 126.163 -175.386 140.17 -150.716C156.124 -122.615 161.525 -108.241 165.106 -98.6911C169.439 -87.1024 171.449 -81.7805 186.084 -67.0583C186.084 -67.0086 186.147 -67.0085 186.147 -66.9588C191.549 -61.5872 199.463 -56.713 208.633 -51.0927C220.818 -43.5326 235.076 -34.8287 247.952 -21.9467Z" fill="url(#paint22_linear_0_1)"/>
            <path d="M-187.825 89.6133C-180.728 96.7257 -173.316 103.739 -165.591 110.652C-116.913 154.272 -69.8682 172.973 -21.7558 167.85C20.0756 163.374 56.6938 141.638 89.0409 122.49C111.527 109.11 132.819 96.5268 152.667 91.6526C215.603 75.4383 242.423 82.9983 258.439 87.5244C268.112 90.2599 274.519 92.0504 282.558 86.6291C287.143 83.6449 286.138 73.4985 279.543 56.4387C273.639 41.1197 263.401 20.8269 249.96 -2.2014C236.079 -26.3239 216.043 -39.4048 199.963 -49.949C192.175 -55.0222 185.454 -59.4488 180.681 -64.2236C165.481 -79.3437 163.282 -84.0687 156.624 -97.9951C152.165 -107.346 146.01 -120.178 132.945 -142.709C119.567 -165.787 90.7368 -196.624 57.7616 -223.233C38.9186 -238.453 19.3219 -251.832 -0.337616 -262.973C-22.4467 -275.507 -44.179 -284.957 -65.0947 -291.025C-102.781 -302.017 -136.949 -302.067 -166.721 -291.124C-196.619 -280.083 -222.12 -263.57 -242.344 -241.984C-262.506 -220.547 -276.45 -195.281 -283.924 -166.881C-294.665 -125.798 -290.834 -79.9902 -272.807 -34.3316C-263.197 -10.0101 -249.567 14.3114 -232.232 37.9862C-219.544 55.4937 -204.596 72.8022 -187.825 89.6133ZM231.368 -24.3344C237.649 -18.0178 243.616 -10.6567 248.767 -1.80347C277.157 46.9389 289.781 80.5115 281.742 85.7339C274.33 90.7573 268.552 89.116 258.942 86.4302C242.737 81.8544 215.666 74.2446 152.29 90.5583C132.254 95.4823 110.899 108.165 88.2872 121.594C56.1285 140.693 19.636 162.329 -21.8814 166.756C-69.5541 171.829 -116.222 153.227 -164.523 109.956C-190.526 86.7286 -212.949 62.3077 -231.164 37.4391C-248.374 13.814 -262.004 -10.408 -271.614 -34.6797C-289.577 -80.1394 -293.409 -125.748 -282.668 -166.682C-275.257 -194.983 -261.376 -220.1 -241.339 -241.387C-221.177 -262.774 -195.928 -279.187 -166.219 -290.179C-136.761 -300.972 -102.906 -300.923 -65.5972 -290.03C-38.0236 -281.973 5.56653 -263.719 56.7566 -222.487C89.669 -195.977 118.373 -165.24 131.689 -142.261C144.753 -119.78 150.846 -106.948 155.305 -97.5972C161.838 -83.9195 164.287 -78.7965 179.613 -63.5272C184.512 -58.653 191.233 -54.2264 199.084 -49.1035C209.133 -42.5879 220.69 -34.9782 231.368 -24.3344Z" fill="url(#paint23_linear_0_1)"/>
            <path d="M-171.87 71.9567C-166.406 77.4278 -160.69 82.8989 -154.723 88.2705C-111.824 127.613 -70.1808 145.219 -27.3444 142.086C9.96469 139.4 43.1283 121.296 72.4606 105.38C93.8787 93.7416 114.041 82.7497 133.198 78.9697C190.669 66.2867 216.546 73.3991 232.061 77.6268C241.922 80.3126 248.454 82.1031 256.305 76.9304C267.36 70.1662 252.222 30.3268 233.505 -3.79286C221.634 -25.9756 204.173 -38.3104 190.166 -48.2579C183.823 -52.7342 178.358 -56.6137 174.087 -60.7916C156.751 -77.9012 154.553 -81.6812 142.682 -102.67C138.223 -110.578 132.632 -120.426 124.342 -134.303C115.925 -148.478 101.102 -166.135 82.6357 -183.99C61.9085 -204.084 38.3548 -222.636 14.5498 -237.706C-13.589 -255.512 -41.0998 -267.897 -67.1659 -274.413C-97.5031 -282.022 -125.265 -281.575 -149.698 -272.97C-177.083 -263.172 -200.449 -248.4 -219.166 -229.052C-237.758 -209.804 -250.822 -187.024 -257.92 -161.31C-268.095 -124.555 -265.143 -83.422 -249.503 -42.4386C-234.429 -2.9971 -208.363 35.3999 -171.87 71.9567ZM214.599 -27.1196C221.069 -20.6537 227.224 -12.9445 232.312 -3.395C254.609 37.2402 264.408 70.7133 255.489 76.1347C248.14 80.9591 242.236 79.3178 232.437 76.6817C216.798 72.4044 190.669 65.292 132.821 78.0247C113.475 81.8047 93.1878 92.8961 71.7068 104.584C42.563 120.45 9.52501 138.455 -27.47 141.141C-69.8667 144.225 -111.133 126.717 -153.718 87.6737C-199.129 46.3919 -230.974 2.52371 -248.247 -42.6873C-263.824 -83.5215 -266.713 -124.455 -256.663 -161.062C-249.629 -186.577 -236.69 -209.257 -218.161 -228.406C-199.569 -247.654 -176.33 -262.326 -149.133 -272.025C-125.014 -280.53 -97.5659 -280.978 -67.48 -273.418C-41.6023 -266.902 -14.2171 -254.617 13.7961 -236.861C37.5382 -221.84 61.0291 -203.338 81.6936 -183.294C100.097 -165.488 114.794 -147.931 123.211 -133.855C131.439 -119.979 137.029 -110.131 141.551 -102.272C153.548 -81.1838 155.684 -77.3541 173.145 -60.145C177.416 -55.9174 182.943 -51.9881 189.35 -47.4621C197.201 -41.9413 206.12 -35.5749 214.599 -27.1196Z" fill="url(#paint24_linear_0_1)"/>
            <path d="M-155.603 54.5987C-151.834 58.3787 -147.94 62.1587 -143.92 65.889C-106.736 100.954 -70.4323 117.466 -32.9348 116.273C-0.148041 115.278 28.3049 101.451 55.8156 88.0717C76.0404 78.2735 95.1346 68.9727 113.601 66.3863C165.545 57.185 189.538 63.5513 205.366 67.7292C215.855 70.5145 222.136 72.2056 229.988 67.2318C240.351 61.2634 234.635 29.3819 216.986 -5.43407C207.062 -25.9755 192.05 -37.614 179.991 -47.0143C175.406 -50.5954 171.009 -53.9775 167.492 -57.4591L165.67 -59.1999C145.069 -79.2439 143.373 -80.8853 115.673 -126.047C107.885 -138.73 94.0041 -155.193 77.5479 -171.208C58.6421 -189.611 37.2867 -206.67 15.8057 -220.547C-9.69513 -237.01 -34.5679 -248.599 -58.1216 -254.866C-85.5695 -262.227 -110.694 -262.177 -132.74 -254.816C-157.613 -246.311 -178.905 -233.28 -196.115 -216.071C-213.199 -198.961 -225.259 -178.668 -232.042 -155.74C-241.589 -123.261 -239.579 -86.9034 -226.264 -50.5456C-212.885 -14.337 -189.206 20.9764 -155.603 54.5987ZM197.452 -30.7005C204.235 -23.9362 210.768 -15.6799 215.918 -5.03615C233.065 28.7851 239.095 60.8655 229.297 66.5356C221.948 71.1611 215.855 69.5695 205.743 66.8837C190.731 62.9047 165.545 56.2399 113.35 65.491C94.695 68.1271 75.5379 77.428 55.1875 87.2759C27.8024 100.605 -0.524887 114.333 -32.9976 115.328C-70.1183 116.472 -106.108 100.108 -143.041 65.2424C-182.736 28.3374 -210.373 -10.7062 -225.008 -50.7943C-238.26 -87.0029 -240.208 -123.212 -230.723 -155.491C-224.003 -178.32 -212.006 -198.464 -195.047 -215.474C-178.026 -232.534 -156.859 -245.465 -132.174 -253.921C-110.379 -261.182 -85.5695 -261.232 -58.3728 -253.921C-35.0075 -247.654 -10.2604 -236.165 15.1776 -219.751C36.5958 -205.924 57.8884 -188.914 76.7313 -170.512C93.1247 -154.546 106.943 -138.133 114.669 -125.499C142.43 -80.2387 144.126 -78.5974 164.791 -58.5036L166.612 -56.7628C170.192 -53.2812 174.526 -49.8493 179.174 -46.2682C184.89 -41.8416 191.297 -36.8679 197.452 -30.7005Z" fill="url(#paint25_linear_0_1)"/>
            <path d="M-139.398 37.3398C-137.325 39.4288 -135.253 41.468 -133.054 43.5072C-62.3932 112.741 -8.25102 90.2601 39.4845 70.4647C58.4531 62.6063 76.3539 55.1457 94.0663 53.8028C140.294 47.9338 163.283 53.9023 178.483 57.8315C189.349 60.6666 195.944 62.3576 203.732 57.6326C208.883 54.8473 211.646 46.5412 211.27 34.8032C210.893 22.3192 207.061 7.54728 200.529 -6.87648C192.427 -26.3237 180.053 -37.0669 169.124 -46.5667C166.235 -49.1033 163.471 -51.4907 161.022 -53.8781C157.253 -57.5089 153.861 -60.5926 150.846 -63.3281C137.028 -75.9613 128.737 -83.5711 107.194 -117.492C93.501 -139.127 59.5209 -175.187 17.2498 -203.189C-5.61302 -218.359 -27.8477 -229.102 -48.8263 -235.12C-73.3849 -242.183 -95.8081 -242.63 -115.53 -236.463C-137.891 -229.201 -157.173 -217.911 -172.813 -202.89C-188.39 -187.919 -199.507 -170.114 -205.914 -149.92C-214.833 -121.719 -213.765 -90.0867 -202.773 -58.4041C-191.342 -25.6274 -170.049 6.60229 -139.398 37.3398ZM179.865 -35.525C187.151 -28.2137 194.248 -19.261 199.524 -6.62779C213.531 24.3584 212.714 51.7636 203.104 56.9363C195.756 61.4126 189.412 59.7712 178.86 57.0357C163.534 53.0567 140.42 47.0883 93.9407 52.9573C76.0399 54.3002 58.0134 61.7607 38.982 69.6689C14.8002 79.7158 -10.1981 90.0612 -38.2114 89.5141C-70.1188 88.8675 -100.833 73.6479 -132.175 42.9601C-166.218 10.4321 -189.583 -23.7373 -201.643 -58.7025C-212.509 -90.2359 -213.639 -121.769 -204.783 -149.771C-198.439 -169.865 -187.385 -187.571 -171.934 -202.393C-156.42 -217.314 -137.263 -228.505 -115.091 -235.717C-89.7783 -243.625 -46.3766 -244.272 16.5589 -202.542C58.7043 -174.64 92.5589 -138.68 106.189 -117.144C127.795 -83.1235 136.149 -75.4639 149.967 -62.781C152.919 -60.0454 156.311 -56.9617 160.08 -53.3309C162.592 -50.8938 165.356 -48.5064 168.245 -45.9698C172.076 -42.7867 175.97 -39.3548 179.865 -35.525Z" fill="url(#paint26_linear_0_1)"/>
            <path d="M-119.99 23.4134C-94.7408 48.7296 -69.6169 62.1089 -43.3623 64.3968C-19.4946 66.4858 2.30048 59.3237 23.4046 52.4102C40.9914 46.6407 57.5732 41.2193 74.5319 41.2193C114.856 38.5833 136.714 44.1538 151.16 47.8343C162.717 50.7688 169.626 52.5594 177.477 47.9836C188.532 42.3633 193.745 16.9974 184.072 -8.46806C177.477 -28.6613 166.423 -39.1558 155.682 -49.3519L154.489 -50.4959C149.276 -55.3702 144.565 -59.2496 140.043 -62.9799C127.858 -73.0268 116.363 -82.5266 98.7137 -109.136C85.9005 -128.583 55.3749 -160.912 18.6939 -185.98C-12.2086 -207.118 -57.6202 -229.898 -98.3838 -218.309C-138.08 -206.372 -167.789 -179.365 -179.911 -144.3C-188.139 -120.426 -187.951 -93.4688 -179.409 -66.4118C-169.987 -36.8182 -151.144 -7.67229 -123.257 20.2302C-122.942 20.5784 -122.566 20.8768 -122.252 21.225C-121.498 21.9213 -120.744 22.6674 -119.99 23.4134ZM161.272 -42.6872C169.752 -34.1822 177.854 -24.2844 183.067 -8.2691C193.368 18.9371 186.396 42.4627 176.849 47.2872C169.375 51.6144 162.654 49.8736 151.411 47.0386C136.902 43.3083 114.919 37.7378 74.4063 40.4236C57.2592 40.4236 40.6145 45.8946 22.9021 51.6641C1.92363 58.5279 -19.7458 65.6403 -43.3623 63.5513C-70.1194 61.2634 -95.6202 47.1878 -121.498 20.6282C-121.812 20.28 -122.189 19.9816 -122.503 19.6334C-150.265 -8.16963 -169.108 -37.2161 -178.466 -66.7102C-187.009 -93.618 -187.197 -120.426 -179.032 -144.201C-173.002 -161.559 -162.89 -176.828 -148.946 -189.511C-134.939 -202.244 -117.855 -211.744 -98.1326 -217.662C-57.8086 -229.152 -12.7739 -206.521 17.9401 -185.482C54.4955 -160.465 84.8955 -128.235 97.7087 -108.887C115.421 -82.1287 126.978 -72.6289 139.226 -62.5323C143.748 -58.802 148.459 -54.9225 153.61 -50.0483L154.803 -48.9044C157.064 -46.8154 159.2 -44.7762 161.272 -42.6872Z" fill="url(#paint27_linear_0_1)"/>
            <path d="M-104.852 5.60745C-86.3858 24.1097 -67.7312 34.8031 -48.1345 38.235C-28.6006 41.6668 -10.0717 37.6879 7.7663 33.8581C23.0291 30.5754 38.8572 27.1933 54.9993 28.586C89.0423 28.8844 109.518 34.1068 123.022 37.5387C135.584 40.7716 143.184 42.7113 151.224 38.2847C161.902 33.1618 173.647 11.7749 167.618 -10.0597C164.414 -26.1248 158.573 -37.2162 147.895 -47.1139C142.18 -52.3363 136.589 -56.4645 130.622 -60.7916C118.06 -69.9432 105.059 -79.443 90.0473 -100.83C77.9878 -118.138 50.9167 -146.787 19.9514 -168.821C-6.86844 -187.92 -46.2502 -208.859 -81.361 -200.155C-116.158 -190.755 -142.726 -168.323 -154.158 -138.68C-161.758 -119.084 -162.449 -96.851 -156.168 -74.4196C-149.196 -49.6008 -134.184 -24.9809 -111.51 -1.20657C-109.186 1.13107 -107.05 3.46875 -104.852 5.60745ZM149.089 -44.826C158.447 -35.4754 163.786 -24.8814 166.738 -9.91056C172.642 11.6256 161.211 32.6644 150.722 37.6879C143.059 41.9155 136.024 40.125 123.274 36.892C109.707 33.4104 89.1679 28.1881 54.9993 27.8896C38.7944 26.497 22.9035 29.8791 7.51505 33.1618C-10.2602 36.9915 -28.6635 40.9208 -47.9461 37.5387C-69.6155 33.7586 -90.1544 20.9264 -110.63 -1.70394C-133.242 -25.4285 -148.254 -49.9489 -155.163 -74.6185C-161.444 -96.9008 -160.753 -118.984 -153.216 -138.481C-141.847 -167.876 -115.53 -190.108 -80.9841 -199.459C-46.2503 -208.063 -7.18248 -187.273 19.4489 -168.274C50.3514 -146.29 77.2969 -117.691 89.3564 -100.432C104.431 -78.9457 117.432 -69.3961 130.057 -60.1948C135.961 -55.8676 141.614 -51.7892 147.267 -46.5668C147.832 -46.0197 148.461 -45.4228 149.089 -44.826Z" fill="url(#paint28_linear_0_1)"/>
            <path d="M-89.8395 -11.6517C-60.0676 18.1409 -34.1271 16.5493 -6.86763 14.8582C6.57368 14.0127 20.5175 13.1672 35.4035 16.0022C62.4745 18.7377 80.2497 23.4627 93.2514 26.8946C108.2 30.8736 116.428 33.062 124.97 28.6354C130.937 25.9496 137.846 20.0309 142.934 13.1672C149.089 4.86108 152.041 -3.94242 151.162 -11.6019C151.162 -24.7325 150.471 -35.426 141.364 -43.6824C135.585 -48.855 128.865 -53.1821 121.767 -57.7579C108.954 -66.0143 94.382 -75.3649 81.5687 -92.4745C72.7126 -104.312 50.101 -130.125 21.4597 -151.662C6.51089 -162.852 -7.80978 -171.208 -21.1883 -176.431C-37.0164 -182.648 -51.4626 -184.488 -64.1503 -182.001C-94.1734 -175.187 -117.602 -157.332 -128.468 -133.11C-135.314 -117.791 -136.884 -100.233 -132.864 -82.4773C-128.405 -62.8312 -117.539 -43.0357 -100.517 -23.7377C-96.937 -19.1619 -93.3569 -15.183 -89.8395 -11.6517ZM141.741 -42.2897C149.718 -34.3318 150.346 -24.0362 150.346 -11.5024C152.356 6.00504 134.643 23.612 124.531 28.138C116.365 32.3657 108.263 30.227 93.5654 26.2978C80.5638 22.8659 62.7886 18.0912 35.5919 15.3556C20.5803 12.4709 6.5737 13.3661 -6.93044 14.1619C-22.3189 15.1069 -36.8908 16.0022 -52.028 11.4761C-69.1122 6.35318 -84.3123 -4.93716 -99.8891 -24.0362C-116.848 -43.2845 -127.651 -62.9804 -132.111 -82.527C-136.068 -100.184 -134.623 -117.592 -127.777 -132.811C-116.973 -156.834 -93.7966 -174.541 -64.0247 -181.305C-51.5255 -183.792 -37.2676 -181.902 -21.6908 -175.784C-8.37506 -170.562 5.88278 -162.256 20.7687 -151.115C49.41 -129.628 71.9588 -103.914 80.7522 -92.0766C93.6282 -74.8675 108.263 -65.5169 121.139 -57.2108C128.237 -52.635 134.894 -48.3577 140.673 -43.2347C141.113 -42.8866 141.427 -42.5881 141.741 -42.2897Z" fill="url(#paint29_linear_0_1)"/>
            <path d="M-75.0819 -27.9655C-57.1183 -9.9607 -39.7827 -7.2749 -18.9927 -4.09173C-8.12656 -2.40066 3.05362 -0.709602 15.8668 3.36884C34.3958 7.44728 48.2767 11.5257 59.3941 14.8581C78.5511 20.5281 89.0404 23.6118 98.6503 18.9862C109.768 14.2612 132.568 -0.411228 134.64 -13.0942C134.954 -13.9397 135.268 -14.7852 135.52 -15.6805C138.723 -24.6332 141.989 -33.8843 134.766 -40.3004C129.113 -45.2243 121.136 -49.7007 112.783 -54.4755C99.2156 -62.1847 83.8272 -70.8887 72.9611 -84.1188C61.2156 -98.4928 0.227173 -169.766 -47.1315 -163.798C-72.5067 -159.62 -93.0455 -146.39 -103.409 -127.49C-109.627 -116.199 -111.826 -103.715 -109.941 -90.3856C-107.932 -75.8624 -101.148 -60.9413 -89.7794 -46.1196C-84.7547 -38.7088 -79.9183 -32.79 -75.0819 -27.9655ZM134.892 -39.2559C140.984 -33.1382 137.907 -24.3347 134.829 -15.7799C134.515 -14.9344 134.201 -14.0392 133.887 -13.1936V-13.1439C131.877 -0.709639 109.328 13.8633 98.2735 18.4889C88.9776 22.9652 78.5511 19.8816 59.6454 14.311C48.4652 11.0284 34.5842 6.90013 16.0553 2.82168C3.24203 -1.25676 -8.06372 -2.99755 -18.9298 -4.68861C-45.0588 -8.71731 -65.7233 -11.9005 -89.1514 -46.3683C-100.457 -61.1402 -107.241 -75.9619 -109.251 -90.4354C-111.072 -103.665 -108.874 -116.05 -102.781 -127.241C-92.4803 -145.942 -72.1927 -159.073 -47.0687 -163.201C-28.2257 -165.588 -4.92325 -155.74 22.1478 -134.005C45.9528 -114.856 65.1098 -92.5244 72.2701 -83.7706C83.2619 -70.4411 98.7131 -61.6873 112.28 -53.9781C120.634 -49.2531 128.548 -44.7767 134.138 -39.9025C134.515 -39.6538 134.703 -39.4549 134.892 -39.2559Z" fill="url(#paint30_linear_0_1)"/>
            <path d="M-60.9473 -41.1451C-50.3324 -30.5013 -37.4564 -24.6821 -19.6812 -16.6247C-14.6564 -14.3368 -9.38037 -11.9494 -3.60185 -9.21385C0.920456 -7.47305 5.19152 -5.88144 9.14854 -4.33959C43.8824 8.94022 59.7105 15.0081 72.461 9.38784C82.1965 5.50835 111.906 -6.2296 118.187 -14.5357C126.352 -21.9963 134.894 -31.2474 128.299 -36.7682C122.772 -41.344 113.413 -46.069 103.426 -51.0428C89.4196 -58.0557 73.5287 -66.0136 64.4213 -75.6626C62.7254 -77.5029 60.7155 -79.7411 58.3287 -82.3274C48.7816 -92.8717 34.2725 -108.837 18.5072 -122.018C-0.398544 -137.784 -16.7291 -145.693 -29.982 -145.543C-50.7721 -144.3 -69.1126 -135.496 -79.1622 -122.067C-90.2795 -107.146 -90.2167 -88.0969 -78.9109 -68.4508C-73.3836 -56.3149 -67.6051 -47.8098 -60.9473 -41.1451ZM128.236 -36.0222C133.512 -30.7003 125.41 -21.9466 117.621 -14.8839L117.558 -14.8342C111.403 -6.67728 81.8196 5.06071 72.0841 8.89047C59.6477 14.4113 43.8824 8.39311 9.3998 -4.83696C5.37997 -6.37881 1.17171 -7.97042 -3.3506 -9.71123C-9.12912 -12.4468 -14.3423 -14.8342 -19.3671 -17.1221C-48.1341 -30.1532 -63.9622 -37.3153 -78.2828 -68.6497C-89.463 -88.1964 -89.5886 -107.047 -78.5969 -121.819C-68.6729 -135.099 -50.458 -143.803 -29.9192 -145.046C-16.8547 -145.195 -0.712601 -137.337 18.0676 -121.669C33.8328 -108.539 48.2791 -92.5733 57.8262 -82.029C60.1502 -79.4427 62.1601 -77.2045 63.9188 -75.3642C73.089 -65.6655 89.0428 -57.6578 103.112 -50.6449C113.036 -45.6712 122.395 -40.9959 127.859 -36.4698C127.985 -36.2709 128.111 -36.1714 128.236 -36.0222Z" fill="url(#paint31_linear_0_1)"/>
            <path d="M-46.1863 -40.3493C-40.0309 -34.1819 -32.3681 -28.0146 -23.1351 -21.7974C11.3476 -1.10678 32.0748 5.35907 46.1442 -0.261224C52.7393 -2.69834 66.4318 -6.37887 78.4914 -9.56204C88.0385 -12.0986 97.0831 -14.5358 101.48 -16.0279C105.5 -17.0226 110.399 -19.1613 114.607 -21.7476C119.192 -24.5329 122.081 -27.3679 122.835 -29.7056C123.275 -31.1479 122.898 -32.3417 121.705 -33.3364C116.303 -37.6138 104.746 -42.687 92.5608 -48.0586C78.0517 -54.4249 63.1029 -61.04 55.817 -67.2571C51.9228 -70.6392 46.6467 -76.5579 40.4913 -83.4217C25.2914 -100.481 4.56408 -123.808 -12.8971 -127.24C-29.6673 -129.627 -46.6888 -126.046 -57.3665 -117.989C-66.2855 -111.175 -70.0541 -101.775 -68.1698 -90.7828C-67.8557 -77.1051 -64.8409 -65.9639 -58.6227 -55.7678C-55.3566 -50.5952 -51.2739 -45.4723 -46.1863 -40.3493ZM121.642 -32.7396C122.458 -31.9438 122.647 -30.9988 122.333 -29.8548C120.825 -25.08 109.582 -18.5147 101.354 -16.4755C96.9575 -14.9834 87.9128 -12.5463 78.3657 -10.0097C66.2434 -6.77677 52.5509 -3.146 45.9558 -0.659145C32.0748 4.86168 11.536 -1.55439 -22.7582 -22.1456C-39.4657 -33.3861 -51.0227 -44.4775 -57.9946 -55.9668C-64.1499 -66.1629 -67.1649 -77.2045 -67.4789 -90.8325C-69.3004 -101.725 -65.6574 -110.976 -56.8012 -117.641C-46.2491 -125.648 -29.4161 -129.13 -12.8343 -126.792C4.37563 -123.361 25.0401 -100.133 40.1773 -83.1232C46.2699 -76.2595 51.6087 -70.2911 55.5029 -66.909C62.7889 -60.6421 77.8004 -54.027 92.3723 -47.6109C104.557 -42.2393 116.052 -37.1661 121.391 -32.9385C121.453 -32.9385 121.579 -32.8391 121.642 -32.7396Z" fill="url(#paint32_linear_0_1)"/>
            <path d="M47.7127 779.219C55.8152 787.326 63.8548 794.986 71.7689 802.148C115.422 841.589 154.866 865.712 189.161 873.819C224.209 882.125 252.85 873.272 274.457 847.508C339.904 769.321 372.252 712.571 393.607 675.02C403.217 658.109 410.817 644.779 418.103 635.578C430.162 620.259 432.047 585.692 422.939 545.355C413.141 501.984 393.042 461.548 367.792 434.391C332.995 396.939 306.741 349.092 290.787 315.52C272.258 276.426 256.87 233.453 249.709 200.677C245.061 179.489 230.238 164.12 206.873 156.162C166.423 142.434 105.561 152.73 48.0895 183.119C20.83 197.493 -7.30881 212.415 -33.2493 228.032C-61.9534 245.291 -84.6906 261.654 -102.843 277.968C-124.512 297.465 -140.34 317.509 -151.332 339.244C-163.517 363.466 -169.421 389.23 -169.233 417.978C-168.982 467.069 -117.603 571.019 -44.3666 670.742C-14.4063 711.427 16.9987 748.432 47.7127 779.219ZM233.442 173.371C240.916 180.831 245.941 190.083 248.265 200.826C255.488 233.702 270.876 276.725 289.405 315.917C305.359 349.54 331.676 397.536 366.599 435.088C391.723 462.095 411.696 502.382 421.432 545.554C430.476 585.592 428.718 619.861 416.847 634.931C409.561 644.232 401.898 657.612 392.288 674.522C370.933 712.024 338.648 768.724 273.2 846.861C252.033 872.128 223.895 880.832 189.537 872.725C155.557 864.667 116.301 840.694 72.8367 801.352C34.7111 766.884 -5.36169 721.474 -43.1732 670.046C-116.284 570.522 -167.537 466.82 -167.851 417.879C-167.977 389.28 -162.198 363.665 -150.076 339.592C-139.21 318.007 -123.444 298.062 -101.901 278.664C-61.4509 242.207 -5.42447 212.614 48.7805 184.015C105.875 153.874 166.172 143.578 206.182 157.157C217.362 160.937 226.47 166.358 233.442 173.371Z" fill="url(#paint33_linear_0_1)"/>
            <path d="M61.8465 762.209C68.2531 768.625 74.5969 774.693 80.8779 780.462C120.637 816.87 156.564 839.152 187.78 846.712C219.311 854.372 245.189 846.662 264.66 823.734C324.203 754.848 356.299 701.729 377.592 666.564C387.579 650.052 395.43 637.021 402.842 627.769C414.775 612.749 417.288 580.221 409.374 542.818C400.894 502.78 382.554 464.93 359 439.017C327.093 404.35 302.66 360.432 287.711 329.695C270.187 293.586 255.929 255.388 248.518 224.948C243.87 205.75 229.989 191.774 208.382 184.612C170.884 172.177 114.921 181.677 62.2861 209.43C12.6035 235.592 -38.7122 262.599 -76.5866 296.769C-96.4974 314.774 -111.132 333.226 -121.244 353.27C-132.55 375.602 -138.015 399.327 -138.015 425.787C-138.203 471.197 -91.661 567.239 -24.894 659.303C3.30762 698.048 32.9539 733.212 61.8465 762.209ZM233.694 200.826C240.352 207.491 244.937 215.648 247.199 225.098C254.61 255.636 268.868 293.884 286.455 330.043C301.404 360.83 325.962 404.848 357.932 439.614C381.361 465.427 399.638 503.078 408.118 542.968C415.969 580.121 413.519 612.351 401.774 627.173C394.362 636.523 386.448 649.554 376.461 666.117C355.232 701.231 323.136 754.301 263.655 823.137C244.498 845.618 219.185 853.228 188.283 845.717C157.318 838.207 121.579 816.024 82.0713 779.766C47.3374 747.934 10.782 706.056 -23.575 658.706C-90.2164 566.792 -136.633 470.998 -136.507 425.737C-136.507 399.426 -131.043 375.851 -119.863 353.618C-109.813 333.724 -95.304 315.321 -75.456 297.415C-37.7072 263.346 13.5456 236.338 63.1027 210.226C115.298 182.672 170.822 173.222 207.88 185.507C218.432 189.038 227.099 194.211 233.694 200.826Z" fill="url(#paint34_linear_0_1)"/>
            <path d="M75.9161 745.149C80.6268 749.874 85.3376 754.45 90.0483 758.777C125.85 792.101 158.26 812.543 186.399 819.605C214.412 826.618 237.463 820.003 254.924 799.909C308.941 739.877 339.592 692.179 362.015 657.363C372.19 641.546 380.23 629.062 387.642 619.861C399.638 604.94 402.716 575.147 395.933 540.182C388.772 503.476 372.128 468.262 350.27 443.593C297.761 385.798 260.012 295.674 247.45 249.17C242.802 231.911 229.8 219.378 209.952 213.011C175.407 201.87 124.28 210.574 76.607 235.741C33.645 258.272 -15.0327 283.837 -50.1434 315.619C-68.3583 332.082 -81.674 348.993 -90.9699 367.346C-101.333 387.788 -106.421 409.423 -106.547 433.596C-106.861 454.535 -96.9996 486.566 -78.031 526.306C-59.8162 564.454 -33.9385 607.626 -5.23431 647.863C21.0202 684.718 48.845 717.992 75.9161 745.149ZM234.009 228.33C239.85 234.15 243.933 241.262 246.131 249.419C258.693 296.023 296.567 386.345 349.202 444.239C370.997 468.809 387.579 503.874 394.676 540.431C401.46 575.197 398.382 604.691 386.574 619.413C379.1 628.665 371.06 641.198 360.885 657.015C338.524 691.781 307.873 739.429 253.919 799.412C236.835 819.108 214.286 825.574 186.838 818.71C158.951 811.697 126.729 791.355 91.0533 758.18C59.6483 728.984 26.7359 690.637 -4.16656 647.366C-32.8707 607.128 -58.6856 564.006 -76.9005 525.908C-95.8062 486.317 -105.605 454.386 -105.353 433.596C-105.228 409.573 -100.14 388.036 -89.8393 367.694C-80.6062 349.49 -67.2905 332.629 -49.2013 316.266C-14.2162 284.583 34.3987 259.068 77.2979 236.587C124.657 211.619 175.281 202.964 209.45 213.956C219.5 217.189 227.79 222.064 234.009 228.33Z" fill="url(#paint35_linear_0_1)"/>
            <path d="M89.8584 728.089C92.9989 731.222 96.0766 734.207 99.1543 737.141C131.062 767.381 159.954 786.033 185.015 792.548C209.574 798.915 229.799 793.394 245.125 776.135C294.116 724.408 324.705 679.794 347.128 647.216C356.738 633.191 365.091 621.055 372.377 612.102C384.249 597.529 388.017 569.676 382.427 537.695C376.586 504.322 361.637 471.694 341.475 448.268C320.873 425.24 300.146 394.055 281.617 358.045C266.731 329.148 253.855 298.311 246.255 273.492C241.544 258.173 229.548 247.131 211.396 241.511C179.802 231.713 133.574 239.621 90.8006 262.102C45.7658 285.628 6.00717 307.313 -23.8904 334.469C-40.3465 349.44 -52.4688 364.759 -60.9482 381.421C-70.3697 399.924 -75.1432 419.57 -75.3945 441.454C-75.8969 460.653 -67.3548 489.898 -50.5218 526.057C-34.4424 560.624 -11.5168 599.867 14.1725 636.473C38.6683 671.389 64.6716 702.823 89.8584 728.089ZM234.384 255.785C239.409 260.809 242.989 266.777 245.125 273.641C252.725 298.559 265.601 329.396 280.549 358.343C299.141 394.403 319.868 425.638 340.533 448.716C360.632 472.042 375.518 504.521 381.296 537.745C386.824 569.527 383.181 597.131 371.435 611.555C364.087 620.508 355.796 632.643 346.123 646.719C323.763 679.297 293.174 723.911 244.245 775.538C229.234 792.449 209.449 797.87 185.455 791.603C160.582 785.138 131.878 766.586 100.159 736.495C72.0832 709.885 42.751 675.119 15.3031 635.926C-10.3234 599.32 -33.249 560.127 -49.3284 525.609C-66.0358 489.6 -74.6407 460.454 -74.1383 441.355C-73.8242 419.619 -69.1763 400.073 -59.7548 381.67C-51.3383 365.108 -39.2788 349.838 -22.8854 334.967C6.88651 307.86 46.5824 286.224 91.5543 262.749C134.014 240.417 179.865 232.558 211.082 242.207C220.629 245.341 228.48 249.867 234.384 255.785Z" fill="url(#paint36_linear_0_1)"/>
            <path d="M103.676 710.98C105.246 712.521 106.754 714.063 108.324 715.555C136.337 742.712 161.649 759.523 183.696 765.541C204.737 771.261 222.135 766.834 235.451 752.361C280.109 708.343 311.074 666.117 333.686 635.28C342.668 623.044 350.393 612.5 357.177 604.244C369.111 589.72 373.444 564.553 368.985 535.059C364.463 504.968 351.21 475.027 332.744 452.794C294.744 409.622 260.701 342.129 245.124 297.664C240.413 284.285 229.296 274.686 212.902 269.811C184.261 261.356 142.932 268.468 105.058 288.314C66.5552 308.308 29.7486 328.252 2.48911 353.171C-12.2084 366.6 -23.0746 380.377 -30.7374 395.348C-39.2795 411.96 -43.6134 429.567 -44.053 449.114C-44.8068 466.621 -37.458 493.081 -22.8861 525.659C-9.00513 556.695 11.0941 591.959 33.7056 624.984C56.2544 658.059 80.3734 687.653 103.676 710.98ZM234.823 283.29C238.968 287.468 242.109 292.392 244.056 297.963C259.633 342.477 293.739 410.07 331.802 453.341C350.205 475.425 363.332 505.267 367.854 535.209C372.251 564.454 368.043 589.472 356.235 603.796C349.388 612.052 341.663 622.646 332.681 634.882C310.069 665.669 279.167 707.846 234.509 751.863C221.507 765.989 204.549 770.316 184.01 764.745C162.215 758.777 136.965 742.065 109.14 715.058C84.4561 691.085 58.704 659.85 34.6478 624.735C12.099 591.76 -7.93735 556.546 -21.8811 525.56C-36.4531 493.081 -43.739 466.721 -42.9853 449.313C-42.5456 429.865 -38.2117 412.358 -29.7324 395.845C-22.1324 380.974 -11.3291 367.246 3.3056 353.917C30.5023 329.098 67.2462 309.153 105.623 289.209C143.246 269.463 184.135 262.401 212.463 270.756C221.696 273.442 229.233 277.67 234.823 283.29Z" fill="url(#paint37_linear_0_1)"/>
            <path d="M117.244 693.821C117.307 693.87 117.37 693.92 117.432 693.97C141.489 718.043 163.347 733.063 182.315 738.534C199.839 743.607 214.474 740.275 225.717 728.587C267.109 691.632 299.204 650.649 322.632 620.757C329.981 611.406 336.325 603.299 342.041 596.485C353.849 582.26 358.811 558.983 355.545 532.573C352.279 505.814 340.785 478.409 324.014 457.47C307.809 438.669 291.542 414.746 275.525 386.395C263.528 365.058 252.034 341.582 243.994 321.986C239.284 310.546 229.046 302.34 214.348 298.311C188.722 291.199 152.292 297.515 119.317 314.774C87.0325 331.386 53.492 349.49 28.8705 372.121C15.9316 384.008 6.25891 396.243 -0.587372 409.523C-8.18738 424.245 -12.1444 439.763 -12.7097 457.072C-14.6568 488.307 11.9118 551.274 53.2408 613.794C73.7796 644.78 95.8887 672.434 117.244 693.821ZM235.39 310.795C238.718 314.127 241.294 317.957 243.052 322.235C251.092 341.831 262.586 365.357 274.646 386.694C290.662 415.094 306.993 439.067 323.198 457.917C339.842 478.757 351.274 506.013 354.54 532.672C357.743 558.884 352.907 582.012 341.161 596.037C335.446 602.851 329.102 610.959 321.753 620.309C298.325 650.201 266.229 691.135 224.9 728.04C213.971 739.429 199.713 742.712 182.629 737.738C163.849 732.317 142.18 717.396 118.186 693.423C118.123 693.373 118.061 693.323 117.998 693.273C96.7052 671.936 74.5961 644.282 54.1201 613.346C12.854 551.025 -13.6518 488.207 -11.7047 457.072C-11.1394 439.913 -7.1824 424.444 0.354767 409.822C7.13824 396.641 16.7482 384.456 29.6242 372.618C54.1829 350.038 87.6606 331.983 119.882 315.371C152.543 298.261 188.659 291.994 213.971 299.007C222.828 301.494 230.051 305.473 235.39 310.795Z" fill="url(#paint38_linear_0_1)"/>
        </g>
    </g>
    <defs>
        <linearGradient id="paint0_linear_0_1" x1="362.142" y1="460.454" x2="362.142" y2="125.321" gradientUnits="userSpaceOnUse">
            <stop stop-color="#FF9900" stop-opacity="0.4"/>
            <stop offset="0.206768" stop-color="#FF9900" stop-opacity="0.8"/>
            <stop offset="0.500041" stop-color="#FF9900" stop-opacity="0.4"/>
            <stop offset="0.80293" stop-color="#D90368" stop-opacity="0.6"/>
            <stop offset="1" stop-color="#D6EBFF" stop-opacity="0.7"/>
        </linearGradient>
        <linearGradient id="paint1_linear_0_1" x1="364.705" y1="449.611" x2="364.705" y2="142.765" gradientUnits="userSpaceOnUse">
            <stop stop-color="#FF9900" stop-opacity="0.4"/>
            <stop offset="0.206768" stop-color="#FF9900" stop-opacity="0.8"/>
            <stop offset="0.500041" stop-color="#FF9900" stop-opacity="0.4"/>
            <stop offset="0.80293" stop-color="#D90368" stop-opacity="0.6"/>
            <stop offset="1" stop-color="#D6EBFF" stop-opacity="0.7"/>
        </linearGradient>
        <linearGradient id="paint2_linear_0_1" x1="367.337" y1="438.818" x2="367.337" y2="160.316" gradientUnits="userSpaceOnUse">
            <stop stop-color="#FF9900" stop-opacity="0.4"/>
            <stop offset="0.206768" stop-color="#FF9900" stop-opacity="0.8"/>
            <stop offset="0.500041" stop-color="#FF9900" stop-opacity="0.4"/>
            <stop offset="0.80293" stop-color="#D90368" stop-opacity="0.6"/>
            <stop offset="1" stop-color="#D6EBFF" stop-opacity="0.7"/>
        </linearGradient>
        <linearGradient id="paint3_linear_0_1" x1="369.864" y1="427.976" x2="369.864" y2="177.788" gradientUnits="userSpaceOnUse">
            <stop stop-color="#FF9900" stop-opacity="0.4"/>
            <stop offset="0.206768" stop-color="#FF9900" stop-opacity="0.8"/>
            <stop offset="0.500041" stop-color="#FF9900" stop-opacity="0.4"/>
            <stop offset="0.80293" stop-color="#D90368" stop-opacity="0.6"/>
            <stop offset="1" stop-color="#D6EBFF" stop-opacity="0.7"/>
        </linearGradient>
        <linearGradient id="paint4_linear_0_1" x1="372.451" y1="417.084" x2="372.451" y2="195.342" gradientUnits="userSpaceOnUse">
            <stop stop-color="#FF9900" stop-opacity="0.4"/>
            <stop offset="0.206768" stop-color="#FF9900" stop-opacity="0.8"/>
            <stop offset="0.500041" stop-color="#FF9900" stop-opacity="0.4"/>
            <stop offset="0.80293" stop-color="#D90368" stop-opacity="0.6"/>
            <stop offset="1" stop-color="#D6EBFF" stop-opacity="0.7"/>
        </linearGradient>
        <linearGradient id="paint5_linear_0_1" x1="374.925" y1="406.291" x2="374.925" y2="212.768" gradientUnits="userSpaceOnUse">
            <stop stop-color="#FF9900" stop-opacity="0.4"/>
            <stop offset="0.206768" stop-color="#FF9900" stop-opacity="0.8"/>
            <stop offset="0.500041" stop-color="#FF9900" stop-opacity="0.4"/>
            <stop offset="0.80293" stop-color="#D90368" stop-opacity="0.6"/>
            <stop offset="1" stop-color="#D6EBFF" stop-opacity="0.7"/>
        </linearGradient>
        <linearGradient id="paint6_linear_0_1" x1="377.444" y1="395.448" x2="377.444" y2="230.178" gradientUnits="userSpaceOnUse">
            <stop stop-color="#FF9900" stop-opacity="0.4"/>
            <stop offset="0.206768" stop-color="#FF9900" stop-opacity="0.8"/>
            <stop offset="0.500041" stop-color="#FF9900" stop-opacity="0.4"/>
            <stop offset="0.80293" stop-color="#D90368" stop-opacity="0.6"/>
            <stop offset="1" stop-color="#D6EBFF" stop-opacity="0.7"/>
        </linearGradient>
        <linearGradient id="paint7_linear_0_1" x1="379.904" y1="384.606" x2="379.904" y2="247.672" gradientUnits="userSpaceOnUse">
            <stop stop-color="#FF9900" stop-opacity="0.4"/>
            <stop offset="0.206768" stop-color="#FF9900" stop-opacity="0.8"/>
            <stop offset="0.500041" stop-color="#FF9900" stop-opacity="0.4"/>
            <stop offset="0.80293" stop-color="#D90368" stop-opacity="0.6"/>
            <stop offset="1" stop-color="#D6EBFF" stop-opacity="0.7"/>
        </linearGradient>
        <linearGradient id="paint8_linear_0_1" x1="382.302" y1="373.82" x2="382.302" y2="265.136" gradientUnits="userSpaceOnUse">
            <stop stop-color="#FF9900" stop-opacity="0.4"/>
            <stop offset="0.206768" stop-color="#FF9900" stop-opacity="0.8"/>
            <stop offset="0.500041" stop-color="#FF9900" stop-opacity="0.4"/>
            <stop offset="0.80293" stop-color="#D90368" stop-opacity="0.6"/>
            <stop offset="1" stop-color="#D6EBFF" stop-opacity="0.7"/>
        </linearGradient>
        <linearGradient id="paint9_linear_0_1" x1="384.333" y1="362.983" x2="384.333" y2="282.494" gradientUnits="userSpaceOnUse">
            <stop stop-color="#FF9900" stop-opacity="0.4"/>
            <stop offset="0.206768" stop-color="#FF9900" stop-opacity="0.8"/>
            <stop offset="0.500041" stop-color="#FF9900" stop-opacity="0.4"/>
            <stop offset="0.80293" stop-color="#D90368" stop-opacity="0.6"/>
            <stop offset="1" stop-color="#D6EBFF" stop-opacity="0.7"/>
        </linearGradient>
        <linearGradient id="paint10_linear_0_1" x1="293.957" y1="143.494" x2="293.957" y2="-163.802" gradientUnits="userSpaceOnUse">
            <stop stop-color="#FF9900" stop-opacity="0.4"/>
            <stop offset="0.206768" stop-color="#FF9900" stop-opacity="0.8"/>
            <stop offset="0.500041" stop-color="#FF9900" stop-opacity="0.4"/>
            <stop offset="0.80293" stop-color="#D90368" stop-opacity="0.6"/>
            <stop offset="1" stop-color="#D6EBFF" stop-opacity="0.7"/>
        </linearGradient>
        <linearGradient id="paint11_linear_0_1" x1="297.652" y1="129.421" x2="297.652" y2="-155.106" gradientUnits="userSpaceOnUse">
            <stop stop-color="#FF9900" stop-opacity="0.4"/>
            <stop offset="0.206768" stop-color="#FF9900" stop-opacity="0.8"/>
            <stop offset="0.500041" stop-color="#FF9900" stop-opacity="0.4"/>
            <stop offset="0.80293" stop-color="#D90368" stop-opacity="0.6"/>
            <stop offset="1" stop-color="#D6EBFF" stop-opacity="0.7"/>
        </linearGradient>
        <linearGradient id="paint12_linear_0_1" x1="301.462" y1="115.396" x2="301.462" y2="-146.386" gradientUnits="userSpaceOnUse">
            <stop stop-color="#FF9900" stop-opacity="0.4"/>
            <stop offset="0.206768" stop-color="#FF9900" stop-opacity="0.8"/>
            <stop offset="0.500041" stop-color="#FF9900" stop-opacity="0.4"/>
            <stop offset="0.80293" stop-color="#D90368" stop-opacity="0.6"/>
            <stop offset="1" stop-color="#D6EBFF" stop-opacity="0.7"/>
        </linearGradient>
        <linearGradient id="paint13_linear_0_1" x1="305.402" y1="101.323" x2="305.402" y2="-137.867" gradientUnits="userSpaceOnUse">
            <stop stop-color="#FF9900" stop-opacity="0.4"/>
            <stop offset="0.206768" stop-color="#FF9900" stop-opacity="0.8"/>
            <stop offset="0.500041" stop-color="#FF9900" stop-opacity="0.4"/>
            <stop offset="0.80293" stop-color="#D90368" stop-opacity="0.6"/>
            <stop offset="1" stop-color="#D6EBFF" stop-opacity="0.7"/>
        </linearGradient>
        <linearGradient id="paint14_linear_0_1" x1="309.576" y1="87.3462" x2="309.576" y2="-129.199" gradientUnits="userSpaceOnUse">
            <stop stop-color="#FF9900" stop-opacity="0.4"/>
            <stop offset="0.206768" stop-color="#FF9900" stop-opacity="0.8"/>
            <stop offset="0.500041" stop-color="#FF9900" stop-opacity="0.4"/>
            <stop offset="0.80293" stop-color="#D90368" stop-opacity="0.6"/>
            <stop offset="1" stop-color="#D6EBFF" stop-opacity="0.7"/>
        </linearGradient>
        <linearGradient id="paint15_linear_0_1" x1="313.748" y1="73.3235" x2="313.748" y2="-120.801" gradientUnits="userSpaceOnUse">
            <stop stop-color="#FF9900" stop-opacity="0.4"/>
            <stop offset="0.206768" stop-color="#FF9900" stop-opacity="0.8"/>
            <stop offset="0.500041" stop-color="#FF9900" stop-opacity="0.4"/>
            <stop offset="0.80293" stop-color="#D90368" stop-opacity="0.6"/>
            <stop offset="1" stop-color="#D6EBFF" stop-opacity="0.7"/>
        </linearGradient>
        <linearGradient id="paint16_linear_0_1" x1="317.937" y1="59.4587" x2="317.937" y2="-112.41" gradientUnits="userSpaceOnUse">
            <stop stop-color="#FF9900" stop-opacity="0.4"/>
            <stop offset="0.206768" stop-color="#FF9900" stop-opacity="0.8"/>
            <stop offset="0.500041" stop-color="#FF9900" stop-opacity="0.4"/>
            <stop offset="0.80293" stop-color="#D90368" stop-opacity="0.6"/>
            <stop offset="1" stop-color="#D6EBFF" stop-opacity="0.7"/>
        </linearGradient>
        <linearGradient id="paint17_linear_0_1" x1="322.247" y1="45.6855" x2="322.247" y2="-104.194" gradientUnits="userSpaceOnUse">
            <stop stop-color="#FF9900" stop-opacity="0.4"/>
            <stop offset="0.206768" stop-color="#FF9900" stop-opacity="0.8"/>
            <stop offset="0.500041" stop-color="#FF9900" stop-opacity="0.4"/>
            <stop offset="0.80293" stop-color="#D90368" stop-opacity="0.6"/>
            <stop offset="1" stop-color="#D6EBFF" stop-opacity="0.7"/>
        </linearGradient>
        <linearGradient id="paint18_linear_0_1" x1="326.3" y1="32.2219" x2="326.3" y2="-96.4223" gradientUnits="userSpaceOnUse">
            <stop stop-color="#FF9900" stop-opacity="0.4"/>
            <stop offset="0.206768" stop-color="#FF9900" stop-opacity="0.8"/>
            <stop offset="0.500041" stop-color="#FF9900" stop-opacity="0.4"/>
            <stop offset="0.80293" stop-color="#D90368" stop-opacity="0.6"/>
            <stop offset="1" stop-color="#D6EBFF" stop-opacity="0.7"/>
        </linearGradient>
        <linearGradient id="paint19_linear_0_1" x1="329.513" y1="19.6533" x2="329.513" y2="-89.0577" gradientUnits="userSpaceOnUse">
            <stop stop-color="#FF9900" stop-opacity="0.4"/>
            <stop offset="0.206768" stop-color="#FF9900" stop-opacity="0.8"/>
            <stop offset="0.500041" stop-color="#FF9900" stop-opacity="0.4"/>
            <stop offset="0.80293" stop-color="#D90368" stop-opacity="0.6"/>
            <stop offset="1" stop-color="#D6EBFF" stop-opacity="0.7"/>
        </linearGradient>
        <linearGradient id="paint20_linear_0_1" x1="330.876" y1="10.917" x2="330.876" y2="-84.5082" gradientUnits="userSpaceOnUse">
            <stop stop-color="#FF9900" stop-opacity="0.4"/>
            <stop offset="0.206768" stop-color="#FF9900" stop-opacity="0.8"/>
            <stop offset="0.500041" stop-color="#FF9900" stop-opacity="0.4"/>
            <stop offset="0.80293" stop-color="#D90368" stop-opacity="0.6"/>
            <stop offset="1" stop-color="#D6EBFF" stop-opacity="0.7"/>
        </linearGradient>
        <linearGradient id="paint21_linear_0_1" x1="330.832" y1="10.4341" x2="330.832" y2="-82.4171" gradientUnits="userSpaceOnUse">
            <stop stop-color="#FF9900" stop-opacity="0.4"/>
            <stop offset="0.206768" stop-color="#FF9900" stop-opacity="0.8"/>
            <stop offset="0.500041" stop-color="#FF9900" stop-opacity="0.4"/>
            <stop offset="0.80293" stop-color="#D90368" stop-opacity="0.6"/>
            <stop offset="1" stop-color="#D6EBFF" stop-opacity="0.7"/>
        </linearGradient>
        <linearGradient id="paint22_linear_0_1" x1="-2.5757" y1="194.924" x2="-2.5757" y2="-318.998" gradientUnits="userSpaceOnUse">
            <stop stop-color="#FF9900" stop-opacity="0.4"/>
            <stop offset="0.206768" stop-color="#FF9900" stop-opacity="0.8"/>
            <stop offset="0.500041" stop-color="#FF9900" stop-opacity="0.4"/>
            <stop offset="0.80293" stop-color="#D90368" stop-opacity="0.6"/>
            <stop offset="1" stop-color="#D6EBFF" stop-opacity="0.7"/>
        </linearGradient>
        <linearGradient id="paint23_linear_0_1" x1="-2.25088" y1="168.675" x2="-2.25088" y2="-299.3" gradientUnits="userSpaceOnUse">
            <stop stop-color="#FF9900" stop-opacity="0.4"/>
            <stop offset="0.206768" stop-color="#FF9900" stop-opacity="0.8"/>
            <stop offset="0.500041" stop-color="#FF9900" stop-opacity="0.4"/>
            <stop offset="0.80293" stop-color="#D90368" stop-opacity="0.6"/>
            <stop offset="1" stop-color="#D6EBFF" stop-opacity="0.7"/>
        </linearGradient>
        <linearGradient id="paint24_linear_0_1" x1="-1.9039" y1="142.441" x2="-1.9039" y2="-279.792" gradientUnits="userSpaceOnUse">
            <stop stop-color="#FF9900" stop-opacity="0.4"/>
            <stop offset="0.206768" stop-color="#FF9900" stop-opacity="0.8"/>
            <stop offset="0.500041" stop-color="#FF9900" stop-opacity="0.4"/>
            <stop offset="0.80293" stop-color="#D90368" stop-opacity="0.6"/>
            <stop offset="1" stop-color="#D6EBFF" stop-opacity="0.7"/>
        </linearGradient>
        <linearGradient id="paint25_linear_0_1" x1="-1.41475" y1="116.333" x2="-1.41475" y2="-260.362" gradientUnits="userSpaceOnUse">
            <stop stop-color="#FF9900" stop-opacity="0.4"/>
            <stop offset="0.206768" stop-color="#FF9900" stop-opacity="0.8"/>
            <stop offset="0.500041" stop-color="#FF9900" stop-opacity="0.4"/>
            <stop offset="0.80293" stop-color="#D90368" stop-opacity="0.6"/>
            <stop offset="1" stop-color="#D6EBFF" stop-opacity="0.7"/>
        </linearGradient>
        <linearGradient id="paint26_linear_0_1" x1="-0.294857" y1="90.3933" x2="-0.294857" y2="-240.775" gradientUnits="userSpaceOnUse">
            <stop stop-color="#FF9900" stop-opacity="0.4"/>
            <stop offset="0.206768" stop-color="#FF9900" stop-opacity="0.8"/>
            <stop offset="0.500041" stop-color="#FF9900" stop-opacity="0.4"/>
            <stop offset="0.80293" stop-color="#D90368" stop-opacity="0.6"/>
            <stop offset="1" stop-color="#D6EBFF" stop-opacity="0.7"/>
        </linearGradient>
        <linearGradient id="paint27_linear_0_1" x1="1.60151" y1="64.7656" x2="1.60151" y2="-221.44" gradientUnits="userSpaceOnUse">
            <stop stop-color="#FF9900" stop-opacity="0.4"/>
            <stop offset="0.206768" stop-color="#FF9900" stop-opacity="0.8"/>
            <stop offset="0.500041" stop-color="#FF9900" stop-opacity="0.4"/>
            <stop offset="0.80293" stop-color="#D90368" stop-opacity="0.6"/>
            <stop offset="1" stop-color="#D6EBFF" stop-opacity="0.7"/>
        </linearGradient>
        <linearGradient id="paint28_linear_0_1" x1="4.4208" y1="40.8691" x2="4.4208" y2="-202.185" gradientUnits="userSpaceOnUse">
            <stop stop-color="#FF9900" stop-opacity="0.4"/>
            <stop offset="0.206768" stop-color="#FF9900" stop-opacity="0.8"/>
            <stop offset="0.500041" stop-color="#FF9900" stop-opacity="0.4"/>
            <stop offset="0.80293" stop-color="#D90368" stop-opacity="0.6"/>
            <stop offset="1" stop-color="#D6EBFF" stop-opacity="0.7"/>
        </linearGradient>
        <linearGradient id="paint29_linear_0_1" x1="8.13369" y1="31.0823" x2="8.13369" y2="-183.072" gradientUnits="userSpaceOnUse">
            <stop stop-color="#FF9900" stop-opacity="0.4"/>
            <stop offset="0.206768" stop-color="#FF9900" stop-opacity="0.8"/>
            <stop offset="0.500041" stop-color="#FF9900" stop-opacity="0.4"/>
            <stop offset="0.80293" stop-color="#D90368" stop-opacity="0.6"/>
            <stop offset="1" stop-color="#D6EBFF" stop-opacity="0.7"/>
        </linearGradient>
        <linearGradient id="paint30_linear_0_1" x1="14.2565" y1="21.2322" x2="14.2565" y2="-164.152" gradientUnits="userSpaceOnUse">
            <stop stop-color="#FF9900" stop-opacity="0.4"/>
            <stop offset="0.206768" stop-color="#FF9900" stop-opacity="0.8"/>
            <stop offset="0.500041" stop-color="#FF9900" stop-opacity="0.4"/>
            <stop offset="0.80293" stop-color="#D90368" stop-opacity="0.6"/>
            <stop offset="1" stop-color="#D6EBFF" stop-opacity="0.7"/>
        </linearGradient>
        <linearGradient id="paint31_linear_0_1" x1="21.6019" y1="11.4817" x2="21.6019" y2="-145.545" gradientUnits="userSpaceOnUse">
            <stop stop-color="#FF9900" stop-opacity="0.4"/>
            <stop offset="0.206768" stop-color="#FF9900" stop-opacity="0.8"/>
            <stop offset="0.500041" stop-color="#FF9900" stop-opacity="0.4"/>
            <stop offset="0.80293" stop-color="#D90368" stop-opacity="0.6"/>
            <stop offset="1" stop-color="#D6EBFF" stop-opacity="0.7"/>
        </linearGradient>
        <linearGradient id="paint32_linear_0_1" x1="27.1848" y1="1.67285" x2="27.1848" y2="-127.969" gradientUnits="userSpaceOnUse">
            <stop stop-color="#FF9900" stop-opacity="0.4"/>
            <stop offset="0.206768" stop-color="#FF9900" stop-opacity="0.8"/>
            <stop offset="0.500041" stop-color="#FF9900" stop-opacity="0.4"/>
            <stop offset="0.80293" stop-color="#D90368" stop-opacity="0.6"/>
            <stop offset="1" stop-color="#D6EBFF" stop-opacity="0.7"/>
        </linearGradient>
        <linearGradient id="paint33_linear_0_1" x1="129.711" y1="876.838" x2="129.711" y2="150.184" gradientUnits="userSpaceOnUse">
            <stop stop-color="#FF9900" stop-opacity="0.4"/>
            <stop offset="0.206768" stop-color="#FF9900" stop-opacity="0.8"/>
            <stop offset="0.500041" stop-color="#FF9900" stop-opacity="0.4"/>
            <stop offset="0.80293" stop-color="#D90368" stop-opacity="0.6"/>
            <stop offset="1" stop-color="#D6EBFF" stop-opacity="0.7"/>
        </linearGradient>
        <linearGradient id="paint34_linear_0_1" x1="137.96" y1="849.578" x2="137.96" y2="179.238" gradientUnits="userSpaceOnUse">
            <stop stop-color="#FF9900" stop-opacity="0.4"/>
            <stop offset="0.206768" stop-color="#FF9900" stop-opacity="0.8"/>
            <stop offset="0.500041" stop-color="#FF9900" stop-opacity="0.4"/>
            <stop offset="0.80293" stop-color="#D90368" stop-opacity="0.6"/>
            <stop offset="1" stop-color="#D6EBFF" stop-opacity="0.7"/>
        </linearGradient>
        <linearGradient id="paint35_linear_0_1" x1="146.459" y1="822.315" x2="146.459" y2="208.243" gradientUnits="userSpaceOnUse">
            <stop stop-color="#FF9900" stop-opacity="0.4"/>
            <stop offset="0.206768" stop-color="#FF9900" stop-opacity="0.8"/>
            <stop offset="0.500041" stop-color="#FF9900" stop-opacity="0.4"/>
            <stop offset="0.80293" stop-color="#D90368" stop-opacity="0.6"/>
            <stop offset="1" stop-color="#D6EBFF" stop-opacity="0.7"/>
        </linearGradient>
        <linearGradient id="paint36_linear_0_1" x1="154.775" y1="795.108" x2="154.775" y2="237.375" gradientUnits="userSpaceOnUse">
            <stop stop-color="#FF9900" stop-opacity="0.4"/>
            <stop offset="0.206768" stop-color="#FF9900" stop-opacity="0.8"/>
            <stop offset="0.500041" stop-color="#FF9900" stop-opacity="0.4"/>
            <stop offset="0.80293" stop-color="#D90368" stop-opacity="0.6"/>
            <stop offset="1" stop-color="#D6EBFF" stop-opacity="0.7"/>
        </linearGradient>
        <linearGradient id="paint37_linear_0_1" x1="163.298" y1="767.962" x2="163.298" y2="266.308" gradientUnits="userSpaceOnUse">
            <stop stop-color="#FF9900" stop-opacity="0.4"/>
            <stop offset="0.206768" stop-color="#FF9900" stop-opacity="0.8"/>
            <stop offset="0.500041" stop-color="#FF9900" stop-opacity="0.4"/>
            <stop offset="0.80293" stop-color="#D90368" stop-opacity="0.6"/>
            <stop offset="1" stop-color="#D6EBFF" stop-opacity="0.7"/>
        </linearGradient>
        <linearGradient id="paint38_linear_0_1" x1="171.859" y1="740.832" x2="171.859" y2="295.438" gradientUnits="userSpaceOnUse">
            <stop stop-color="#FF9900" stop-opacity="0.4"/>
            <stop offset="0.206768" stop-color="#FF9900" stop-opacity="0.8"/>
            <stop offset="0.500041" stop-color="#FF9900" stop-opacity="0.4"/>
            <stop offset="0.80293" stop-color="#D90368" stop-opacity="0.6"/>
            <stop offset="1" stop-color="#D6EBFF" stop-opacity="0.7"/>
        </linearGradient>
    </defs>
</svg>
