<svg width="20" height="20" viewBox="0 0 20 20" fill="none" xmlns="http://www.w3.org/2000/svg">
<path d="M5.33333 1.33333C3.12433 1.33333 1.33333 3.12433 1.33333 5.33333V14.6667C1.33333 16.8757 3.12433 18.6667 5.33333 18.6667H14.6667C16.8757 18.6667 18.6667 16.8757 18.6667 14.6667V10C18.6667 9.82319 18.7369 9.65362 18.8619 9.5286C18.987 9.40357 19.1565 9.33333 19.3333 9.33333C19.5101 9.33333 19.6797 9.40357 19.8047 9.5286C19.9298 9.65362 20 9.82319 20 10V14.6667C20 17.6123 17.6123 20 14.6667 20H5.33333C2.38767 20 0 17.6123 0 14.6667V5.33333C0 2.38767 2.38767 0 5.33333 0H10C10.1768 0 10.3464 0.0702379 10.4714 0.195262C10.5964 0.320286 10.6667 0.489856 10.6667 0.666667C10.6667 0.843478 10.5964 1.01305 10.4714 1.13807C10.3464 1.2631 10.1768 1.33333 10 1.33333H5.33333Z" fill="#D6EBFF"/>
<path d="M10.966 5.07033C10.8643 5.01954 10.7514 4.99557 10.6379 5.0007C10.5244 5.00583 10.4141 5.03988 10.3174 5.09962C10.2208 5.15937 10.141 5.24282 10.0857 5.34207C10.0304 5.44131 10.0013 5.55304 10.0013 5.66667V10.558C9.54452 10.3413 9.02971 10.2789 8.53437 10.38C8.03902 10.4812 7.58994 10.7405 7.2547 11.119C6.91947 11.4974 6.71621 11.9745 6.67554 12.4784C6.63486 12.9824 6.75895 13.4859 7.02915 13.9132C7.29934 14.3405 7.70102 14.6685 8.17372 14.8478C8.64642 15.0271 9.16458 15.0481 9.65021 14.9075C10.1358 14.7669 10.5627 14.4723 10.8664 14.0682C11.1702 13.6641 11.3345 13.1722 11.3346 12.6667V6.74533L12.37 7.263C12.5279 7.34041 12.7101 7.35224 12.8767 7.29593C13.0434 7.23961 13.181 7.11971 13.2597 6.96235C13.3383 6.805 13.3516 6.62294 13.2965 6.45585C13.2415 6.28876 13.1227 6.15019 12.966 6.07033L10.966 5.07033ZM20.0013 3.66667C20.0013 3.84348 19.9311 4.01305 19.806 4.13807C19.681 4.2631 19.5114 4.33333 19.3346 4.33333H17.0013V6.66667C17.0013 6.84348 16.9311 7.01305 16.806 7.13807C16.681 7.2631 16.5114 7.33333 16.3346 7.33333C16.1578 7.33333 15.9883 7.2631 15.8632 7.13807C15.7382 7.01305 15.668 6.84348 15.668 6.66667V4.33333H13.3346C13.1578 4.33333 12.9883 4.2631 12.8632 4.13807C12.7382 4.01305 12.668 3.84348 12.668 3.66667C12.668 3.48986 12.7382 3.32029 12.8632 3.19526C12.9883 3.07024 13.1578 3 13.3346 3H15.668V0.666667C15.668 0.489856 15.7382 0.320286 15.8632 0.195262C15.9883 0.0702379 16.1578 0 16.3346 0C16.5114 0 16.681 0.0702379 16.806 0.195262C16.9311 0.320286 17.0013 0.489856 17.0013 0.666667V3H19.3346C19.5114 3 19.681 3.07024 19.806 3.19526C19.9311 3.32029 20.0013 3.48986 20.0013 3.66667Z" fill="#D6EBFF"/>
</svg>
