<svg width="20" height="20" viewBox="0 0 20 20" fill="none" xmlns="http://www.w3.org/2000/svg">
<path d="M19.4243 0H0.575693C0.255864 0 0 0.255864 0 0.575693V9.61194C0 9.93177 0.255864 10.1876 0.575693 10.1876C0.895522 10.1876 1.15139 9.93177 1.15139 9.61194V1.15139H18.8486V18.8486H10.3369C10.0171 18.8486 9.76119 19.1045 9.76119 19.4243C9.76119 19.7441 10.0171 20 10.3369 20H19.4243C19.7441 20 20 19.7441 20 19.4243V0.575693C20 0.255864 19.7441 0 19.4243 0Z" fill="black"/>
<path d="M7.48827 11.9355H0.575693C0.255864 11.9355 0 12.1914 0 12.5112V19.4238C0 19.7436 0.255864 19.9995 0.575693 19.9995H7.48827C7.8081 19.9995 8.06397 19.7436 8.06397 19.4238V12.5112C8.06397 12.1957 7.80384 11.9355 7.48827 11.9355ZM6.91258 18.8481H1.15139V13.0869H6.91258V18.8481Z" fill="black"/>
<path d="M6.91258 18.8481H1.15139V13.0869H6.91258V18.8481Z" fill="black"/>
<path d="M11.4503 9.36717H14.4993C14.8191 9.36717 15.075 9.62303 15.075 9.94286C15.075 10.2627 14.8191 10.5186 14.4993 10.5186H10.0601C9.74024 10.5186 9.48438 10.2627 9.48438 9.94286V5.50363C9.48438 5.1838 9.74024 4.92794 10.0601 4.92794C10.3799 4.92794 10.6358 5.1838 10.6358 5.50363V8.55267L16.1283 3.06013C16.3543 2.83412 16.7168 2.83412 16.9428 3.06013C17.0537 3.17101 17.1134 3.32026 17.1134 3.46525C17.1134 3.61024 17.0579 3.7595 16.9428 3.87037L11.4503 9.36717Z" fill="black"/>
</svg>
