<svg width="50" height="50" viewBox="0 0 50 50" fill="none" xmlns="http://www.w3.org/2000/svg">
<rect width="50" height="50" rx="10" fill="white"/>
<path d="M34.0722 15.0828C33.3077 15.0828 32.6857 15.7064 32.6857 16.4729V33.5362C32.7556 35.3809 35.3945 35.3742 35.464 33.5362V16.4729C35.464 15.7064 34.8396 15.0828 34.0722 15.0828ZM25 15.0828C24.2325 15.0828 23.6082 15.7064 23.6082 16.4729V33.5362C23.6784 35.3783 26.3223 35.3768 26.3918 33.5362V16.4729C26.3918 15.7064 25.7675 15.0828 25 15.0828ZM29.536 20.1656C28.7716 20.1656 28.1496 20.7891 28.1496 21.5557V28.4535C28.2196 30.2983 30.8584 30.2914 30.9279 28.4535V21.5557C30.9279 20.7891 30.3035 20.1656 29.536 20.1656ZM38.6082 22.707C37.8438 22.707 37.2218 23.3306 37.2218 24.0971V25.9121C37.2917 27.7568 39.9305 27.7501 40 25.9121V24.0971C40 23.3306 39.3757 22.707 38.6082 22.707ZM11.3918 22.707C10.6244 22.707 10 23.3306 10 24.0971V25.912C10.0702 27.7514 12.709 27.7554 12.7782 25.912V24.0971C12.7782 23.3306 12.1563 22.707 11.3918 22.707ZM15.9279 17.6242C15.1604 17.6242 14.536 18.2477 14.536 19.0143V30.9948C14.6062 32.8343 17.2451 32.8381 17.3144 30.9948V19.0143C17.3144 18.2477 16.6924 17.6242 15.9279 17.6242ZM20.464 10C19.6965 10 19.0722 10.6236 19.0722 11.3901V38.619C19.1423 40.4584 21.7811 40.4623 21.8504 38.619V11.3901C21.8504 10.6236 21.2284 10 20.464 10Z" fill="black"/>
</svg>
