<svg width="30" height="30" viewBox="0 0 30 30" fill="none" xmlns="http://www.w3.org/2000/svg">
    <g clip-path="url(#clip0_497_963)">
        <path d="M15 30C6.71572 30 0 23.2843 0 15C0 6.71572 6.71572 0 15 0C23.2843 0 30 6.71572 30 15C30 23.2843 23.2843 30 15 30ZM12.7941 11.4469L16.375 21.4732C16.6538 22.254 17.758 22.254 18.0369 21.4732L20.0336 15.8823H23.8236C24.3109 15.8823 24.7059 15.4873 24.7059 14.9999C24.7059 14.5126 24.3109 14.1176 23.8236 14.1176H19.4118C19.0389 14.1176 18.7063 14.352 18.5808 14.7032L17.2059 18.553L13.625 8.52674C13.3462 7.74598 12.242 7.74598 11.9631 8.52674L9.96639 14.1176H6.17643C5.6891 14.1176 5.29406 14.5127 5.29406 15C5.29406 15.4873 5.6891 15.8824 6.17643 15.8824H10.5882C10.9611 15.8824 11.2937 15.648 11.4192 15.2968L12.7941 11.4469Z" fill="#D9D9D9"/>
    </g>
    <defs>
        <clipPath id="clip0_497_963">
            <rect width="30" height="30" fill="white"/>
        </clipPath>
    </defs>
</svg>